<?xml version="1.0" encoding="utf-8"?>
<!-- Generator: Adobe Illustrator 28.2.0, SVG Export Plug-In . SVG Version: 6.00 Build 0)  -->
<svg version="1.1" id="Layer_1" xmlns="http://www.w3.org/2000/svg" xmlns:xlink="http://www.w3.org/1999/xlink" x="0px" y="0px"
	 viewBox="0 0 512.2 483.2" style="enable-background:new 0 0 512.2 483.2;" xml:space="preserve">
<style type="text/css">
	.st0{fill:#E8E8E8;}
	.st1{fill:#D3DBE4;}
	.st2{fill:#FD0226;}
	.st3{fill:#FFFEFF;}
	.st4{fill:#FFFFFF;}
	.st5{fill:#979EAB;}
	.st6{fill:#D4DBE4;}
	.st7{fill:#D2DAE1;}
	.st8{fill:#D2D9E2;}
	.st9{fill:#2E3540;}
	.st10{fill:#939BA8;}
	.st11{fill:#FDFEFE;}
	.st12{fill:#3F4752;}
	.st13{fill:#D1DAE2;}
	.st14{fill:#2B313C;}
	.st15{fill:#B3041A;}
	.st16{fill:#464F59;}
	.st17{fill:#BC021D;}
	.st18{fill:#BB031D;}
	.st19{fill:#FEFFFF;}
	.st20{fill:#383E49;}
	.st21{fill:#E1E9EF;}
	.st22{fill:#C2051B;}
	.st23{fill:#FEFEFE;}
	.st24{fill:#D3DCE4;}
	.st25{fill:#F9FBFE;}
	.st26{fill:#3B434A;}
	.st27{fill:#FEFEFF;}
	.st28{fill:#616671;}
	.st29{fill:#333A43;}
	.st30{fill:#E7EEF1;}
	.st31{fill:#FBFEFE;}
	.st32{fill:#FCFDFE;}
	.st33{fill:#50565F;}
	.st34{fill:#D81F35;}
	.st35{fill:#CD142A;}
	.st36{fill:#FEFFFE;}
	.st37{fill:#FCFEFF;}
	.st38{fill:#FE4B54;}
	.st39{fill:#FAF6F7;}
	.st40{fill:#EDC3C4;}
	.st41{fill:#87909D;}
	.st42{fill:#F9FDFE;}
	.st43{fill:#FBFDFE;}
	.st44{fill:#939CA8;}
	.st45{fill:#2C333E;}
	.st46{fill:#C5CDD8;}
	.st47{fill:#CDD3DE;}
	.st48{fill:#CFD3DE;}
	.st49{fill:#8F97A2;}
	.st50{fill:#FDFEFF;}
</style>
<path class="st0" d="M255.3,412.7c-4,0-6.5-2.1-7.4-2.8c-14.9-12.3-30.2-23.7-47.8-36.3l0.3,4c0.1,1.1,0,1.9,0,2.4l0,0l-1,20.4
	l-15.5-13.3c-0.4-0.3-1.1-0.9-1.8-1.7c-9.1-10.4-15.3-20.8-18.9-31.7c-3.2,1.2-6.4,2.5-9.5,3.8c-1.2,0.5-2.7,1-4.6,1
	c-2.9,0-5.7-1.2-7.6-3.3c-2.1-2.3-3.1-5.2-2.8-8.7c0.2-2.6,0.4-5.3,0.7-8.2c-5.7,1.3-11.5,2.4-17.5,3.4c-0.7,0.1-1.4,0.2-2,0.2
	c-3.5,0-6.6-1.5-8.5-4.3c-1.2-1.6-2.8-4.9-1.5-9.5c-4.6,0.4-18.3,1.4-18.3,1.4h-1.8l-15.1-0.2l6-13.7c0.2-0.5,0.6-1.5,1.3-2.6
	c4-5.8,8.3-11.5,12.9-17c-2.6-0.2-5.3-0.4-7.9-0.6c-5.8-0.5-8.3-4.3-9.1-5.9c-0.8-1.6-2.2-5.8,0.8-10.5c2.5-4.6,5-9.2,7.5-13.8
	c8.1-14.9,16.5-30.2,24.9-45.3c-1.6-2.9-2.9-7.8,0.2-13.8c1.8-3.5,3.6-7.2,5.3-10.7c-17.4-13.5-28.1-32.1-32.1-55.3
	c-3.6-21-1.2-41.1,1.9-59.8c0.9-5.3,5.2-9,10.4-9c0.8,0,1.5,0.1,2.1,0.2c17,1.3,33.7,4.6,49.4,9.8c12,4,24.5,8.7,35.8,16.2
	c-1.8-4-3.1-8.1-4.1-12.2c-1.1-4.7,0.7-7.9,1.9-9.4c2-2.5,5-4,8.3-4c0.8,0,1.5,0.1,2.3,0.2c13.6,2.6,27.6,4.4,41.5,6
	c0.3-1.1,0.8-2,1.1-2.6c1.9-3.1,5.2-5,8.9-5c0.7,0,1.4,0.1,2.1,0.2c22.4,3.9,50.5,11.1,73.7,31.2c14.3-10.2,31.3-17.7,53.9-24
	c11.1-3.1,23.3-5.2,37.2-6.5c0.4,0,1.1-0.1,1.8-0.1c6.3,0,11,4.2,12,10.7c1.6,10.7,3.3,23.1,3.3,35.6v0.1
	c-0.3,22.9-4.9,40.6-14.4,55.8c-5.5,8.7-12,16.1-19.7,21.9c1.8,3.8,3.6,7.4,5.5,10.9c3,5.6,1.6,10.4,0.2,13.4
	c9.6,18.2,20,37.3,31,56.6l0.1,0.2c1.7,3,4.3,7.6,1.5,13s-8.1,5.8-11.5,6.1c0,0-3.3,0.3-4.9,0.4c4.3,5.3,8.6,11,12.8,16.9
	c0.6,0.9,1,1.7,1.2,2v-0.1l7.6,14.7l-16.7-0.2h-1.5c0,0-14-1.1-18.5-1.4c1.2,4.4-0.1,7.6-1.5,9.5c-2,2.7-5.1,4.3-8.5,4.3
	c-1.1,0-1.9-0.1-2.5-0.2c-5.5-0.9-11.1-2-17-3.3c0.3,3.1,0.6,6.1,0.7,9c0.2,4-1.4,6.6-2.8,8.1c-1.9,2-4.7,3.2-7.5,3.2
	c-1.9,0-3.3-0.5-4.4-0.9c-2.8-1.1-5.7-2.3-8.5-3.4l-1.5-0.6c-3.8,11.6-10.2,22.4-19.2,32.1c-0.9,0.9-1.7,1.5-2.1,1.8l-18.6,14.2
	l2.8-24c0.1-1.4,0.2-2.8,0.3-4.1c-17.3,12.4-33.1,24.4-48,36.4C259.8,412.3,257.1,412.8,255.3,412.7L255.3,412.7L255.3,412.7z"/>
<g>
	<path d="M418.7,117.5c-0.2,17.9-3.1,35.1-12.9,50.6c-6,9.5-13.5,17.5-23.1,23.4c-0.8,0.5-0.6,0.9-0.3,1.5c3,6,5.8,12.1,8.9,18
		c1.8,3.3-0.9,5.2-1.8,7.6c-0.3,0.7-0.4,1.2,0,1.8c10.7,20.4,21.8,40.7,33.1,60.7c1.5,2.7,0.8,4.1-2.2,4.3
		c-7.8,0.6-15.6,1.3-23.4,1.9c-0.3,0-0.6,0.1-0.9,0.2c0.2,0.3,0.3,0.6,0.6,0.9c8.9,9.4,16.9,19.4,24.3,30c0.2,0.2,0.3,0.5,0.4,0.8
		h-0.9c-10.7-0.8-21.4-1.6-32-2.5c-0.9-0.1-1,0.1-0.7,0.9c1.3,4.2,2.5,8.4,3.8,12.6c0.5,1.5-0.1,1.4-1.2,1.2
		c-9.8-1.7-19.6-3.8-29.3-6.1c-1-0.2-1.1-0.1-1,1c1.1,7.1,2,14.2,2.4,21.4c0,0.9-0.3,0.8-0.9,0.6c-6.5-2.6-13-5.2-19.5-7.8
		c-0.8-0.3-1.2-0.4-1.4,0.7c-2.6,14.5-9.4,27-19.4,37.8c-0.2,0.2-0.5,0.4-0.7,0.5c0-0.3,0.1-0.5,0.1-0.8c0.6-8.1,1.3-16.3,1.9-24.4
		c0-0.3,0-0.5-0.1-0.8c-0.2,0.1-0.5,0.2-0.7,0.4c-22.2,15.4-44,31.5-65,48.5c-0.8,0.7-1.2,0.2-1.8-0.2
		c-18.8-15.5-38.5-29.8-58.4-43.8c-2.1-1.5-4.3-3-6.4-4.5c-0.2-0.2-0.5-0.3-0.8-0.4c0,0.3-0.1,0.6-0.1,0.9c0.6,8,1.3,16,1.9,24.1v1
		c-0.2-0.2-0.5-0.4-0.8-0.6c-9.6-11-16.9-23.2-19.2-37.9c-0.2-1-0.8-0.5-1.2-0.4c-6.4,2.5-12.8,5-19.2,7.6c-1.1,0.4-1.5,0.5-1.4-1
		c0.5-7.2,1.2-14.3,2.5-21.4c0.2-1.2-0.7-0.4-0.9-0.4c-9.9,2.4-19.8,4.7-29.9,6.3c-1.1,0.2-1.2-0.1-0.9-1c1.4-4.3,2.7-8.5,4-12.8
		c0.3-0.8,0.2-1.1-0.8-1c-10.7,0.9-21.4,1.7-32,2.5h-0.9c0.1-0.3,0.2-0.6,0.4-0.8c7.4-10.7,15.5-20.7,24.5-30
		c0.3-0.3,0.5-0.6,0.7-0.9c-0.3-0.1-0.7-0.1-1-0.2c-8.9-0.8-17.8-1.5-26.7-2.2c-1.6-0.1-0.8-0.8-0.5-1.4
		c11.1-20.3,22.1-40.6,33.4-60.8c1.7-3,1.2-5.2-0.5-7.6c-1.2-1.7-1-3.1,0-4.9c3-5.9,5.9-11.9,8.8-17.8c0.3-0.5,0.4-0.9-0.2-1.2
		c-19.5-12.6-30.5-30.7-34.3-53.3c-3.2-18.9-1.2-37.7,1.9-56.5c0.2-1,0.9-0.5,1.3-0.5c16.2,1.2,32.1,4.2,47.6,9.4
		c15.2,5,30,10.9,42,21.6c5.2,4.6,9.6,1.3,14.5,1.2c3.1-0.1,3.1-0.9,1.4-3.3c-6.1-8.3-10.9-17.2-13.3-27.3c-0.2-1,0-1.2,0.9-1
		c18.7,3.5,37.6,5.6,56.4,7.8h1c-0.1-0.3-0.2-0.6-0.4-0.8c-1.3-2.4-2.6-4.9-3.9-7.4c-0.3-0.5-0.5-1,0.5-0.8
		c27.7,4.9,53.8,13.3,74.2,33.9c0.5,0.5,0.8,0.4,1.2,0c16.7-13.5,36.2-21.2,56.6-26.9c11.6-3.2,23.5-5.1,35.5-6.1
		c1.8-0.2,2.6,0,2.9,2.1C417.2,94.7,418.7,106,418.7,117.5L418.7,117.5L418.7,117.5z"/>
	<path class="st1" d="M364.6,311.7c-6.2-0.4-12.4-1.2-18.5-2.2c-1-0.2-1.5-0.2-1.3,1.1c0.8,5.6,1.5,11.1,2.3,16.7v1
		c-0.3-0.1-0.7-0.2-1-0.4c-4.8-2.3-9.5-4.6-14.2-6.9c-1.2-0.6-2.3-0.5-3.6,0.1c-21.9,10.7-43.9,21.2-65.7,32c-4.4,2.1-8,2.2-12.5,0
		c-22.2-10.9-44.6-21.5-67-32.1c-0.9-0.4-1.7-0.5-2.6-0.1c-4.9,2.4-9.8,4.8-14.6,7.1c-0.3,0.1-0.7,0.2-1,0.4v-0.9
		c0.7-5.6,1.4-11.2,2.2-16.8c0.2-1.1-0.1-1.4-1.3-1.2c-5.7,1-11.5,1.9-17.3,2.3c-0.3-0.3-0.9,0.2-1-0.4c0-0.5,0.4-0.7,0.8-1
		c2.8-1.8,5.7-3.4,8.4-5.3c0.2-0.1,0.4-0.3,0.6-0.4c0.3-0.2,0.8-0.4,0.8-0.7c-0.1-0.4-0.6-0.1-0.9-0.2c-0.2-0.1-0.5-0.1-0.6-0.4
		c-5.5-1-11-0.9-16.5-1.3c-4.4-0.4-8.8-0.6-13.3-0.8c-0.2,0-0.5-0.1-0.7-0.2c0.3-0.4,0.5-0.8,0.8-1.1c0.1,0.6,0.4,0.9,1.2,0.9
		c1.1,0,2-0.3,2.8-1c3.3-2.6,6.7-5,9.7-8c0.1-0.1,0.4-0.2,0.3-0.4c-0.1-0.2-0.3,0-0.5,0c-0.5,0.1-1.1,0.1-1.7,0.1
		c-1.9,0-3.8-0.1-5.7,0.3c1.3-1.7,2.5-3.4,3.8-5c0.6-0.8,0.6-1-0.5-1.2c-5.2-0.9-10.4-1.8-15.6-2.8c6-3.3,12.1-6.6,17.7-10.5
		c0.7-0.5,1.5-0.9,1.9-1.7c-0.8-0.1-1.7-0.1-2.5-0.1c-1.6,0.1-3.2-0.2-4.7-0.3c-0.8,0-1.4,0.4-2.2,0.2c0.5-0.7-0.1-0.6-0.5-0.8
		c-5.6-1.6-11.1-3.3-16.7-5c0-0.9,0.7-1.1,1.3-1.3c3.6-1.4,7.2-2.8,10.8-4c3.8-1.3,7.5-2.6,11.3-4.1c0.1-0.1,0.3-0.1,0.4-0.2
		c-0.1-0.1-0.3-0.1-0.5-0.1c-1,0-2.1,0.1-3.1,0c-0.4,0-1,0.1-0.9-0.7c0.5-0.4,1.1-0.3,1.7-0.3h18.8c0.7,0,1.5-0.2,1.8,0.5
		c0.3,0.8-0.6,1.2-1.1,1.7c-3.4,3.2-6.8,6.3-10.3,9.3l-0.5,0.5c-0.2,0.3-0.2,0.5,0.2,0.6h0.5c3-0.2,6,0.4,9,0.2
		c3.1-0.1,6.3,0.2,9.4,0.3c0.5,0,1.1-0.1,1.3,0.4c0.2,0.6-0.3,0.9-0.6,1.3s-0.7,0.7-1,1c-3.9,3.8-7.5,7.9-11.4,11.6
		c-0.1,0.1-0.2,0.2-0.3,0.4c-0.1,0.2-0.4,0.4-0.2,0.6c0.1,0.2,0.4,0.1,0.6,0.1c1.5-0.3,3-0.2,4.5-0.4c2.2-0.3,4.4,0,6.5-0.2
		c0.9-0.1,1.2,0.5,0.8,1.3c-0.2,0.4-0.5,0.7-0.8,1.1c-2.6,3.4-5.2,6.8-7.9,10.1c-0.2,0.2-0.4,0.5-0.6,0.8c-0.3,0.4-0.1,0.6,0.4,0.7
		c0.8,0,1.6,0.1,2.4-0.1c1.3-0.2,2.6-0.2,3.9-0.2c4.8,0,9.6-0.2,14.4-0.3c3-0.1,6-0.1,9-0.2h1.1c1.1,0.1,1.3,0.5,0.9,1.5
		c-0.2,0.5-0.5,0.9-0.8,1.3c-2.3,3.5-4.8,6.9-7,10.5c-0.2,0.3-0.6,0.6-0.3,0.9c0.2,0.3,0.6,0,0.9,0c1.2-0.2,2.3-0.4,3.5-0.7
		c0.5-0.1,0.9-0.2,1.4,0c0.5,0.8,1.3,1.1,2.1,1.4c6.3,2.6,12.6,5.2,18.9,7.9c4,1.7,7.8,3.7,11.8,5.4c5.3,2.2,10.6,4.3,16,6
		c0.4,0.1,0.9,0.2,1,0.7v5.6c0,1.1,0.4,1.6,1.5,1.8c7.4,1.5,14,0,19.8-4.8c1.5-1.3,1.8-1.3,3.3,0c3.8,3.2,8.1,5.1,13,5.5
		c2.5,0.2,4.8-0.2,7.2-0.8c1-0.2,1.1-1.1,1-1.9c-0.2-1.8-0.2-3.5,0-5.3c0.2-0.6,0.7-0.7,1.2-0.8c9.4-2.8,18.2-7,27.1-10.9
		c6.5-2.8,12.8-6,19.5-8.3c0.8-0.3,1.8-0.5,2.2-1.4c1.3-0.3,2.5,0.4,3.7,0.4c0.6,0,1.5,0.6,1.8,0.1s-0.4-1.1-0.8-1.6
		c-2.3-3.3-4.5-6.7-6.9-10c-0.4-0.6-1.2-1.3-0.8-2.1c0.4-0.8,1.4-0.4,2.1-0.5c6.1-0.2,12.2,0.1,18.3,0.3c4,0.1,8.1-0.1,12.1,0.3
		c0.2,0,0.4,0.1,0.6-0.1c0.2-0.3-0.1-0.5-0.3-0.7c-1.9-2.3-3.8-4.6-5.6-6.9c-1.2-1.4-2.3-2.9-3.5-4.3c-0.3-0.4-0.7-0.8-0.5-1.3
		s0.8-0.5,1.3-0.5c3.5-0.1,6.9,0.2,10.3,0.3c0.3,0,0.8,0.3,1-0.1c0.1-0.2-0.3-0.5-0.5-0.7c-4-4-7.8-8.2-11.9-12.2
		c-0.5-0.5-1.4-1-1.1-1.8c0.3-0.9,1.4-0.6,2.1-0.6c6-0.1,11.9-0.5,17.8-0.5c0.2,0,0.5,0.1,0.6-0.1c0.1-0.3-0.2-0.4-0.3-0.5
		c-2.1-2-4.3-3.8-6.3-5.8c-1.5-1.5-3.2-2.8-4.7-4.4c-0.4-0.4-1-0.8-0.7-1.4c0.2-0.6,1-0.5,1.5-0.5c6.7,0,13.3-0.1,20,0h0.6
		c0.8,0.6,0.1,0.8-0.4,0.9c-0.8,0.2-1.7,0.1-2.5,0.1c-0.3,0-0.7-0.1-1,0.1c0.2,0.2,0.6,0.3,0.9,0.4c2.7,1.1,5.4,2,8.2,3
		c4.3,1.5,8.7,3,13,4.6c0.8,0.3,1.7,0.4,2.2,1.3c-5.6,1.7-11.2,3.4-16.9,5.2c-0.3,0.1-0.5,0.3-0.8,0.5c-0.5,0.3-1.1,0.1-1.6,0.1
		c-2.6,0-5.2,0-7.8,0.2c-0.2,0-0.5-0.1-0.5,0.1s0.3,0.3,0.4,0.4c4.9,3.2,9.8,6.3,15,9.2c1.5,0.8,3.1,1.4,4.3,2.6
		c-5.1,0.9-10.2,1.9-15.2,2.8c-0.3,0.1-0.6,0.2-1,0.3c0.2,0.3,0.3,0.5,0.5,0.8c1.3,1.7,2.6,3.4,3.9,5.1c-2.2,0-4.5-0.2-6.7-0.4
		c-0.1,0-0.2,0-0.3-0.1c-0.3,0-0.7-0.1-1.1-0.1c0.2,0.3,0.5,0.4,0.7,0.7c2.7,2.8,5.9,5.1,8.9,7.5c1.1,0.9,2.2,1.5,3.7,1.3
		c0.5-0.1,1,0,1.3,0.4c-8.1,0.6-16.1,1.1-24.2,1.7c-1.8,0.1-3.7-0.2-5.3,0.9c-0.4,0.4-0.9,0.2-1.3,0.2c-0.2,0-0.4-0.1-0.5,0.2
		c-0.1,0.2,0.2,0.3,0.3,0.5c1,0.9,2.1,1.5,3.2,2.2c2,1.2,4,2.5,6.1,3.6c0.2,0.1,0.3,0.2,0.5,0.3c0.2,0.2,0.5,0.4,0.5,0.8
		C365.3,311.7,364.8,311.4,364.6,311.7L364.6,311.7L364.6,311.7z"/>
	<path class="st2" d="M142.2,195.7c0.1-1.4,1.1-1.8,2.3-2.1c20.8-5.9,41.7-11.3,62.9-15.3c0.2,0,0.4-0.1,0.5-0.2
		c-0.1-0.1-0.2-0.2-0.3-0.3c-4-1.4-7.4-3.9-10.6-6.5c-1.8-1.5-3.5-1.1-5.4-0.5c-4.1,1.2-8.2,2.3-12.3,3.5c-1.9,0.2-3.7,0.9-5.6,1.5
		c-5.4,1.7-10.7,3.4-16.1,5.2c-3.2,1.1-6.4,2-9.6,3.1c-0.4,0.1-0.8,0.3-1.2,0.2c-0.5-0.1-1.2-0.1-0.9-1c0.4-1.2,0.8-2.4,1.2-3.6
		c0.5-0.8,1.3-1,2.1-1.3c4.2-1.8,8.6-3.4,12.9-4.8c9-3,18-5.8,27.1-8.2c10.3-2.7,20.8-4.5,31.5-5.6c6.2-0.6,12.5-1.2,18.7-1.6
		c2.3-0.1,4.7-0.3,7-0.3h18.7c5.4,0,10.8,0.5,16.3,0.9c8.1,0.6,16.1,1.5,24.1,2.9c9.7,1.7,19.2,3.8,28.6,6.6
		c7.9,2.4,15.7,4.9,23.3,7.9c2,0.8,4.1,1.5,6,2.6c1.3,1.2,1.6,2.8,2.1,4.3c0.3,0.7-0.3,1.2-1.1,0.9c-1.7-0.6-3.4-1-5.1-1.6
		c-3.6-1.2-7.2-2.4-10.8-3.5c-2.5-0.8-5-1.6-7.5-2.4c-2.7-0.9-5.4-1.6-8.2-2.4c-2.9-0.9-5.7-1.9-8.7-2.3c-5.8-3-10.1-0.3-14.1,3.6
		c-0.5,0.4-1,0.8-1.5,1.1c-0.9,0.6-1.9,1.1-2.8,1.6c1.1,0.3,2.2,0.6,3.3,0.9c18.9,4,37.7,8.5,56.2,14c1,0.3,1.9,0.6,2.8,0.9
		c0.7,0.2,1.1,0.8,1.7,1.1l0,0c0.2,0.3,0,0.7,0.2,0.9l0,0c0,2.4-0.1,2.5-2.4,1.6c-9.4-3.4-19.2-5.6-29-7.5
		c-4.7-0.9-9.4-1.7-14.1-2.4c-1.2-0.2-1.4-0.4-1.7-2.3c-0.5-0.3,0.5-1.8-1-1.4c-0.7,0.6-1.5,1.1-2.1,1.7l0,0c-0.1,0-0.2,0.1-0.3,0.2
		l0,0c-0.4,0.2-0.7,0.4-0.9,0.7l0,0c-0.1,0-0.2,0.1-0.2,0.2l0,0c-0.1,0.1-0.2,0.1-0.2,0.2l0,0c-1.2,0.5-1.9,1.6-3,2.3
		c-0.4,0.3-0.8,0.5-1.3,0.4c-2.6-0.6-5.3-0.6-7.9-1.5c-4.1-4.4-8.4-8.6-12.4-13.1c-2.7-3.1-5.7-5.9-8.3-9.1
		c-0.7-0.4-1.4-0.6-2.2-0.5c-2.9-0.3-5.8-0.3-8.7-0.4c-0.4,0-0.9-0.2-1.1,0.2c-0.1,0.4,0.4,0.6,0.7,0.9l1.4,1.4
		c0.1,0.1,0.2,0.2,0.2,0.2l0.1,0.1c0.5,0.6,1.1,1.2,1.7,1.8c2.9,2.8,5.6,5.9,8.5,8.7c2,2,4.2,3.9,6.1,5.9c0.4,0.4,0.9,0.8,0.9,1.5
		c-0.1,0.3-0.3,0.6-0.6,0.7c-0.3,0.1-0.7,0.1-1,0c-0.5-0.2-1.1-0.2-1.6-0.1c-5.9-0.5-11.9-0.6-17.8-0.8c-4.1-0.1-8.2-0.1-12.4-0.1
		c-1.5,0-3.1-0.3-4.6-0.2c-5,0.3-10.1,0.1-15.1,0.3c-7,0.2-13.9,1-20.8,1.7c-7.1,0.7-14.1,1.7-21.1,2.7c-0.3,0-0.5,0-0.8-0.1l0,0
		c-0.1-0.2-0.3-0.1-0.5-0.3l0,0c-0.1-0.1-0.2-0.2-0.3-0.2c-1.8-1.5-3.5-3-5.3-4.6c-0.5-0.4-1-0.8-1.5-1.1c-0.2,0.6-0.4,1.3-0.6,1.9
		c-0.1,0.4-0.2,0.9-0.3,1.4c-0.4,0.4-0.8,0.6-1.4,0.6c-9.6,0.9-18.9,3.2-28.2,5.3c-4.9,1.1-9.7,2.5-14.4,4c-0.6,0.2-1.2,0.4-1.8,0.4
		c-1.1,0.1-1.2-0.1-1-1.1C142.1,196.1,142.1,195.9,142.2,195.7L142.2,195.7L142.2,195.7z"/>
	<path class="st3" d="M133.2,254.3c1.5,0.7,3.1,0.1,4.6,0.3c0.4,0,0.7,0.1,1.1,0.2c-0.3,0.2-0.6,0.4-0.9,0.5
		c-7.5,2.8-15.1,5.5-22.6,8.3c-0.5,0.2-1,0.6-1.5,0.9l0,0c-0.2-0.2-0.5-0.1-0.8-0.2c-1.3,0.1-1.4-0.4-0.8-1.4
		c9.4-15.4,18-31.2,26.7-47.1c0.3-0.5,0.6-0.9,1.3-1.1c14.1-3.4,28.2-6.9,42.4-10.2c3.5-0.8,6.6,1.2,9.8,2.3c3.4,1.2,6.6,2.8,10,4.2
		c0.2,0.1,0.5,0.1,0.7,0.1c-0.1-0.3-0.1-0.5-0.2-0.8c-2-5.5-4.1-11.1-6.1-16.6c-0.1-0.4-0.1-0.8-0.2-1.2c0.3,0.2,0.7,0.4,1.1,0.7
		c12.2,10,23.2,21.2,34.3,32.2c0.2,0.2,0.5,0.4,0.7,0.6c0-0.3-0.1-0.7-0.2-1c-2.2-7-5.3-13.6-9.2-19.9c-0.3-0.6,0.2-0.7,0.6-0.7
		c0.5-0.1,1,0.2,1.4,0.5c6.3,4.4,12.5,9,18.1,14.4c1.7,1.7,3.2,3.6,5.2,5c0.4,0.3,0.7,0.7,0.7,1.3c-0.1,0.5-0.3,0.8-0.6,1.1
		c-4,4.8-7.8,9.8-11.8,14.7c-1.2,1.5-1.5,1.6-3.2,0.7c-6.8-3.6-13.6-7.1-20.4-10.8c-2.5-1.4-5.1-2.6-7.6-3.9
		c-8-4.1-15.9-8.2-24-12.2c-1.5-0.8-3-1.4-4.5-2.1c-0.8-0.4-1.5-0.4-2.4,0c-4.6,2-9.1,4.4-13.6,6.5c-4.9,2.2-9.5,4.9-14.3,7.4
		c-0.2,0.1-0.6,0.2-0.6,0.5s0.4,0.3,0.7,0.4c5.6,2,11.2,4.2,16.9,6.2c0.5,0.2,1.2,0.2,1.3,0.9c0.1,0.7-0.7,0.9-1.1,1.2
		c-10.1,5.8-20.1,11.6-30.2,17.4c-0.1,0-0.2,0.1-0.3,0.1h-0.1c-0.1,0-0.2,0-0.3,0.1L133.2,254.3L133.2,254.3L133.2,254.3z"/>
	<path class="st4" d="M399.2,264.3c-8.2-3-16.3-6-24.5-9c-0.3-0.1-0.6-0.3-0.9-0.5c0.3-0.1,0.7-0.3,1-0.3h3.5c0.2,0,0.9,0.3,0.6-0.5
		c-0.6,0.1-1.1-0.3-1.7-0.6c-8.5-4.8-16.9-9.8-25.3-14.8c-1.3-0.8-2.6-1.5-3.9-2.3c-0.4-0.2-1-0.4-0.9-1c0-0.5,0.6-0.7,1-0.9
		c3.3-1.4,6.7-2.6,10.1-3.9c2.3-0.8,4.5-1.7,6.9-2.4c0.2-0.1,0.7,0,0.7-0.4c0-0.3-0.4-0.4-0.6-0.5c-4.2-2.4-8.6-4.6-13-6.8
		c-4.8-2.4-9.7-4.8-14.6-7.1c-1.2-0.5-2.2-0.5-3.4,0.1c-10.5,5.3-21,10.7-31.5,16.1c-8.3,4.3-16.7,8.7-25,13.1
		c-1.1,0.6-1.4,0.5-2.2-0.5c-4-5-7.9-10.1-11.9-15.2c-0.3-0.4-0.7-0.9-0.7-1.5c0-0.5,0.4-0.9,0.7-1.2c3.8-3.8,7.5-7.8,11.8-10.9
		c2.9-2.1,5.7-4.2,8.8-6.1c1.2-0.7,2.2-1.6,3.4-2.2c0.7-0.4,0.8-0.3,1,0.3l0,0c-0.1,0.1-0.2,0.2-0.2,0.3l0,0
		c-0.2,0.1-0.1,0.3-0.3,0.4l0,0c-0.1,0.1-0.2,0.2-0.2,0.3c-3.6,5.9-6.3,12.1-8.6,18.6c-0.1,0.3-0.1,0.6-0.2,1
		c0.2-0.2,0.5-0.4,0.7-0.6c10-9.9,19.8-20,30.4-29.3c0.7-0.6,1.4-1.2,2.1-1.7c1-0.8,2-1.5,3-2.2c-0.3,1.2-0.6,2.4-1,3.5
		c-1.8,5.1-3.7,10.3-5.6,15.4l0,0c2.8-1.1,5.6-2.1,8.3-3.4c6.9-3.4,13.8-3.7,21.3-1.6c11.2,3.1,22.5,5.6,33.7,8.7
		c0.4,0.1,0.9,0.5,1.1,0.9c8.7,15.9,17.1,32,26.7,47.4C400.7,264.6,399.6,264.2,399.2,264.3L399.2,264.3L399.2,264.3z"/>
	<path class="st4" d="M130.3,112.4c-4.4-1.9-8.7-3.9-13.3-5c-1,0.4-1.8-0.1-2.6-0.3c-1.5-0.4-1.6-0.4-1.8,1.2
		c-0.5,5.3-0.8,10.6-0.5,15.9c0.3,5.2,0.9,10.2,2,15.3c0.3,1.6,0.8,3.2,1.3,4.8c0.3,1.3,0.2,1.5-1.1,1.7c-0.8,0.1-1.2,0.5-1.1,1.4
		c0.1,0.4,0,0.8-0.4,1.1c-0.4,0.2-0.7-0.1-1-0.3c-0.3-0.3-0.8-0.4-1.1-0.7c-4.1-10.9-5-22.1-4.3-33.6c0.4-6,1.1-11.9,1.6-17.9
		c0.1-0.8,0.5-0.8,1-0.7c29.1,4.4,56.3,13.1,78.7,33.3c0.9,0.8,0.9,1.1-0.1,1.8c-1.4,0.9-2.6,2-4,3c-0.5,0.1-0.7-0.3-1-0.6
		c-6-6-12.8-10.6-20.6-13.7c-0.2-0.1-0.4-0.2-0.7-0.3c-0.1-0.1-0.2-0.2-0.4-0.2c0.1,0.1,0.3,0.2,0.4,0.3c3.8,3.2,7.6,6.5,11.1,10.1
		c2,2.1,4,4.3,5.8,6.6c0.2,0.3,0.6,0.6,0.3,0.9c-0.3,0.4-0.7,0.2-1.1,0c-1.5-0.8-2.7-1.9-4.1-2.8c-5.1-3.3-10.2-6.6-15.6-9.4
		c-4.1-2.1-8.3-4-12.5-5.8c-4.6-2-9.3-3.7-14-5.6C131.1,112.6,130.7,112.6,130.3,112.4L130.3,112.4L130.3,112.4z"/>
	<path class="st4" d="M394.1,107.6c-4.1,1.6-8.3,3.2-12.4,4.8c-3.9,1.4-7.8,2.8-11.7,4.4c-8.6,3.7-17.2,7.7-25.2,12.7
		c-3.2,2-6.4,3.9-9.3,6.1c-0.4,0.3-0.8,0.6-1.2,0.8c-0.3,0.1-0.7,0.4-1,0c-0.2-0.3,0-0.6,0.2-0.9c0.5-0.6,0.9-1.1,1.4-1.6
		c3-3.4,6.3-6.6,9.7-9.6c2.1-1.8,4-3.7,6.1-5.5c0.1-0.1,0.2-0.2,0.4-0.3c-0.2,0-0.2,0.1-0.4,0.2c-3.2,1.4-6.4,3-9.5,4.8
		c-4.3,2.5-8.2,5.6-11.6,9.2c-0.3,0.3-0.6,0.9-1.2,0.8c-1.5-1.3-2.9-2.7-4.4-4c-0.7-0.6,0-0.8,0.3-1c12-11.7,26.7-18.7,42.2-24.2
		c11.8-4.2,23.8-7.3,36.3-8.9c0.4-0.1,1-0.4,1.1,0.5c2.3,15.5,3.4,31-1,46.4c-0.5,1.8-1.1,3.5-1.7,5.3c-0.1,0.2-0.2,0.3-0.3,0.5
		c-0.3,0.4-0.8,0.6-1.3,0.4s-0.6-0.6-0.7-1c-0.1-0.6-0.1-1.2-1-1c-1.1,0.2-1.4-0.2-1.2-1.4c0.3-1.3,0.6-2.6,0.9-3.9
		c2-8.4,2.7-17,2.4-25.6c-0.1-2.4-0.3-4.8-0.5-7.2c-0.1-1.6-0.3-1.7-1.9-1.2c-0.9,0.3-1.7,0.7-2.7,0.5h-0.4
		C394.5,107.5,394.3,107.5,394.1,107.6L394.1,107.6z"/>
	<path class="st5" d="M290.8,130.8c-4.1-2.5-8.2-5-12.6-6.8c-0.2-0.1-0.5-0.1-0.8-0.2c0.1,0.2,0.2,0.5,0.4,0.7
		c3.5,4.8,6.5,9.9,9.3,15.1c0.2,0.6-0.2,0.6-0.5,0.6c-0.5,0-1-0.3-1.4-0.5c-5.4-2.7-10.5-5.7-15.8-8.4c-4.1-2.1-8.2-4.2-12.2-6.4
		c-9.6-5.2-19.3-10.1-28.7-15.6c-4-2.4-7.9-4.9-11.7-7.5c-0.4-0.2-1.3-0.5-0.5-1.3c0.4-0.1,0.7,0,1,0.1c6.9,1.9,14,2.6,21,3.5
		c10,1.3,19.9,2.7,29.6,5.5c0.8,0.2,1.5,0.5,2.3,0.7c1.4,0.6,2.9,1.1,4.2,1.7c4.1,1.8,8.1,3.7,12.1,5.7c1.3,0.7,1.4,0.7,1.9-0.7
		c0.3-0.8,0.8-0.8,1.5-0.7l4.4,4.4c0.8,0.4,1.2,1.1,1.8,1.8c1.8,2.1,3.5,4.3,5.1,6.6c0.4,0.6,0.7,1.1,1,1.8c0.1,0.3,0.3,0.7,0,1
		s-0.7,0.1-1-0.1c-0.7-0.4-1.5-0.8-2.2-1.1c-1.6-0.8-3.2-1.5-4.8-2.3h-0.1v0.1h0.1c0.1,0,0.1,0.1,0.2,0.1s0.1,0.1,0.2,0.1l0.1,0.1
		c0.1,0.1,0.2,0.1,0.3,0.2c0.1,0.1,0.2,0.1,0.2,0.2c0.1,0.1,0.1,0.1,0.2,0.2c0.1,0.1,0.1,0.1,0.1,0.1v0.4c-0.3,0.6-0.9,0.7-1.4,0.7
		c-0.7,0.1-1.4,0.3-1.9,0.9h-0.3c0,0-0.1-0.1-0.2-0.1s-0.2-0.1-0.3-0.2l0,0C291.1,130.9,290.9,130.8,290.8,130.8L290.8,130.8
		L290.8,130.8z"/>
	<path class="st6" d="M110.8,147.4L110.8,147.4c2.4,1.6,2-3.2,4.3-1.8c0-0.2,0.1-0.5,0-0.7c-3.8-12.3-4.2-24.9-2.9-37.6
		c0.1-0.8,0.2-1.2,1.2-0.9c1.2,0.4,2.4,0.7,3.6,1.1c-0.5,6.4-0.2,12.7,0.8,19c0.3,1.6,0.5,3.2,0.8,4.8c0,0.3,0.2,0.6,0.3,0.8
		c0.2-0.2,0.4-0.5,0.5-0.7c0.3-0.4,0.5-0.8,0.8-1.3c0.3,0.4,0.7,0.7,0.9,1.2c4.3,8.1,10.5,14.1,19.3,17.2c1.3,0.4,1.2,0.1,1.1-1
		c-0.5-3.8-0.4-7.5,0.2-11.3c0-0.3,0.2-0.5,0.2-0.8c0.1,0.3,0.3,0.5,0.4,0.8c3.2,9.8,8.2,18.5,15.9,25.4c0.8,0.7,0.6,0.8-0.2,1.4
		c-3.6,2.7-5.8,1.1-8.3-1.9c-4.8-5.9-10.3-11.1-18.4-12.2c-0.5-0.1-1,0-1.5,0c0.3,0.3,0.6,0.7,0.9,1.1c1.4,1.8,2.9,3.5,3.2,5.8
		c-1.9,0-3.7,0-5.6-0.1c-1.3,0-2.6-0.1-4-0.1c0.9,1,1.8,2.1,2.8,3.1c4.3,4.2,8.9,8,13.8,11.5c0.8,0.6,0.8,0.8-0.1,1.3
		c-3.3,1.8-7.1,3.1-8.4,7.3c-0.3,0.9-0.8,0.1-1-0.1c-10-7.6-16.1-17.9-20.1-29.5C111,148.6,110.9,148,110.8,147.4L110.8,147.4z"/>
	<path class="st7" d="M395.1,107.4c1.3-0.5,2.7-0.9,4-1.4c0.6-0.2,0.7,0.2,0.8,0.7c1.5,12.9,0.8,25.6-2.7,38.1
		c-0.1,0.4-0.1,0.8-0.1,1.1c0.4-0.1,0.7-0.1,1.1-0.2c0.6-0.2,1.3-0.5,1.2,0.6c-0.3,2.1,0.6,1.9,1.9,1c-3.9,12.4-10.3,23.2-20.7,31.4
		c-0.2,0.2-0.6,0.7-0.8,0.1c-1.5-4.1-5.2-5.4-8.6-7.2c-0.9-0.5-1-0.7-0.1-1.3c5.7-4,10.8-8.6,15.7-13.5c0.3-0.3,0.5-0.8,0.7-1.2
		c-0.4,0-0.8,0-1.3,0.1c-2.5,0.1-5,0.2-7.5,0.4c-1,0.1-1-0.4-0.8-1.1c0.8-1.9,1.9-3.6,3.2-5.2c0.2-0.3,0.5-0.6,0.7-0.9h-1.2
		c-5.5,1-10,3.7-13.9,7.6c-1.8,1.8-3.8,3.6-5.2,5.7c-2,2.8-3.9,3.3-6.8,1.3c-1.3-0.9-1.7-1.1-0.4-2.3c7.3-7,12.5-15.3,15.5-25
		c0.1-0.2,0.2-0.4,0.3-0.6c0.1,0.2,0.3,0.4,0.3,0.7c0.4,3.8,0.4,7.6,0,11.4c-0.1,0.9,0,1.2,1,0.8c8.7-3,14.9-8.8,19.2-16.8
		c0.8-1.5,1.3-1.9,2.1-0.1c0.1,0.2,0.4,0.3,0.6,0.5c0.1-0.2,0.2-0.3,0.2-0.5C395.3,123.5,396.2,115.5,395.1,107.4L395.1,107.4
		L395.1,107.4z"/>
	<path class="st8" d="M288.6,205.7c-0.2-0.6-0.5-0.2-0.7,0c-9.1,5.7-17.7,12-24.8,20.1c-0.7,0-1-0.5-1.3-0.9
		c-1.4-1.7-2.8-3.4-4.3-5.1c-1.2-1.4-1.6-1.5-2.8,0c-1.5,1.8-3,3.5-4.4,5.2c-0.3,0.4-0.5,0.9-1.2,0.9c-2.9-2.9-5.6-5.9-8.7-8.7
		c-4.8-4.3-9.9-8.1-15.2-11.7c-0.6-0.4-1.2-1.1-1.9-0.2c-0.8-1.2-1.5-2.4-2.3-3.5c1.2-0.1,2.5-0.4,3.7-0.4c3.7-0.3,7.4-0.5,11.2-0.8
		c1-0.1,1.4,0.2,1.8,1.1c2.2,5.1,4.4,10.2,6.6,15.3c0.5,1.1,0.8,1,1.3,0.1c3.2-4.9,6.3-9.9,9.5-14.8c0.9-1.4,1.4-1.6,2.4,0
		c2.9,5,6,10,9,15l0.6,0.6c0.1-0.2,0.3-0.5,0.4-0.7c2.4-5.3,4.9-10.6,7.3-15.9c0.3-0.7,0.8-0.9,1.5-0.8c4.8,0.4,9.6,0.8,14.3,1.1
		c0.6,0,1,0.1,0.4,0.8C290.2,203.5,289.4,204.6,288.6,205.7L288.6,205.7L288.6,205.7z"/>
	<path class="st9" d="M293.9,128.4c-0.1-0.1-0.1-0.1-0.2-0.1c-0.1-0.1-0.2-0.1-0.3-0.2l0,0c-0.1-0.2-0.4-0.1-0.4-0.3
		c2.9,0.3,5.2,2.1,7.8,3.2c0.4,0.2,0.8,0.3,1.2,0.4c-0.2-0.4-0.2-0.8-0.5-1.2c-2.4-3.3-4.9-6.5-7.3-9.8c2.7,1.9,5.4,3.7,8.2,5.6
		c0.2,0.2,0.5,0.3,0.8,0.4c-0.1-0.3-0.1-0.6-0.2-0.9c-2-3.9-3.9-7.8-5.9-11.7c-0.1-0.2-0.2-0.5-0.2-0.8c0.3,0.1,0.6,0.1,0.8,0.2
		c6.1,3.7,10.8,8.8,15.6,13.9c7.9,8.4,15,17.5,21.9,26.7c0.2,0.2,0.3,0.5,0.4,0.7c-0.2,0-0.4,0.1-0.6,0c-8.2-2.9-16.7-4.5-25.2-6.2
		c-3-0.6-4.4-3.4-6.6-5.2c-3.7-3.1-7.3-6.4-10.9-9.7c-0.5-0.4-2-1.2,0-1.9c0.1-0.1,0.1-0.2,0.3-0.2c1.3,0.3,2.4,1.2,3.6,1.9
		c2.4,1.3,4.9,2.5,7.4,3.5c1.8,0.7,3.5,1.7,5.2,2.6c0.1,0,0.2,0.2,0.3,0.1c0.1,0,0.1-0.1,0,0c-0.1,0-0.1,0-0.2-0.1
		c-4-2.3-7.8-5-11.2-8.1c-0.8-0.7-1.8-1.2-2.3-2.3l0,0c-0.1,0-0.2-0.1-0.3-0.2l0,0c-0.1-0.1-0.2-0.1-0.2-0.2l0,0
		c-0.1-0.2-0.3-0.1-0.4-0.3l0,0C294.2,128.3,294,128.4,293.9,128.4L293.9,128.4L293.9,128.4z"/>
	<path class="st10" d="M245.7,144.3c-19,0.5-37.7,2.8-56.1,7.6c-0.3,0.1-0.5,0-0.8,0.1l0,0c4.4-3.2,8.9-6.5,13.3-9.8
		c-0.2-1.1,0.3-1.6,1.2-1.9c2.7-1.1,5.4-2.4,8-3.6c0.1-0.1,0.3-0.1,0.4-0.2c-0.2-0.1-0.3,0-0.5,0c-0.9,0.1-1.8,0.3-2.7,0.4
		c-0.4,0.1-0.8,0.2-1.1-0.1c-0.4-0.5,0.4-0.5,0.4-0.8v-0.2c0.3-0.3,0.7-0.5,1.1-0.6c5.2-1.8,10.4-3.3,15.7-4.6
		c0.9-0.2,1.8-0.4,2.7-0.2c5.6,3.1,11.2,6.2,16.9,9.3c0,0.6-0.5,0.5-0.9,0.5c-5.3-0.7-10.6-0.9-15.9-0.8c-0.1,0-0.2,0-0.3-0.1
		c0,0.1,0.2,0.1,0.3,0.1c5.9,0.3,11.5,2,17.1,4C245,143.4,245.7,143.5,245.7,144.3L245.7,144.3z"/>
	<path class="st11" d="M363.4,179.1c-20-8.4-40.6-14.4-62.1-17.6c-32.7-4.8-65.3-4.4-97.8,1.3c-18.8,3.3-36.8,9.3-54.5,16.3
		c-0.6,0.2-1.2,0.5-1.9,0.8c-0.1-1.5,0.9-2,2.1-2.5c23.7-10.5,48.5-16.9,74.2-19.6c27.2-2.8,54.4-2.4,81.5,2.1
		c20.1,3.4,39.6,8.9,58.2,17.6c0.8,0.4,1.5,0.7,1.6,1.7C364.3,180.3,363.8,179.1,363.4,179.1L363.4,179.1z"/>
	<path class="st12" d="M215.8,100.5c6.5,4.7,13.3,8.9,20.5,12.7c16.2,8.7,32.5,17.3,48.8,25.9c0.6,0.3,1.2,1.1,2,0.4
		c1.2,2,2.5,4,3.7,6.1c0.1,0.1,0.1,0.3,0.2,0.4h-0.8c-8.5-0.2-15.5-4.4-22.6-8.4c-13.3-7.3-26.5-14.6-38.7-23.7
		c-5.4-4-10.4-8.4-14.8-13.5c-0.3-0.4-0.5-0.8-0.8-1.2C214.3,99,215.1,99.6,215.8,100.5L215.8,100.5L215.8,100.5z"/>
	<path class="st13" d="M328.4,133.3c5.6-6.4,12.6-10.9,20.3-14.3c0.2-0.1,0.4-0.2,0.7-0.3c1-0.4,1.9-0.8,2.8-1.2
		c-0.8,0.8-1.5,1.6-2.3,2.4c-5.6,5-11.3,9.9-16.1,15.7c-0.1,0.2-0.2,0.4-0.3,0.6c0.4-0.2,0.8-0.3,1.2-0.5
		c7.9-5.7,16.3-10.6,25.1-14.7c6.7-3.2,13.5-6.2,20.7-8.4c0.4-0.1,0.8-0.1,1.3-0.2c-9.5,5.2-18.7,10.8-26.4,18.5
		c-4.9,4.9-8.7,10.6-11,17.2c-0.1,0.4-0.1,1.1-0.8,0.3C338.8,143.1,333.7,138.1,328.4,133.3L328.4,133.3z"/>
	<path class="st13" d="M130.3,112.4c4.9,0.8,9.3,3.1,13.8,4.9c12,4.8,23.2,11.1,33.7,18.7c0.3,0.2,0.6,0.2,0.9,0.3
		c-0.2-0.2-0.3-0.4-0.4-0.7c-5.3-6.5-11.5-12.1-17.9-17.5c-0.1-0.1-0.2-0.3-0.3-0.4h0.4c8.9,3.6,16.9,8.4,23.4,15.6
		c-5.5,4.6-10.7,9.5-15.6,14.8c-0.3,0.3-0.5,0.5-0.7-0.1c-5.7-15.4-18-24.4-31.4-32.3C134.2,114.6,132.2,113.5,130.3,112.4
		L130.3,112.4z"/>
	<path class="st14" d="M256.5,373.6c7.3-6.9,16.4-10.9,25.1-15.5c11.7-6.2,23.6-11.7,35.8-16.8c0.2-0.1,0.5-0.1,0.8-0.2
		c-0.2,0.2-0.4,0.4-0.6,0.5c-6,5.4-13.3,8.6-20.6,11.8c-4.2,1.9-7,5.7-10.4,8.6c-7.7,6.4-15.4,12.9-23.5,18.9
		c-2.2,1.7-4.4,3.3-6.6,5c-0.5-0.5-0.5-1.1-0.5-1.7v-9C256,374.7,256,374.1,256.5,373.6L256.5,373.6L256.5,373.6z"/>
	<path class="st15" d="M291.5,186.4h0.9c0.2,0.1,0.6,0.1,0.6,0.5s-0.4,0.6-0.8,0.6c-1.5,0.1-2.9,0.9-4.4,0.9c-0.2,0-0.4,0-0.4,0.1
		s0.2,0.1,0.4,0.1c0.7,0.1,1.3,0.3,1.8,0.8c0.6,0.4,1.2,0.2,1.8,0.2c0.8,0,1.8-0.1,2.1,1c-15.8-1.5-31.8-1.5-47.7-1.4
		c-14.4,0.1-28.7,1.4-42.9,3c-2.6,0.3-4.3-0.5-5.9-2.3c4.4-0.7,8.8-1.6,13.3-2.1c15.2-1.9,30.4-3.1,45.7-2.8
		c11.3,0.2,22.7,0.1,33.9,1.1C290.5,186.5,291,186.1,291.5,186.4L291.5,186.4L291.5,186.4z"/>
	<path class="st16" d="M256.5,373.6v12.3c-0.3,0.6-0.7,0.3-1,0c-9.2-7.4-18.3-14.8-27.5-22.1c-0.1-0.1-0.2-0.1-0.2-0.2l0,0
		c-0.1-0.1-0.2-0.2-0.3-0.2c-0.2-0.1-0.3-0.2-0.4-0.3c-0.1,0-0.2-0.1-0.2-0.2l0,0c-0.1,0-0.2-0.1-0.2-0.2l0,0
		c-0.1-0.1-0.2-0.1-0.2-0.2l0,0l-0.2-0.2l0,0c-0.1-0.1-0.2-0.2-0.3-0.2s-0.1,0-0.2-0.1c-0.1,0-0.2-0.1-0.2-0.2l0,0
		c-0.1-0.1-0.2-0.1-0.2-0.2l0,0l-0.2-0.2l0,0c-0.1-0.1-0.1-0.2-0.2-0.2l0,0c-0.1-0.1-0.1-0.2-0.2-0.2l0,0c-0.2-0.7,0.2-0.7,0.7-0.8
		c0.5-0.1,1,0.2,1.4,0.5c1.1,0.8,2.3,1.5,3.4,2.2c0.1,0.1,0.3,0.2,0.4,0.1c0.2-0.1,0-0.3,0-0.4c-0.3-0.7-0.3-1.5-0.3-2.2
		s0.3-0.9,1-0.8s1.3,0.5,1.9,0.7c2.2,0.9,4.5,1.9,6.5,3.2c0.8,0.5,1.5,1.1,2.2,1.8c0.1,0.1,0.2,0.2,0.2,0.3c0-0.1-0.1-0.1-0.2-0.2
		c-0.4-0.7-0.9-1.3-1.3-2c-0.4-0.5-0.3-0.6,0.3-0.7c2.9,1.6,5.8,3.2,8.3,5.3c0.2,0.1,0.5,0.3,0.5,0.2c0.6-1,0.9,0.1,1,0.3
		C252.5,369.9,254.5,371.8,256.5,373.6L256.5,373.6L256.5,373.6z"/>
	<path class="st17" d="M142.2,195.7c-0.5,1.8,0.5,1.6,1.7,1.3c11.5-3.7,23.3-6.4,35.2-8.5c3.2-0.6,6.5-0.9,9.8-1.3
		c-0.2,1.7-0.4,3.4-0.5,5.1c-0.1,0.8-0.6,0.8-1.1,0.9c-15.8,2.1-31.2,5.6-46.4,10c-0.2,0.1-0.5,0.1-0.8,0.1v-0.8
		C140.7,200.2,141.5,197.9,142.2,195.7L142.2,195.7z"/>
	<path class="st18" d="M322.9,185.5c1.1,3.4,4.3,2.1,6.5,2.5c8.8,1.6,17.7,3.2,26.4,5.6c4.5,1.2,8.8,2.8,13.2,4.1
		c1.7,0.5,0.1-1.5,1-1.7c0.7,2.2,1.4,4.4,2,6.6c0.3,1.3-0.8,0.5-1.1,0.5c-9.5-2.8-19.2-5.3-28.9-7.2c-5.7-1.1-11.4-2-17.1-2.9
		c-0.9-0.2-1.2-0.4-1.3-1.3C323.5,189.5,323.2,187.5,322.9,185.5L322.9,185.5L322.9,185.5z"/>
	<path class="st19" d="M215.8,100.5c-0.9-0.4-1.7-0.8-2.6-1.2c-0.1-0.2-0.3-0.4-0.4-0.7c0.2,0,0.4-0.1,0.5-0.1
		c19.7,2.8,39.8,2.9,59.3,7.6c0.1,0,0.2,0.1,0.3,0.1c0.5,1.8-0.9,3.9-2.9,4.3c-15.7-5.1-32.2-5.7-48.3-8.6
		C219.8,101.5,217.8,100.9,215.8,100.5L215.8,100.5L215.8,100.5z"/>
	<path class="st20" d="M240.6,362.4c0.6,1.1,1.1,2.1,1.7,3.2c0.2,0.3,0.2,0.6,0.3,0.9c-0.2-0.2-0.5-0.3-0.7-0.6
		c-2.9-3.4-7.1-4.5-11-6.2c-0.2-0.1-0.4,0-0.6,0c0.1,0.9,0.1,1.7,0.2,2.5c0.1,0.5,0.2,1,0.4,1.4c-0.5-0.2-0.9-0.4-1.4-0.7
		c-1.2-0.8-2.4-1.6-3.5-2.4c-0.6-0.4-1.2-0.7-1.7,0.2c-5.9-6.8-14.5-9.3-22-13.5c-2.8-1.6-5.2-3.7-7.9-5.5c-0.2-0.1-0.3-0.2-0.4-0.4
		c0.2,0,0.4,0,0.5,0.1c10.2,4.6,20.5,9.2,30.7,13.8C230.4,357.6,235.5,360,240.6,362.4L240.6,362.4L240.6,362.4z"/>
	<path class="st4" d="M391.3,282.7c-4.1-2.3-8.3-4.5-12.4-6.9c-2.7-1.6-5.2-3.3-7.8-5c-0.2-0.1-0.4-0.4-0.6-0.6
		c0.3-0.1,0.5-0.2,0.8-0.2c3.4-0.1,6.8-0.6,10.2,0c4.3,3.6,8.5,7.2,12.8,10.8c0.4,0.3,0.7,0.8,1,1.1c-0.5,0.1-0.9,0.3-1.4,0.4
		C393,282.4,392.1,282.5,391.3,282.7L391.3,282.7z"/>
	<path class="st19" d="M131,270.2c2.6-1.4,5.2,0.1,7.8-0.2c0.9-0.1,1.8,0.1,2.7,0.1c-0.6,0.6-1.2,1.2-1.9,1.7
		c-5.8,4-11.8,7.8-18.3,10.8c-0.1,0.1-0.3,0-0.5,0.1c-1.3-0.2-2.6-0.4-3.9-0.7c0.9-0.9,1.7-1.9,2.7-2.7
		C123.4,276.2,127.2,273.2,131,270.2L131,270.2L131,270.2z"/>
	<path class="st21" d="M227.4,130.2c-6.6,1.4-13.2,3.3-19.5,5.7c0,0.2-0.2,0.2-0.3,0.2c-0.2,0.1-0.3,0.2-0.5,0.2
		c-0.1,0-0.2,0.1-0.3,0.1c-0.2,0.1-0.4,0.1-0.5,0.2c-0.1,0-0.2,0.1-0.3,0.1c-0.2,0-0.4,0.1-0.6,0c-0.1-0.1-0.2-0.1-0.2-0.2
		c-1-1.2-0.6-2.6-0.8-4c2.4-0.9,4.8-1.9,7.1-2.8c0.6-0.2,1.1-0.5,1.7-0.8c-0.5-0.1-1.1-0.2-1.6-0.4c1.7-0.7,3.5-1.3,5.2-1.8
		c1.3-0.4,2.6-0.7,3.9-1.2L227.4,130.2L227.4,130.2L227.4,130.2z"/>
	<path class="st22" d="M293.6,190.7c-2.1-0.6-4.3-1.1-6.4-1.7c-0.4-0.1-0.7-0.3-1-0.4c0.4-0.2,0.7-0.4,1.1-0.5
		c1.6-0.3,3.3-0.6,4.9-0.9c0.7-0.1,0.7-0.3,0.2-0.8c0.2-0.2,0.3-0.3,0.5-0.5h0.2c0.1,0,0.3,0,0.4,0.1c2.2,0.7,4.4,0.6,6.7,0.9
		c1.6,0.3,3.2,0.2,4.8,0.6c0.2,0.1,0.4,0.1,0.5,0.2c0.1,0.1,0.2,0.2,0.3,0.3c1.3,0.2,2.7,0.4,4,0.8c3.1,1,5.9,0.4,8.4-1.7
		c-4.4,6.2-10.5,5.7-16.9,4.5C298.8,191.1,296.2,191,293.6,190.7L293.6,190.7z"/>
	<path class="st23" d="M220.6,125.6c-0.1,0.2-0.1,0.5-0.2,0.5c-3,0.8-5.9,1.6-8.9,2.4c-5.7,0-11.3,0.1-17,0.1h-0.6
		c0.3-0.2,0.6-0.5,0.9-0.6c6.6-2.5,13.4-3.9,20.4-5C217.8,122.7,218.9,124.6,220.6,125.6L220.6,125.6z"/>
	<path class="st24" d="M289.6,116.1c-0.3,0.3-1.2-0.1-1.2,0.7c0,2.5-1.3,1.6-2.5,1c-3.9-1.9-7.9-3.8-11.8-5.7c0.3-1.2,1.1-2,2.3-2.5
		c1.2-0.5,2.3-1.3,2.5-2.8c3.7,2.7,7,5.7,10.2,8.9c0.1,0.1,0.1,0.2,0.2,0.2l0,0C289.4,116,289.5,116.1,289.6,116.1L289.6,116.1z"/>
	<path class="st25" d="M204.3,132.6l1,4.1c-0.3,0.7-1,0.7-1.6,0.9c-4.2,1.4-8.3,3.2-12.3,5.1c-2.2,1.1-4.5,2.2-6.7,3.4
		c-0.8,0.5-1.6,0.9-2.4,1.3c-0.3,0.2-0.9,0.6-1.1-0.2l0,0c0.1-0.1,0.2-0.1,0.2-0.2l0,0c0.1-0.1,0.2-0.2,0.2-0.2
		c6.3-5.9,13.5-10.2,21.4-13.6c0.3-0.1,0.7-0.2,1-0.4C204.1,132.5,204.2,132.5,204.3,132.6L204.3,132.6z"/>
	<path class="st26" d="M181.2,147.1c1.4,0.2,2.2-1.1,3.4-1.4c0.5,0,1,0.2,1.4,0.5c1.3,0.8,1.5,1.7,0.7,3.1
		c-4.5,4.1-9.7,6.7-15.6,7.9h-0.4c0.1-0.1,0.1-0.3,0.2-0.4C174.4,153.6,177.8,150.4,181.2,147.1L181.2,147.1z"/>
	<path class="st19" d="M133.1,291.6c2.8-1.6,5.9-0.1,8.8-1c0.4-0.1,0.1,0.4-0.1,0.5c-3.9,3.2-7.8,6.5-11.8,9.5
		c-0.7,0.5-2.1,0.1-3.1,0.2v-1.1C129,297.1,131,294.3,133.1,291.6L133.1,291.6L133.1,291.6z"/>
	<path class="st27" d="M386,301c-5,0.7-7.4-3.5-10.8-5.8c-1.3-0.9-2.5-2.2-3.7-3.4c-0.3-0.3-0.6-0.6-0.9-0.9
		c0.4-0.1,0.9-0.2,1.3-0.2c2.5,0.3,5,0.6,7.6,0.9C381.7,294.6,384.2,297.6,386,301z"/>
	<path class="st28" d="M191.2,142.4c4.5-2.4,9.2-4.1,14-5.8h0.2c0.2-0.1,0.4-0.1,0.5-0.2c0.1,0,0.2,0,0.2-0.1
		c0.2-0.1,0.3-0.1,0.5-0.2c0.1,0,0.2,0,0.2-0.1c0.1-0.1,0.3-0.1,0.5-0.2c0.2,0,0.3-0.1,0.4-0.1c0,1,0.8,0.5,1.2,0.4
		c1.3-0.1,2.6-0.7,3.9-0.3c-1.1,0.6-2.1,1.2-3.2,1.7c-2.1,1-4.1,2-6.3,2.7c-1,0.3-0.7,1.2-1.3,1.6c-2.6,0-4.7,1.6-7.1,2.4
		c-0.1,0-0.2,0.1-0.3,0.2c0,0-0.1,0.1-0.2,0.1c-0.1,0-0.2,0.1-0.3,0.2c0,0-0.1,0.1-0.2,0.1c-0.1,0-0.2,0.1-0.3,0.2l0,0
		c-0.1,0.2-0.3,0.1-0.5,0.2l0,0c-0.1,0.1-0.1,0.1-0.2,0.2c-0.1,0.1-0.1,0.1-0.2,0.1c-0.1,0.1-0.2,0.1-0.3,0.2
		c-0.1,0.1-0.1,0.1-0.2,0.1c-0.3-0.4-0.4-0.5,0-0.8c0.8-0.7,0.6-1.2-0.2-1.7C191.9,143.2,191.5,142.9,191.2,142.4L191.2,142.4
		L191.2,142.4z"/>
	<path class="st29" d="M245.7,144.3c-5.8-2.5-11.9-3.9-18.2-4.8c-0.3-0.1-0.7-0.2-1-0.3c0.3-0.1,0.6-0.2,0.9-0.2
		c5.4-0.3,10.8-0.2,16.1,0.7c0.2,0,0.4-0.1,0.7-0.1c2.9,1.5,5.8,2.9,8.7,4.4c0.2,0.1,0.3,0.2,0.4,0.3c-0.2,0-0.3,0.1-0.5,0.1
		C250.5,144.3,248.1,144.3,245.7,144.3L245.7,144.3L245.7,144.3z"/>
	<path class="st30" d="M278.9,106.8c0.5,0.7,0.2,1.1-0.3,1.7c-1.4,1.4-3.5,1.8-4.5,3.6c-1.4-0.6-2.7-1.1-4.1-1.6
		c1.7-1,2.6-2.4,2.9-4.3c0.6,0,0.7-0.1,0.3-0.7c-1.2-1.5-2.3-3.1-3.4-4.6c-0.1-0.2-0.2-0.4-0.3-0.6c0.2,0.1,0.5,0.1,0.6,0.2
		C273.1,102.6,276,104.7,278.9,106.8z"/>
	<path class="st31" d="M156.6,303.3c0.8,0.1,1.7,0.2,2.5,0.2c-0.7,0.6-1.3,1.2-2.1,1.7c-2.8,1.8-5.7,3.6-8.5,5.4
		c-0.3,0.2-0.5,0.4-0.7,0.6c0.2,0.1,0.5,0.3,0.8,0.4c-1.3,0.1-2.7,0.3-4,0.4c0.9-1,1.8-2.1,2.8-3C150,306.4,153.1,304.6,156.6,303.3
		L156.6,303.3L156.6,303.3z"/>
	<path class="st32" d="M364.6,311.7c0.9-0.5,0.3-0.7-0.2-1c-2.8-1.6-5.7-3.3-8.5-5c-0.8-0.5-1.4-1.3-2.1-2c0.9,0,1.8-0.1,2.6-0.1
		c4.2,1.5,7.5,4.1,10.5,7.3c0.3,0.4,0.6,0.8,1,1.1c-0.5,0-1-0.1-1.5-0.1C365.8,311.9,365.2,311.8,364.6,311.7L364.6,311.7z"/>
	<path class="st33" d="M191.2,142.4c1.6,0.8,3.2,1.6,1.2,3.6c-1.9,1.1-3.8,2.2-5.7,3.4c0.7-2.1-0.9-2.8-2.2-3.6
		C186.8,144.6,189,143.5,191.2,142.4z"/>
	<path class="st34" d="M363.4,179.1c0.4-0.2,0.9,0.8,1.3,0c0.2,0.8,0.5,1.7,0.7,2.5c0.3,1.1,0.7,2.2,1,3.2c-1.1-0.3-2.3-0.6-3.4-0.9
		c-12.9-4-25.8-8.1-38.7-12.1c4.1,0.2,7.8,1.8,11.7,2.9c5.5,1.6,11,3.4,16.4,5.1c4,1.2,7.9,2.6,11.8,3.8c0.3,0.1,0.7,0.1,1,0.2
		c0-0.3,0-0.7-0.1-0.9C364.6,181.5,364,180.3,363.4,179.1L363.4,179.1L363.4,179.1z"/>
	<path class="st35" d="M146,183.3c1.8,1.6,3.3,0,4.8-0.5c5.8-1.7,11.5-3.7,17.3-5.5c3.4-1.1,6.9-2.1,10.4-3.1c0.3-0.1,0.6,0,0.9,0.1
		c-11,3.5-22.1,7.1-33.1,10.6c-0.2,0.1-0.5,0-0.7,0C145.7,184.4,145.8,183.9,146,183.3L146,183.3L146,183.3z"/>
	<path class="st18" d="M369.8,195c-1.1,0.4-1.1-0.8-1.7-1.1C368.9,194,369.8,193.9,369.8,195z"/>
	<path class="st22" d="M319.9,185.7c0.7-0.6,1.4-1.1,2.1-1.7C321.3,184.6,320.6,185.2,319.9,185.7z"/>
	<path class="st22" d="M318.7,186.7c0.1-0.5,0.4-0.8,0.9-0.7C319.3,186.2,319,186.4,318.7,186.7z"/>
	<path class="st21" d="M204.1,132.6c-0.3,0.1-0.7,0.3-1,0.4C203.4,132.9,203.8,132.8,204.1,132.6z"/>
	<path class="st18" d="M370.1,195.9c-0.1-0.3-0.2-0.6-0.2-0.9C369.9,195.3,370,195.6,370.1,195.9z"/>
	<path class="st1" d="M113.1,264.3c0.2,0.1,0.5,0.1,0.8,0.2C113.6,264.5,113.3,264.4,113.1,264.3z"/>
	<path class="st15" d="M196.7,189.8c0.2,0.1,0.3,0.2,0.5,0.3C197,189.9,196.9,189.8,196.7,189.8z"/>
	<path class="st7" d="M394.1,107.6c0.2-0.1,0.3-0.1,0.5-0.2C394.5,107.5,394.3,107.5,394.1,107.6z"/>
	<path class="st33" d="M193.4,145.5c0.2-0.1,0.3-0.2,0.5-0.2C193.7,145.3,193.5,145.4,193.4,145.5z"/>
	<path class="st8" d="M288.1,206.4c0.1-0.1,0.2-0.3,0.3-0.4C288.3,206.1,288.2,206.3,288.1,206.4z"/>
	<path class="st9" d="M292.1,131.7c-0.2-0.1-0.3-0.2-0.5-0.3l0.1-0.1C292,131.3,292.3,131.3,292.1,131.7L292.1,131.7z"/>
	<path class="st8" d="M287.9,206.7c0.1-0.1,0.1-0.2,0.2-0.3C288.1,206.5,288,206.6,287.9,206.7z"/>
	<path class="st8" d="M288.4,206c0.1-0.1,0.1-0.2,0.2-0.3C288.5,205.8,288.5,205.9,288.4,206z"/>
	<path class="st5" d="M289.6,116.1c-0.1-0.1-0.2-0.1-0.2-0.2C289.4,116,289.5,116.1,289.6,116.1z"/>
	<path class="st5" d="M289.4,115.9c-0.1-0.1-0.2-0.1-0.2-0.2C289.2,115.8,289.3,115.8,289.4,115.9z"/>
	<path class="st15" d="M196.4,189.5c0.1,0.1,0.2,0.1,0.3,0.2C196.6,189.7,196.5,189.6,196.4,189.5z"/>
	<path class="st22" d="M318.4,186.9c0.1-0.1,0.2-0.2,0.2-0.2C318.6,186.8,318.5,186.8,318.4,186.9z"/>
	<path class="st22" d="M319.6,186c0.1-0.1,0.2-0.1,0.3-0.2C319.8,185.8,319.7,185.9,319.6,186z"/>
	<path class="st9" d="M290.8,130.8c0.1,0.1,0.2,0.1,0.2,0.2C290.9,130.9,290.8,130.8,290.8,130.8z"/>
	<path class="st9" d="M291,131c0.1,0.1,0.2,0.1,0.3,0.2C291.2,131.1,291.1,131,291,131z"/>
	<path class="st9" d="M291.5,131.2h0.2l0.1,0.1v0.1l-0.1,0.1C291.6,131.4,291.5,131.3,291.5,131.2L291.5,131.2z"/>
	<path class="st26" d="M181.5,146.9c-0.1,0.1-0.2,0.1-0.2,0.2C181.3,147,181.4,147,181.5,146.9z"/>
	<path class="st26" d="M181.7,146.6c-0.1,0.1-0.1,0.1-0.2,0.2C181.4,146.9,181.6,146.7,181.7,146.6z"/>
	<path class="st33" d="M192.7,145.9c0.1-0.1,0.2-0.1,0.3-0.2C192.9,145.8,192.8,145.8,192.7,145.9z"/>
	<path class="st33" d="M193.1,145.6c0.1-0.1,0.2-0.1,0.2-0.2C193.3,145.5,193.2,145.6,193.1,145.6z"/>
	<path class="st33" d="M193.9,145.2c0.1-0.1,0.2-0.1,0.3-0.2C194.1,145.1,194,145.2,193.9,145.2z"/>
	<path class="st33" d="M194.3,145c0.1-0.1,0.2-0.1,0.3-0.2C194.5,144.8,194.4,144.9,194.3,145z"/>
	<path class="st33" d="M194.8,144.7c0.1-0.1,0.2-0.1,0.3-0.2C195,144.6,194.9,144.7,194.8,144.7z"/>
	<path class="st20" d="M224.3,360.7l0.2,0.2C224.5,360.9,224.4,360.8,224.3,360.7z"/>
	<path class="st20" d="M224.6,361l0.2,0.2C224.7,361.1,224.6,361.1,224.6,361z"/>
	<path class="st20" d="M224.8,361.2c0.1,0.1,0.2,0.1,0.2,0.2C225,361.4,224.9,361.3,224.8,361.2z"/>
	<path class="st20" d="M225.1,361.4c0.1,0.1,0.2,0.1,0.2,0.2C225.2,361.6,225.1,361.5,225.1,361.4z"/>
	<path class="st20" d="M225.3,361.7l0.2,0.2C225.5,361.8,225.4,361.7,225.3,361.7z"/>
	<path class="st20" d="M225.7,361.9c0.1,0.1,0.2,0.1,0.3,0.2C225.9,362.1,225.8,362,225.7,361.9z"/>
	<path class="st20" d="M226,362.2c0.1,0.1,0.2,0.1,0.2,0.2C226.2,362.3,226.1,362.2,226,362.2z"/>
	<path class="st20" d="M226.3,362.4c0.1,0.1,0.2,0.1,0.2,0.2C226.4,362.5,226.3,362.5,226.3,362.4z"/>
	<path class="st20" d="M226.5,362.6c0.1,0.1,0.2,0.1,0.2,0.2C226.7,362.8,226.6,362.7,226.5,362.6z"/>
	<path class="st20" d="M226.8,362.9l0.2,0.2L226.8,362.9z"/>
	<path class="st20" d="M227.4,363.4c0.1,0.1,0.2,0.1,0.3,0.2C227.6,363.5,227.5,363.4,227.4,363.4z"/>
	<path class="st20" d="M227.7,363.6c0.1,0.1,0.2,0.1,0.2,0.2L227.7,363.6z"/>
	<path class="st22" d="M318.2,187.1c0.1-0.1,0.2-0.1,0.2-0.2C318.3,187,318.2,187.1,318.2,187.1z"/>
	<path d="M249.1,226c2-2.4,4-4.7,6-7.1c0.8-0.9,1.4-0.9,2.2,0c1.9,2.3,3.9,4.6,5.8,6.9c4.4,5.6,8.8,11.2,13.2,16.9
		c0.5,0.7,0.9,0.1,1.3-0.1c18.7-9.6,37.3-19.2,55.9-29c2.4-1.2,4-0.6,5.9,0.4c9.1,4.6,18.1,9.1,27.2,13.7c0.2,0.1,0.3,0.2,0.4,0.4
		l-0.6,0.3c-6.1,2.2-12.1,4.4-18.2,6.6c-0.3,0.1-0.6,0.3-0.8,0.5c0.2,0.2,0.4,0.4,0.6,0.5c10.3,6.1,20.7,12.1,31,18.1
		c-0.4,0.1-0.9,0.3-1.3,0.3h-19.6c-0.3,0-0.7,0.1-1,0.2c0.2,0.3,0.4,0.6,0.7,0.8c3.9,3.6,7.9,7.2,11.8,10.9c0.2,0.2,0.3,0.4,0.5,0.6
		c-0.3,0-0.5,0.1-0.8,0.1c-6.5,0.2-13,0.4-19.5,0.5c-0.3,0-0.7,0.1-1,0.1c0.2,0.3,0.4,0.6,0.6,0.9c4.5,4.6,8.9,9.1,13.4,13.7
		c0.2,0.2,0.3,0.4,0.4,0.6c-0.3,0-0.5,0.1-0.8,0.1c-4-0.2-7.9-0.4-11.9-0.5c-0.3,0-0.6,0.1-0.8,0.2c0.1,0.2,0.2,0.5,0.4,0.7
		c3.3,4.1,6.6,8.1,9.9,12.2c0.2,0.2,0.3,0.4,0.4,0.7c-0.3,0-0.5,0.1-0.8,0.1c-10.8-0.2-21.5-0.5-32.3-0.7c-0.3,0-0.6,0.1-0.9,0.1
		c0.1,0.3,0.2,0.7,0.3,1c2.8,4.2,5.7,8.3,8.5,12.5c0.2,0.3,0.3,0.6,0.5,0.9c-0.3,0-0.7,0-1-0.1c-1.9-0.3-3.8-0.7-5.7-1
		c-0.5,0.3-1.1,0.1-1.6,0c-5.7-1.1-11-3.1-16.1-5.6c-10.9-5.4-21.2-12-30.9-19.4c-7.6-5.7-15.2-11.5-22.6-17.5
		c-1.6-1.3-1.5-1.2-3.1,0c-10.3,8.3-20.6,16.7-31.6,24c-7,4.7-14.2,9.2-21.8,12.8c-5.2,2.5-10.7,4.4-16.4,5.6
		c-0.4,0.1-0.9,0.1-1.3,0c-2,0.4-4,0.8-6.1,1.1c-0.3,0.1-0.5,0.1-0.8,0.1c0.1-0.3,0.2-0.6,0.3-0.8c2.8-4.2,5.5-8.3,8.3-12.5
		c0.2-0.3,0.3-0.7,0.5-1c-0.4,0-0.8-0.1-1.1-0.1c-10.3,0.2-20.5,0.5-30.8,0.7c-0.3,0-0.7-0.1-1-0.1c0.1-0.3,0.2-0.7,0.4-0.9
		c3.1-4,6.2-8,9.3-11.9c0.2-0.3,0.3-0.6,0.5-0.9c-0.3,0-0.7-0.1-1-0.1c-4,0.2-7.9,0.5-11.9,0.8c-0.2,0-0.4,0-0.5-0.1
		c0.2-0.3,0.3-0.6,0.5-0.9c4.5-4.6,8.9-9.1,13.4-13.7c0.2-0.2,0.4-0.5,0.6-0.8c-0.3-0.1-0.7-0.2-1-0.2c-6.5-0.2-13-0.3-19.5-0.5
		c-0.3,0-0.6-0.1-0.9-0.1c0.2-0.3,0.3-0.6,0.6-0.8c3.8-3.5,7.7-7,11.5-10.5c0.3-0.3,0.6-0.6,0.8-1c-0.4-0.1-0.8-0.2-1.2-0.2h-21.1
		c-0.1,0-0.1-0.1-0.1-0.1c0-0.1,0-0.1,0.1-0.1l0,0c0.1-0.1,0.1-0.2,0.2-0.2c10.4-6,20.8-12,31.2-18c0.2-0.1,0.4-0.4,0.6-0.5
		c-0.2-0.1-0.4-0.2-0.6-0.3c-6.2-2.3-12.4-4.5-18.6-6.8c-0.2-0.1-0.4-0.2-0.6-0.3c0.1-0.1,0.2-0.3,0.4-0.4
		c9.8-5.2,19.7-10.3,29.8-14.8c0.8-0.4,1.5,0,2.1,0.3c19,9.8,38,19.6,57,29.4c0.5,0.3,0.9,0.5,1.4-0.1
		C240.4,236.9,244.8,231.4,249.1,226L249.1,226L249.1,226z"/>
	<path class="st4" d="M183.4,308.8c22.7-5.1,40.3-19.1,58.2-32.6c4.7-3.5,9.2-7.2,13.7-10.9c0.7-0.6,1.1-0.4,1.7,0.1
		c15.3,12,30.4,24.4,47.6,34c7.7,4.3,15.7,7.8,24.3,9.5c0.1,0.3,1.2,0.3,0.1,0.8c-14.2,6-28.3,12-42.4,17.9c-2.4,1-5,1.6-7.4,2.5
		c-0.4,0.6-1,0.6-1.5,0.8c-5.1,1.2-9.8,0.4-14.3-2.3c-1.8-1.1-3.7-2.2-5-4c-0.1-0.7,0.5-0.9,1-1.2c3.2-1.5,5.6-3.9,7.7-6.7
		c1.8-1.5,3.8-2.7,5.5-4.4c3.8-3.8,7.4-7.8,9.5-12.8c0.6-1.4,0.8-2.9,0.5-4.4s-1.1-2.8-2.5-3.6c-0.9-0.5-1.9-0.9-2.9-1.4
		c-0.2-0.1-0.4-0.3-0.5-0.4s-0.1-0.2-0.2-0.3c-0.5-1-1.2-1.8-2-2.6c-2.2-2.3-4.7-4.3-7.2-6.1c-3.3-2.5-6.7-4.9-10-7.5
		c-0.9-0.7-1.5-0.7-2.4,0c-5.2,4.3-10.6,8.2-15.5,12.8c-1.2,1.1-2.4,2.2-3,3.8c-0.6,0.6-1.4,0.7-2.2,0.9c-3.8,1.3-5.2,4.4-4,8.2
		c0.6,2,1.7,3.7,2.8,5.5c0.7,1.1,1.5,2.2,2.2,3.4c1.3,4.1,3.1,8,6.3,11c3.2,2.9,7,4.8,11.2,5.6c0.4,0.1,0.8,0.1,1.1,0.4
		c0,0.1,0.1,0.2,0,0.4c0,0.1-0.1,0.2-0.2,0.4c-3,2.6-6.4,4.4-10.2,5.3c-3.2,0.8-6.3,0.5-9.4-0.2c-0.4-0.1-0.9-0.2-1-0.7
		c-17-5.4-32.6-14-49.2-20.3C183.2,309.6,182.7,309.4,183.4,308.8L183.4,308.8L183.4,308.8z"/>
	<path d="M232.9,330c7.7,2.3,14.5,0.2,20.5-4.8c0-0.1,0.1-0.2,0.2-0.2l0,0c0.5-1.1,1.2-2.2,1-3.6c-0.1-0.8-0.3-1.2-1.2-1.3
		c-5.6-0.9-10.3-3.7-14.4-7.6c-1.6-1.5-3.3-2.8-4.3-4.7c-2-3-4.2-5.8-5.2-9.4c-1.2-4.2,0.7-6.8,6.7-8.9c0.6-0.6,1.4-0.7,2.2-0.8
		c1-0.2,1.9-0.4,2.9-0.5c0.4,0,0.8,0,1.1-0.1c0.2,0,0.4-0.1,0.6-0.1c0.3,0,0.8,0,0.9,0.4s-0.3,0.4-0.5,0.6c-0.2,0.1-0.3,0.1-0.5,0.1
		c-0.3,0-0.6,0.1-0.9,0.2c-2.3,0.6-4.7,1.1-6.9,1.9c-1.3,0.5-2.3,1.2-2.8,2.5c-0.2,0.4-0.4,0.9-0.1,1.2c0.3,0.3,0.7,0.1,1.1,0
		c0.5-0.1,1-0.3,1.5-0.3c8-1.4,16.1-1,24.2-1.1c3.5,0,6.8-0.9,10.1-2.1c0.9-0.5,1.2-1.4,1.6-2.3c0.5-1.2,0.9-1.4,2.1-1.1
		c1.3,0.4,2.7,0.4,3.8,1.4l0,0c0.1,0.1,0.3,0.1,0.5,0.2c6.8,3.3,7.7,6.2,3.9,12.8c-3.4,5.8-8,10.6-13.6,14.4
		c-1.6,1.7-3.7,2.1-5.8,2.7c-1,0.3-1.9,0.5-2.9,0.6c-1,0-1.1,0.6-1.1,1.4c0,1,0.7,1.8,1,2.7c5.9,5.5,12.6,8.2,20.7,5.7
		c0,2.3,0.2,4.6,0.1,6.9c0,0.9-1,0.8-1.6,0.9c-7.8,1.8-14.7-0.1-20.6-5.4c-0.7-0.6-1.1-0.6-1.9,0c-6,5.2-12.9,7-20.7,5.4
		c-1.2-0.3-1.8-0.7-1.7-2.1C232.9,333.9,232.8,331.9,232.9,330L232.9,330L232.9,330z"/>
	<path class="st36" d="M249.8,344.1h17.9c0.2,0,0.3,0,0.5,0.1c-0.1,0.1-0.2,0.3-0.3,0.4c-3.7,1.9-7.3,4-11.1,5.7
		c-1.4,0.6-2.8-0.7-4.2-1.3c-2.7-1.2-5.3-2.7-7.9-4.1c-0.2-0.1-0.4-0.3-0.6-0.4c0.2-0.1,0.5-0.2,0.7-0.2h5V344.1L249.8,344.1
		L249.8,344.1z"/>
	<path class="st37" d="M246.7,164.5c5.9-1.9,11.1,1.4,15.9,6.5c3.1,3.3,6.9,6,10.3,8.9c0.2,0.2,0.4,0.4,0.6,0.6
		c-0.2,0.1-0.5,0.2-0.8,0.2h-18c-0.5,0-1-0.2-1.4-0.5c-5.7-4.9-11.5-9.8-17.2-14.7c-0.2-0.2-0.4-0.5-0.6-0.8c0.3-0.1,0.7-0.2,1-0.2
		H246.7z"/>
	<path class="st38" d="M305.8,188h-0.2c-0.1,0-0.2-0.1-0.2-0.1c-3.6-0.4-7.3-0.8-10.9-1.2c-0.4-0.1-0.8-0.4-1.3-0.5
		c-0.1-0.1-0.1-0.1-0.2-0.2l0,0c-5.5-5.6-11-11.1-16.5-16.6c-0.3-0.3-0.6-0.7-0.8-1c0.2-0.6,0.8-0.7,1.4-0.8
		c1.5-0.3,3.1-0.6,4.7-0.8c1.4,0.2,2.7-0.4,4-0.8c6.5,6.9,13,13.9,19.5,20.8C305.3,187.1,305.5,187.6,305.8,188L305.8,188z"/>
	<path class="st39" d="M281.7,167.1c-2.1,0.4-4.1,0.8-6.2,1.2l0,0c-0.1-0.1-0.2-0.1-0.2-0.2c-1-1.1-2-2.1-3-3.2
		c1.6,0,3.1-0.1,4.7-0.1c2.1,0.1,4.1,0.2,6.2,0.4c0.6,0.7,0.5,1.2-0.3,1.6C282.5,167.1,282.1,166.9,281.7,167.1L281.7,167.1z"/>
	<path class="st40" d="M281.7,167.1c0.6-0.5,2.1-0.4,1.4-1.9c0.9,0,1.8-0.1,2.4,0.7C284.6,167.3,283.1,167,281.7,167.1L281.7,167.1
		L281.7,167.1z"/>
	<path class="st22" d="M291.5,186.4c-0.5-0.1-1-0.2-1.4-0.2C290.5,186.3,291,186.3,291.5,186.4z"/>
	<path class="st38" d="M275.3,168.2c0.1,0.1,0.2,0.1,0.2,0.2C275.5,168.3,275.4,168.2,275.3,168.2z"/>
	<path class="st1" d="M133.4,253.8c-0.1,0.1-0.1,0.2-0.2,0.3C133.2,254,133.3,253.9,133.4,253.8z"/>
	<path class="st1" d="M133.2,254.1v0.2C133.1,254.2,133.1,254.2,133.2,254.1C133.1,254.1,133.1,254.1,133.2,254.1L133.2,254.1z"/>
	<path class="st41" d="M291.8,131.4v-0.2c0.2-1.4,1.5-0.9,2.3-1.2c0.4-0.2,0.7-0.5,1.1-0.7c4.6,3.5,9.2,7,13.8,10.5l0,0
		c-5.7-2.4-11.4-4.8-16.7-8.1C292,131.6,291.9,131.5,291.8,131.4L291.8,131.4L291.8,131.4z"/>
	<path class="st41" d="M294.1,128.5c0.2,0.1,0.3,0.2,0.4,0.3C294.4,128.7,294.3,128.6,294.1,128.5z"/>
	<path class="st41" d="M292.9,127.8c0.1,0.1,0.3,0.2,0.4,0.3C293.2,128,293.1,127.9,292.9,127.8z"/>
	<path class="st41" d="M293.4,128.1c0.1,0.1,0.2,0.1,0.3,0.2C293.6,128.2,293.5,128.2,293.4,128.1z"/>
	<path class="st41" d="M293.9,128.4c0.1,0.1,0.2,0.1,0.2,0.2C294,128.5,294,128.4,293.9,128.4z"/>
	<path class="st41" d="M294.6,128.8c0.1,0.1,0.2,0.1,0.2,0.2C294.7,129,294.7,128.9,294.6,128.8z"/>
	<path class="st41" d="M294.8,129c0.1,0.1,0.2,0.1,0.3,0.2C295,129.2,294.9,129.1,294.8,129z"/>
	<path class="st42" d="M116.8,142.4c0.2,0.3,0.3,0.5,0.4,0.6c1.7,2.9,3.3,5.7,5,8.6c0.2,0.3,0.1,0.7,0.1,1.1
		c-0.3-0.2-0.6-0.3-0.9-0.5c-2.5-2.4-4.1-5.4-4.7-8.8C116.7,143.1,116.8,142.9,116.8,142.4L116.8,142.4z"/>
	<path class="st43" d="M395.3,142.8c-0.5,4-2.3,7.2-5,9.9c-0.1,0.1-0.3,0.1-0.5,0.2c0-0.2,0-0.5,0.1-0.7c1.7-3.1,3.4-6.3,5.1-9.4
		c0.1-0.1,0.2-0.2,0.3-0.2C395.2,142.7,395.3,142.8,395.3,142.8L395.3,142.8z"/>
	<path class="st10" d="M206,136.4c-0.2,0.1-0.3,0.1-0.5,0.2C205.7,136.6,205.8,136.5,206,136.4z"/>
	<path class="st10" d="M206.7,136.2c-0.2,0.1-0.3,0.1-0.5,0.2C206.4,136.3,206.6,136.3,206.7,136.2z"/>
	<path class="st10" d="M207.4,136c-0.2,0.1-0.3,0.1-0.5,0.2C207.1,136.1,207.3,136,207.4,136z"/>
	<path class="st2" d="M305.3,187.9c0.1,0,0.2,0.1,0.2,0.1S305.4,187.9,305.3,187.9z"/>
	<path class="st2" d="M292.9,186c0.1,0.1,0.2,0.1,0.2,0.2C293.1,186.1,293,186,292.9,186z"/>
	<path class="st3" d="M310.1,283.1c-12.2,0-22.9-8.9-24.4-20.5c-0.6-4.9,1.8-8.5,5.1-11.8c0.1-0.1,0.3-0.1,0.4-0.2
		c0,0.3,0,0.5-0.1,0.8c-3.5,12.6,3.9,24.4,16.8,26.1c7.2,1,13.3-1.7,17.9-7.3c4.6-5.5,5.2-11.8,2.8-18.5c-0.4-1.2-0.8-0.2-1.1,0
		c-3.3,2.4-6.8,3.5-10.7,1.9c-3.3-1.4-5.4-3.8-6-7.4s1.3-7.1,4.6-8.9c3.6-2,8.6-1.5,11.7,1.2c7.4,6.4,10.5,18.4,7.1,27.6
		C330.4,276.7,321.2,283.1,310.1,283.1L310.1,283.1L310.1,283.1z"/>
	<path class="st4" d="M176.6,255.2c0.1-4.7,2.8-10.9,7.8-16.1c3.7-3.8,10.5-3.8,14.1-0.4c3.5,3.4,3.6,8.9,0.4,12.6
		c-3.3,3.8-9.5,4.1-13.8,0.7c-0.9-0.8-1.4-1.1-1.8,0.5c-2.3,8.4,0.2,16.5,6.6,21.2c6.9,5.1,16,5.5,22.9,0.9
		c7.5-4.9,10.7-13.1,8.7-22.2c-0.1-0.6-0.2-1.1-0.3-1.7c0.4,0.4,0.9,0.7,1.3,1.1c6,6.4,5.7,14.2-0.9,22.1c-6.7,8.1-18.3,11.3-28,7.8
		C183.3,278.1,176.5,268.4,176.6,255.2L176.6,255.2L176.6,255.2z"/>
	<path class="st44" d="M255.7,245.9c-4,3.4-8.1,6.8-12.1,10.3c-0.9,0.8-1,0.5-1.4-0.5c-2.1-5,1.5-8.3,3.8-11.8
		c3.1-4.9,6.7-9.4,10.1-14.1c0.7,0.3,0.6,0.9,0.7,1.4c0.3,2,0.2,4,0.2,6v7.1C256.9,245.2,256.8,245.9,255.7,245.9L255.7,245.9z"/>
	<path class="st45" d="M255.7,245.9c0.2-0.2,0.8-0.1,0.7-0.7c-0.1-5-0.2-10.1-0.3-15.1c0-0.1-0.1-0.2-0.2-0.3
		c1.3,0.3,1.6,1.6,2.2,2.5c3.9,5.6,7.9,11.2,11.4,17.1c1.5,2.6,0.7,4.8-0.2,7.1c-0.2,0.6-0.5,0.2-0.8,0c-3.7-3.3-7.5-6.6-11.2-9.8
		C257,246.2,256.3,246.2,255.7,245.9L255.7,245.9L255.7,245.9z"/>
	<path class="st23" d="M207.8,249.2c0.2-2,1.2-3.2,3.2-3.2s3.1,1.2,3.1,3.1c0,2-1.2,3.2-3.2,3.2C208.9,252.4,208.1,251,207.8,249.2
		L207.8,249.2z"/>
	<path class="st23" d="M304.4,249.1c-0.1,2-1.2,3.2-3.1,3.2c-2,0-3.2-1.3-3.2-3.2s1.2-3,3.1-3C303.2,246,304.2,247.2,304.4,249.1
		L304.4,249.1z"/>
	<path class="st46" d="M241.5,288.6c-1.7,0.3-3.5,0.6-5.2,1c0.1-1.8,1.6-2.8,2.7-3.8c5.4-4.6,10.9-9,16.3-13.6
		c0.4-0.3,0.7-0.4,1-0.1c6.6,5.5,14.2,9.7,19.9,16.3c0.3,0.3,0.9,0.6,0.2,1.1h-0.5c-3-1.7-5.2-1-6.7,2.2c-0.8,0.2-0.6-0.4-0.5-0.7
		c0.2-0.8,0.3-1.6,0.7-2.3c0.3-0.5,0.1-0.7-0.4-0.8c-4.1-1-8.2-2.3-12.6-2.2c-2.8,0-5.6,0.7-8.3,1.4c-1.7,0.5-3.4,1.2-5.3,1.3h-0.4
		C242.2,288.5,241.8,288.3,241.5,288.6L241.5,288.6L241.5,288.6z"/>
	<path class="st47" d="M234.8,307.8c4.6,4.8,9.3,9.4,16,11.3c0.6,0.2,1.3,0.2,1.8,0.5c0.8,0.3,2.2-0.3,2.3,0.9
		c0.2,1.6,0.7,3.5-1.3,4.5c-4-0.7-7.7-2.3-11-4.7C238.5,317.2,236.3,312.7,234.8,307.8L234.8,307.8z"/>
	<path class="st48" d="M258.4,324.3c-1.6-1-1.6-2.6-1.3-4c0.2-1,1.5-0.5,2.3-0.6c2.7-0.6,5.4-1.4,7.8-2.8
		C265,320.3,261.9,322.5,258.4,324.3L258.4,324.3L258.4,324.3z"/>
	<path class="st46" d="M277,289.7c-0.2-0.1-0.3-0.1-0.5-0.2C276.6,289.6,276.8,289.7,277,289.7z"/>
	<path class="st47" d="M253.7,325l-0.2,0.2C253.5,325.2,253.6,325.1,253.7,325z"/>
	<path class="st49" d="M242.9,288.3c8.8-3.8,17.8-3.9,26.7-0.6c1.1,0.4-0.6,2-0.4,3.2c0,0.3-0.5,0.6,0.1,0.8
		c-2.9,1.4-5.9,2.2-9.1,2.3c-8.6,0.3-17.3-0.2-25.9,1c0-0.8,0.7-1,1.2-1.3c1.4-0.7,2.9-1,4.4-1.3c5.8-1,11.6-1.7,17.4-2.3
		c0.9-0.1,1.7-0.2,2.6-0.4c0.3-0.1,0.6,0,0.8-0.1c-0.3,0-0.6-0.1-0.9-0.1c-2.2-0.2-4.3-0.2-6.5-0.3h-8.5c-0.6,0-1.3,0.1-1.8-0.5
		c0.2-0.1,0.3-0.2,0.4-0.3C243.4,288.4,243.1,288.4,242.9,288.3L242.9,288.3L242.9,288.3z"/>
	<path class="st50" d="M243.1,288.8c6.1,0,12.1-0.3,18.2,0.5c0.5,0.1,1,0.2,1.4,0.3c-0.5,0.1-1,0.3-1.5,0.4
		c-7.1,1-14.3,1.9-21.4,2.9c-1.9,0.3-3.9,0.7-5.5,2.1c-0.9,0.2-2.2,1.3-2.6,0.4c-0.7-1.2,0-2.7,1.2-3.5c2.7-1.8,5.9-2.2,9-2.9
		c0.2-0.2,0.5,0,0.8-0.2C242.8,288.8,243,288.8,243.1,288.8L243.1,288.8L243.1,288.8z"/>
	<path class="st23" d="M246.6,302.5c-1.9-0.2-2.9-1.3-2.9-3.1c0-1.8,1.4-2.6,3.1-2.6c1.7,0.1,2.9,1.1,2.8,2.8
		C249.5,301.5,248.2,302.3,246.6,302.5L246.6,302.5L246.6,302.5z"/>
	<path class="st49" d="M241.5,288.6c0.3-0.1,0.7-0.1,1-0.2C242.2,288.4,241.8,288.5,241.5,288.6z"/>
	<path class="st49" d="M242.7,288.8c-0.2,0.1-0.5,0.1-0.8,0.2C242.2,289,242.4,288.9,242.7,288.8z"/>
</g>
</svg>
