<?xml version="1.0" encoding="UTF-8"?>
<svg id="Layer_1" data-name="Layer 1" xmlns="http://www.w3.org/2000/svg" viewBox="0 0 336.61 322.41">
  <defs>
    <style>
      .cls-1, .cls-2, .cls-3, .cls-4, .cls-5, .cls-6, .cls-7, .cls-8, .cls-9, .cls-10, .cls-11, .cls-12, .cls-13, .cls-14, .cls-15, .cls-16, .cls-17, .cls-18, .cls-19, .cls-20, .cls-21, .cls-22, .cls-23, .cls-24, .cls-25, .cls-26, .cls-27, .cls-28, .cls-29, .cls-30, .cls-31, .cls-32, .cls-33, .cls-34, .cls-35, .cls-36, .cls-37, .cls-38, .cls-39, .cls-40, .cls-41, .cls-42, .cls-43, .cls-44, .cls-45, .cls-46, .cls-47, .cls-48, .cls-49, .cls-50, .cls-51 {
        stroke-width: 0px;
      }

      .cls-2 {
        fill: #f9fdfe;
      }

      .cls-3 {
        fill: #fd0226;
      }

      .cls-4 {
        fill: #f9fbfe;
      }

      .cls-5 {
        fill: #616671;
      }

      .cls-6 {
        fill: #50565f;
      }

      .cls-7 {
        fill: #2c333e;
      }

      .cls-8 {
        fill: #2b313c;
      }

      .cls-9 {
        fill: #464f59;
      }

      .cls-10 {
        fill: #87909d;
      }

      .cls-11 {
        fill: #383e49;
      }

      .cls-12 {
        fill: #3b434a;
      }

      .cls-13 {
        fill: #2e3540;
      }

      .cls-14 {
        fill: #3f4752;
      }

      .cls-15 {
        fill: #cfd3de;
      }

      .cls-16 {
        fill: #d1dae2;
      }

      .cls-17 {
        fill: #cd142a;
      }

      .cls-18 {
        fill: #c5cdd8;
      }

      .cls-19 {
        fill: #d3dbe4;
      }

      .cls-20 {
        fill: #e1e9ef;
      }

      .cls-21 {
        fill: #d3dce4;
      }

      .cls-22 {
        fill: #d81f35;
      }

      .cls-23 {
        fill: #d4dbe4;
      }

      .cls-24 {
        fill: #c2051b;
      }

      .cls-25 {
        fill: #b3041a;
      }

      .cls-26 {
        fill: #d2d9e2;
      }

      .cls-27 {
        fill: #d2dae1;
      }

      .cls-28 {
        fill: #cdd3de;
      }

      .cls-29 {
        fill: #bb031d;
      }

      .cls-30 {
        fill: #8f97a2;
      }

      .cls-31 {
        fill: #333a43;
      }

      .cls-32 {
        fill: #bc021d;
      }

      .cls-33 {
        fill: #979eab;
      }

      .cls-34 {
        fill: #939ca8;
      }

      .cls-35 {
        fill: #939ba8;
      }

      .cls-36 {
        fill: #fdfeff;
      }

      .cls-37 {
        fill: #fdfefe;
      }

      .cls-38 {
        fill: #fff;
      }

      .cls-39 {
        fill: #fffeff;
      }

      .cls-40 {
        fill: #faf6f7;
      }

      .cls-41 {
        fill: #fcfeff;
      }

      .cls-42 {
        fill: #edc3c4;
      }

      .cls-43 {
        fill: #fbfefe;
      }

      .cls-44 {
        fill: #fe4b54;
      }

      .cls-45 {
        fill: #fbfdfe;
      }

      .cls-46 {
        fill: #feffff;
      }

      .cls-47 {
        fill: #fefeff;
      }

      .cls-48 {
        fill: #fefefe;
      }

      .cls-49 {
        fill: #fefffe;
      }

      .cls-50 {
        fill: #fcfdfe;
      }

      .cls-51 {
        fill: #e7eef1;
      }
    </style>
  </defs>
  <path class="cls-1" d="M331.2,37.12c-.25,17.89-3.13,35.11-12.86,50.62-5.98,9.53-13.53,17.46-23.12,23.39-.8.49-.61.91-.31,1.52,2.96,6,5.77,12.09,8.93,17.99,1.77,3.31-.92,5.19-1.82,7.64-.26.7-.4,1.16-.04,1.84,10.7,20.43,21.77,40.66,33.13,60.73,2.29,4.04,2.34,3.97-2.25,4.34-7.79.62-15.57,1.29-23.36,1.95-.3.03-.59.15-.88.23.19.29.35.6.58.85,8.87,9.39,16.91,19.45,24.33,30.01.17.24.28.53.42.8-.3,0-.6.01-.9-.01-10.68-.82-21.36-1.63-32.03-2.48-.87-.07-.99.07-.73.91,1.3,4.2,2.47,8.44,3.84,12.62.51,1.55-.08,1.41-1.2,1.22-9.85-1.68-19.61-3.79-29.31-6.15-1.02-.25-1.13-.12-.96.95,1.14,7.09,2.02,14.21,2.41,21.38.05.92-.27.84-.93.57-6.5-2.62-13.02-5.19-19.52-7.82-.84-.34-1.17-.38-1.36.69-2.62,14.55-9.44,26.97-19.37,37.78-.2.21-.47.36-.7.54.03-.27.07-.55.09-.82.64-8.15,1.27-16.29,1.9-24.44.02-.26-.05-.52-.08-.78-.23.13-.47.24-.69.39-22.23,15.42-44,31.47-65.04,48.49-.82.67-1.25.22-1.8-.23-18.76-15.55-38.52-29.78-58.44-43.79-2.14-1.5-4.28-3.01-6.42-4.51-.24-.17-.52-.28-.78-.42-.02.3-.08.61-.06.91.63,8.03,1.27,16.05,1.9,24.08.03.34-.03.68-.05,1.02-.25-.22-.53-.41-.75-.65-9.62-10.98-16.89-23.17-19.21-37.86-.17-1.05-.76-.54-1.19-.37-6.42,2.51-12.83,5.04-19.23,7.59-1.06.42-1.51.52-1.4-.98.53-7.16,1.2-14.3,2.49-21.37.23-1.25-.67-.45-.92-.39-9.9,2.4-19.81,4.71-29.88,6.29-1.08.17-1.21-.1-.9-1.05,1.37-4.26,2.68-8.54,4.05-12.8.26-.81.21-1.06-.77-.98-10.67.87-21.35,1.69-32.02,2.52-.3.02-.6,0-.9-.01.12-.28.21-.58.37-.83,7.35-10.67,15.54-20.67,24.53-30,.26-.27.45-.61.68-.91-.34-.06-.68-.14-1.03-.17-8.89-.76-17.78-1.53-26.68-2.24-1.57-.13-.77-.83-.45-1.41,11.09-20.28,22.11-40.6,33.36-60.78,1.66-2.98,1.2-5.21-.47-7.63-1.15-1.67-.96-3.09-.03-4.89,3.05-5.87,5.87-11.86,8.79-17.8.26-.54.36-.86-.25-1.25-19.5-12.59-30.46-30.7-34.31-53.33-3.23-18.94-1.22-37.72,1.89-56.46.16-.96.86-.54,1.3-.5,16.24,1.19,32.12,4.24,47.6,9.35,15.15,5,29.95,10.93,42.03,21.58,5.2,4.59,9.64,1.34,14.49,1.17,3.13-.11,3.14-.94,1.38-3.34-6.06-8.28-10.87-17.21-13.31-27.28-.23-.96-.03-1.19.92-1.01,18.68,3.51,37.56,5.61,56.42,7.78.33.04.68-.02,1.01-.03-.13-.28-.24-.56-.39-.83-1.3-2.45-2.6-4.9-3.9-7.35-.27-.52-.49-1.03.5-.85,27.68,4.87,53.75,13.28,74.25,33.89.55.55.8.36,1.23,0,16.69-13.54,36.17-21.23,56.6-26.9,11.61-3.22,23.47-5.05,35.46-6.14,1.76-.16,2.6-.02,2.93,2.14,1.72,11.3,3.23,22.61,3.21,34.09Z"/>
  <path class="cls-19" d="M277.09,231.32c-6.22-.36-12.38-1.2-18.52-2.25-1.05-.18-1.49-.17-1.29,1.13.82,5.57,1.55,11.15,2.3,16.73.05.34.02.68.03,1.02-.32-.13-.66-.24-.97-.39-4.75-2.29-9.5-4.57-14.22-6.9-1.25-.62-2.31-.51-3.57.11-21.91,10.66-43.88,21.2-65.74,31.96-4.36,2.15-8.01,2.19-12.49,0-22.23-10.9-44.63-21.45-66.96-32.15-.91-.43-1.7-.53-2.59-.1-4.88,2.38-9.76,4.75-14.64,7.12-.31.15-.65.24-.98.36.02-.31.02-.62.05-.92.72-5.58,1.42-11.17,2.19-16.75.16-1.15-.08-1.45-1.26-1.24-5.74,1-11.49,1.95-17.31,2.26-.26-.3-.91.19-.97-.39-.05-.48.41-.72.78-.95,2.78-1.79,5.7-3.36,8.37-5.32.19-.14.39-.26.58-.41.27-.23.79-.44.75-.69-.07-.37-.59-.13-.9-.23-.22-.08-.46-.11-.58-.35-5.46-1.02-11.01-.88-16.52-1.34-4.42-.37-8.84-.56-13.27-.84-.24-.02-.48-.15-.72-.22.27-.38.54-.75.81-1.13.12.65.43.86,1.15.85,1.08-.02,1.99-.3,2.84-.97,3.3-2.59,6.72-5.04,9.7-8.02.13-.13.42-.24.34-.41-.08-.16-.35-.02-.53.01-.55.09-1.1.09-1.66.1-1.91.01-3.83-.1-5.73.31,1.26-1.66,2.5-3.35,3.8-4.98.64-.8.61-1.05-.49-1.24-5.21-.88-10.41-1.84-15.62-2.77,6.04-3.28,12.07-6.6,17.71-10.55.7-.49,1.45-.92,1.94-1.66-.83-.14-1.66-.08-2.49-.05-1.59.06-3.16-.23-4.74-.31-.76-.04-1.44.39-2.18.16.49-.66-.06-.63-.47-.75-5.56-1.65-11.12-3.31-16.67-4.96.04-.85.72-1.07,1.34-1.31,3.58-1.37,7.16-2.77,10.79-3.98,3.79-1.26,7.53-2.65,11.26-4.09.14-.06.3-.08.42-.19-.14-.11-.3-.07-.45-.07-1.03,0-2.06.05-3.08-.04-.38-.03-1.04.12-.92-.67.52-.39,1.13-.31,1.72-.31,6.27,0,12.53-.01,18.8,0,.65,0,1.53-.22,1.82.52.32.83-.57,1.19-1.06,1.66-3.37,3.19-6.85,6.26-10.32,9.34-.18.16-.35.32-.5.51-.24.3-.2.5.21.56.16.02.32.03.47.02,3.02-.16,6.02.35,9.03.24,3.14-.12,6.26.22,9.39.26.47,0,1.06-.05,1.28.44.25.56-.29.93-.62,1.3-.31.36-.66.69-1,1.02-3.93,3.76-7.51,7.85-11.4,11.65-.11.11-.23.22-.33.35-.14.18-.4.35-.25.6.1.18.37.14.56.1,1.49-.29,3.01-.16,4.5-.35,2.17-.28,4.36-.01,6.53-.25.94-.1,1.2.46.75,1.29-.21.39-.5.71-.77,1.06-2.6,3.41-5.24,6.78-7.88,10.15-.2.25-.39.5-.56.77-.29.45-.12.65.37.66.79,0,1.59.07,2.38-.05,1.3-.2,2.61-.18,3.92-.18,4.8.01,9.59-.22,14.38-.31,3.01-.06,6.02-.1,9.03-.16.36,0,.71-.01,1.07.03,1.11.12,1.33.5.87,1.49-.22.47-.53.88-.81,1.32-2.29,3.52-4.76,6.93-6.99,10.49-.18.28-.59.57-.35.91.19.27.6.04.9-.02,1.16-.25,2.35-.4,3.51-.67.47-.11.94-.2,1.4.02.48.81,1.32,1.1,2.12,1.42,6.32,2.55,12.63,5.16,18.87,7.9,3.96,1.74,7.82,3.67,11.81,5.35,5.26,2.22,10.56,4.34,16.02,6.03.41.13.88.19.98.73.05,1.86.04,3.73,0,5.59-.02,1.07.44,1.56,1.47,1.77,7.37,1.48,14.01.04,19.82-4.83,1.51-1.27,1.8-1.32,3.35-.02,3.78,3.19,8.1,5.07,13.04,5.51,2.45.22,4.81-.25,7.18-.75,1.04-.22,1.1-1.08.99-1.88-.25-1.78-.19-3.55.03-5.33.2-.57.72-.69,1.21-.84,9.37-2.81,18.2-6.98,27.12-10.91,6.46-2.84,12.79-5.98,19.47-8.29.84-.29,1.76-.52,2.23-1.43,1.3-.32,2.48.35,3.74.44.62.04,1.47.58,1.78.13.33-.47-.44-1.07-.78-1.57-2.28-3.34-4.54-6.7-6.88-10-.44-.63-1.2-1.32-.78-2.11.4-.75,1.36-.44,2.09-.47,6.11-.18,12.22.14,18.32.31,4.04.12,8.09-.1,12.12.29.19.02.44.1.56-.07.2-.31-.11-.51-.27-.7-1.85-2.33-3.76-4.62-5.64-6.92-1.15-1.41-2.29-2.85-3.45-4.26-.3-.37-.67-.78-.45-1.27.23-.51.8-.45,1.26-.47,3.45-.13,6.89.21,10.34.32.34.01.79.3.98-.06.12-.23-.33-.49-.55-.71-3.99-4.03-7.83-8.21-11.9-12.16-.52-.51-1.41-1.01-1.11-1.81.34-.91,1.38-.57,2.12-.57,5.95-.06,11.88-.52,17.83-.49.2,0,.48.08.56-.08.14-.26-.17-.4-.32-.55-2.06-1.98-4.28-3.78-6.34-5.76-1.55-1.48-3.22-2.83-4.71-4.37-.38-.39-.97-.79-.74-1.38.24-.6.95-.48,1.48-.48,6.67.01,13.33-.07,20,.04.2,0,.4-.02.59-.02.79.65.14.82-.36.92-.82.17-1.66.05-2.49.08-.33.01-.69-.11-1,.1.25.21.57.27.86.39,2.69,1.08,5.42,2.02,8.16,2.95,4.35,1.49,8.69,3.02,12.99,4.64.79.3,1.72.44,2.15,1.34-5.62,1.72-11.25,3.44-16.86,5.17-.29.09-.53.32-.79.49-.52.32-1.08.14-1.62.14-2.61-.01-5.22,0-7.82.24-.19.02-.48-.09-.52.12-.04.17.26.27.42.37,4.87,3.24,9.85,6.33,14.97,9.17,1.47.82,3.09,1.42,4.35,2.61-5.08.94-10.15,1.88-15.23,2.82-.33.06-.64.2-.97.3.16.26.3.54.48.78,1.28,1.7,2.57,3.39,3.86,5.09-2.25.05-4.48-.19-6.71-.41-.12-.01-.23-.04-.35-.05-.35-.04-.7-.11-1.06-.07.18.29.5.44.73.68,2.72,2.79,5.86,5.09,8.9,7.5,1.1.87,2.25,1.45,3.7,1.3.46-.05.96-.04,1.33.36-8.06.57-16.12,1.09-24.16,1.74-1.77.14-3.67-.17-5.3.89-.38.44-.87.25-1.33.25-.19,0-.44-.07-.51.16-.07.21.16.33.31.45,1,.85,2.13,1.51,3.24,2.18,2.03,1.21,4.01,2.53,6.14,3.58.18.09.35.19.5.31.25.2.52.41.5.76-.04.48-.55.14-.75.39Z"/>
  <path class="cls-3" d="M54.67,115.35c.1-1.42,1.07-1.77,2.28-2.12,20.78-5.93,41.7-11.28,62.94-15.28.18-.03.36-.12.54-.18-.09-.09-.17-.22-.28-.26-3.99-1.42-7.37-3.86-10.58-6.52-1.76-1.46-3.51-1.06-5.37-.53-4.12,1.16-8.24,2.32-12.35,3.49-1.94.2-3.74.92-5.58,1.5-5.37,1.69-10.74,3.37-16.08,5.16-3.19,1.07-6.42,1.99-9.61,3.07-.37.13-.77.29-1.15.25-.54-.05-1.18-.1-.92-.96.4-1.2.8-2.41,1.21-3.61.49-.77,1.33-.97,2.09-1.29,4.25-1.77,8.57-3.36,12.93-4.83,8.95-3.02,17.95-5.85,27.09-8.24,10.34-2.7,20.85-4.49,31.49-5.57,6.23-.63,12.47-1.2,18.72-1.57,2.33-.14,4.67-.31,7.01-.31,6.23,0,12.46.02,18.69,0,5.44-.02,10.84.48,16.26.89,8.07.61,16.1,1.54,24.08,2.9,9.67,1.65,19.23,3.75,28.63,6.56,7.87,2.35,15.66,4.95,23.33,7.88,2.03.77,4.1,1.5,5.98,2.62,1.26,1.16,1.57,2.81,2.14,4.31.28.73-.29,1.23-1.1.94-1.68-.6-3.4-1.04-5.08-1.62-3.57-1.24-7.18-2.37-10.78-3.53-2.51-.81-5.03-1.61-7.54-2.41-2.7-.86-5.44-1.61-8.15-2.43-2.86-.86-5.69-1.88-8.66-2.32-5.77-2.97-10.08-.3-14.09,3.63-.45.44-1.01.77-1.55,1.1-.92.56-1.87,1.08-2.81,1.62,1.11.29,2.2.61,3.32.85,18.88,4.02,37.65,8.48,56.15,13.99.95.28,1.88.63,2.81.95.7.17,1.07.83,1.68,1.13v.04c.23.27-.05.67.23.93v.02c.05,2.38-.07,2.48-2.39,1.65-9.44-3.38-19.17-5.6-28.99-7.5-4.67-.9-9.36-1.71-14.07-2.37-1.24-.17-1.38-.41-1.7-2.26-.53-.34.53-1.76-.97-1.44-.67.61-1.46,1.07-2.1,1.71h0c-.12.03-.19.12-.26.21h0c-.36.18-.66.45-.93.74h0c-.12.04-.19.12-.24.23h0c-.09.06-.18.13-.25.22h0c-1.2.51-1.92,1.62-2.98,2.32-.42.28-.84.5-1.32.39-2.62-.59-5.35-.55-7.9-1.49-4.12-4.37-8.39-8.6-12.4-13.08-2.74-3.07-5.7-5.94-8.31-9.13-.68-.44-1.43-.58-2.22-.53-2.88-.27-5.77-.27-8.65-.45-.37-.02-.93-.19-1.07.22-.14.38.39.63.65.91.46.49.95.96,1.43,1.43.09.08.17.16.24.25.04.04.07.09.11.13.54.63,1.14,1.21,1.74,1.78,2.94,2.82,5.61,5.9,8.53,8.74,2.04,1.98,4.15,3.89,6.13,5.93.4.42.93.77.88,1.47-.08.33-.29.55-.61.66-.33.1-.66.08-.99.02-.53-.17-1.07-.18-1.62-.08-5.93-.48-11.86-.58-17.8-.76-4.12-.12-8.24-.11-12.36-.15-1.55-.01-3.08-.34-4.63-.25-5.03.28-10.06.13-15.09.28-6.97.21-13.9,1.03-20.83,1.73-7.06.72-14.08,1.65-21.1,2.66-.28.04-.55.02-.81-.11h0c-.1-.18-.33-.12-.45-.27h0c-.08-.09-.16-.17-.28-.21-1.76-1.52-3.51-3.04-5.28-4.55-.47-.4-.97-.75-1.46-1.12-.19.63-.4,1.26-.57,1.89-.12.45-.18.92-.27,1.39-.37.41-.84.56-1.37.61-9.57.95-18.89,3.16-28.23,5.33-4.87,1.13-9.66,2.52-14.42,4.03-.6.19-1.22.35-1.85.41-1.1.09-1.25-.09-.97-1.15.06-.23,0-.48.14-.69Z"/>
  <path class="cls-39" d="M45.68,173.91c1.5.72,3.09.12,4.63.3.36.04.7.14,1.06.21-.29.18-.56.42-.87.54-7.54,2.77-15.09,5.51-22.63,8.29-.54.2-1,.62-1.5.94,0,0-.03,0-.03,0-.21-.23-.52-.06-.75-.2-1.26.1-1.38-.35-.75-1.37,9.43-15.38,18.03-31.23,26.65-47.06.3-.55.64-.92,1.29-1.07,14.13-3.4,28.23-6.9,42.38-10.2,3.49-.81,6.63,1.19,9.79,2.34,3.38,1.23,6.64,2.78,9.96,4.18.23.1.49.1.74.15-.06-.26-.08-.53-.17-.78-2.03-5.54-4.07-11.08-6.09-16.62-.14-.37-.13-.8-.19-1.2.35.23.73.42,1.06.69,12.18,9.97,23.15,21.22,34.32,32.25.22.22.47.42.7.63-.05-.32-.06-.66-.16-.96-2.24-7.01-5.29-13.65-9.22-19.88-.28-.62.2-.66.58-.7.54-.06.99.2,1.42.5,6.34,4.41,12.49,9.04,18.09,14.39,1.74,1.66,3.21,3.61,5.16,5.05.42.31.73.73.69,1.31-.06.45-.3.81-.58,1.15-4.03,4.81-7.82,9.8-11.77,14.67-1.24,1.53-1.47,1.61-3.19.71-6.82-3.56-13.64-7.14-20.42-10.77-2.52-1.35-5.07-2.63-7.61-3.93-7.98-4.09-15.93-8.23-23.95-12.25-1.49-.75-3.04-1.38-4.52-2.13-.82-.42-1.55-.35-2.38,0-4.64,1.99-9.06,4.42-13.63,6.53-4.87,2.25-9.53,4.88-14.26,7.4-.23.12-.63.16-.62.47.02.31.42.3.66.39,5.64,2.02,11.2,4.24,16.86,6.22.51.18,1.23.25,1.33.86.12.72-.65.93-1.14,1.21-10.07,5.8-20.12,11.64-30.22,17.4-.09.03-.18.06-.27.09-.04.01-.09.02-.13.03-.11.02-.23.04-.33.11,0,0,0,.11,0,.11Z"/>
  <path class="cls-38" d="M311.67,184c-8.17-2.99-16.34-5.97-24.51-8.97-.31-.11-.58-.34-.87-.51.34-.1.68-.27,1.02-.28,1.15-.03,2.3.01,3.45-.03.23,0,.92.31.61-.48-.64.08-1.14-.27-1.65-.56-8.49-4.82-16.91-9.75-25.25-14.82-1.29-.78-2.6-1.52-3.91-2.27-.4-.23-.95-.4-.9-.98.05-.55.58-.72,1.01-.9,3.34-1.38,6.72-2.65,10.11-3.88,2.27-.83,4.54-1.67,6.85-2.4.24-.08.65-.04.66-.37,0-.29-.38-.37-.61-.5-4.24-2.42-8.62-4.58-12.98-6.76-4.83-2.41-9.65-4.84-14.57-7.05-1.2-.54-2.21-.47-3.38.11-10.55,5.26-21,10.7-31.45,16.14-8.34,4.34-16.66,8.72-24.98,13.1-1.08.57-1.43.49-2.22-.5-4.02-5.02-7.89-10.15-11.91-15.17-.34-.43-.74-.85-.74-1.46.05-.51.39-.85.72-1.19,3.8-3.81,7.48-7.75,11.85-10.93,2.88-2.09,5.74-4.21,8.78-6.07,1.15-.7,2.16-1.61,3.36-2.23.68-.35.8-.28.97.31v.02c-.07.1-.17.16-.19.28h0c-.19.07-.12.32-.28.42v.02c-.08.09-.16.17-.21.28-3.64,5.85-6.34,12.13-8.56,18.63-.11.31-.11.65-.17.98.25-.19.51-.37.74-.58,10.05-9.86,19.77-20.05,30.44-29.26.69-.6,1.38-1.19,2.11-1.74.97-.75,1.97-1.47,2.96-2.2-.33,1.17-.6,2.37-1.01,3.52-1.84,5.14-3.72,10.26-5.58,15.39,0,0-.03-.02-.03-.02,2.77-1.12,5.61-2.09,8.29-3.39,6.92-3.37,13.76-3.7,21.31-1.62,11.17,3.08,22.51,5.57,33.68,8.71.43.12.91.51,1.12.91,8.67,15.93,17.14,31.99,26.74,47.39.74,1.18-.34.81-.82.94Z"/>
  <path class="cls-38" d="M42.76,32.06c-4.36-1.86-8.66-3.88-13.29-5.01-.95.44-1.78-.1-2.64-.33-1.52-.42-1.64-.39-1.78,1.17-.48,5.29-.78,10.56-.5,15.89.27,5.17.94,10.25,2.01,15.3.35,1.63.85,3.22,1.29,4.83.35,1.29.22,1.52-1.08,1.73-.81.13-1.2.48-1.06,1.35.06.39.02.84-.38,1.05-.38.2-.69-.08-.95-.33-.33-.31-.78-.38-1.12-.67-4.13-10.85-5-22.14-4.28-33.59.37-5.97,1.11-11.92,1.64-17.88.07-.81.5-.77,1.04-.69,29.07,4.39,56.31,13.11,78.73,33.27.86.77.89,1.15-.09,1.81-1.38.93-2.64,2.02-3.95,3.04-.49.09-.69-.31-.96-.58-5.95-5.98-12.77-10.64-20.64-13.73-.22-.09-.44-.17-.66-.28-.13-.06-.24-.17-.38-.21.14.07.27.17.39.27,3.79,3.25,7.61,6.47,11.07,10.09,2.03,2.12,3.98,4.31,5.84,6.58.22.27.56.59.3.93-.3.39-.73.18-1.08-.02-1.45-.83-2.72-1.92-4.11-2.84-5.07-3.34-10.19-6.6-15.56-9.42-4.07-2.14-8.29-3.98-12.5-5.83-4.61-2.03-9.35-3.73-14.04-5.55-.41-.16-.85-.19-1.26-.34Z"/>
  <path class="cls-38" d="M306.64,27.23c-4.14,1.6-8.28,3.2-12.42,4.8-3.9,1.43-7.84,2.75-11.66,4.39-8.64,3.73-17.17,7.68-25.17,12.66-3.16,1.97-6.37,3.88-9.34,6.14-.38.29-.77.57-1.21.75-.32.13-.69.37-.96-.02-.21-.31.01-.62.22-.86.46-.55.91-1.1,1.38-1.64,3.01-3.44,6.28-6.61,9.73-9.6,2.07-1.79,4.04-3.69,6.07-5.52.12-.11.23-.22.36-.31-.16-.03-.25.1-.38.16-3.23,1.44-6.4,2.98-9.45,4.77-4.31,2.52-8.15,5.64-11.64,9.19-.34.35-.58.89-1.21.85-1.47-1.33-2.91-2.68-4.42-3.96-.74-.63.01-.78.27-1.03,12.01-11.68,26.72-18.69,42.24-24.24,11.78-4.22,23.85-7.29,36.29-8.87.44-.06.97-.43,1.11.5,2.31,15.51,3.4,30.99-.95,46.36-.51,1.79-1.14,3.54-1.71,5.31-.11.17-.21.34-.35.48-.35.37-.77.58-1.28.42-.5-.16-.61-.6-.66-1.04-.07-.63-.1-1.16-1.04-.98-1.08.2-1.44-.24-1.2-1.36.28-1.32.63-2.62.94-3.93,2-8.43,2.71-16.99,2.41-25.63-.08-2.41-.3-4.83-.51-7.24-.14-1.6-.3-1.66-1.86-1.2-.86.26-1.7.71-2.65.5-.14,0-.29.01-.43.02-.16.08-.35.05-.5.16Z"/>
  <path class="cls-33" d="M203.26,50.44c-4.09-2.49-8.2-4.97-12.64-6.82-.24-.1-.52-.13-.78-.19.12.23.21.48.36.68,3.54,4.75,6.48,9.86,9.29,15.06.23.58-.15.61-.54.58-.52-.04-.98-.31-1.44-.54-5.36-2.66-10.55-5.66-15.84-8.45-4.07-2.14-8.17-4.22-12.22-6.4-9.6-5.17-19.34-10.06-28.73-15.61-3.99-2.36-7.88-4.89-11.69-7.55-.36-.25-1.31-.46-.52-1.27.36-.1.71-.01,1.05.08,6.87,1.92,13.95,2.61,20.99,3.5,9.96,1.26,19.9,2.66,29.56,5.52.76.23,1.52.46,2.27.73,1.4.61,2.86,1.09,4.25,1.73,4.09,1.78,8.11,3.67,12.08,5.71,1.35.69,1.4.68,1.92-.74.3-.81.84-.81,1.5-.65l4.44,4.35c.75.42,1.22,1.12,1.75,1.76,1.76,2.14,3.54,4.28,5.12,6.56.39.56.72,1.14.98,1.76.14.33.33.71.04,1-.3.31-.68.09-.99-.07-.74-.38-1.48-.76-2.23-1.12-1.62-.76-3.24-1.49-4.83-2.27.01,0-.08-.04-.07-.04.01,0-.04.06-.03.06s.07.02.08.02c.06.03.11.06.16.09.06.04.12.08.17.12,0,0,.09.06.1.06.11.06.21.13.32.19.08.05.15.11.22.17.07.07.14.14.2.23.03.05.05.09.07.14.03.1.04.21.02.32-.02.05-.04.1-.05.15-.3.56-.86.65-1.41.73-.72.1-1.37.34-1.9.87-.11.04-.22.03-.32-.02-.05-.04-.11-.07-.18-.09-.12-.02-.2-.1-.28-.18h-.02c-.06-.1-.14-.15-.24-.18Z"/>
  <path class="cls-23" d="M23.26,67.04s.09-.03.12-.01c2.31,1.56,1.91-3.23,4.17-1.77.02-.24.11-.51.05-.73-3.83-12.32-4.24-24.9-2.92-37.62.08-.78.22-1.21,1.15-.89,1.2.41,2.43.7,3.64,1.05-.54,6.38-.25,12.73.8,19.04.27,1.6.54,3.2.83,4.8.05.29.2.56.31.84.18-.23.37-.46.54-.7.28-.42.55-.84.82-1.26.31.39.69.74.91,1.17,4.33,8.12,10.54,14.09,19.35,17.19,1.27.45,1.21.05,1.07-.96-.52-3.76-.39-7.51.18-11.26.04-.27.15-.53.23-.79.13.26.28.51.37.78,3.23,9.76,8.17,18.46,15.86,25.44.82.74.56.8-.22,1.39-3.61,2.72-5.77,1.14-8.28-1.9-4.83-5.86-10.29-11.09-18.36-12.22-.49-.07-.99-.03-1.49-.04.29.35.59.69.87,1.05,1.41,1.76,2.86,3.5,3.2,5.85-1.87-.02-3.74-.04-5.61-.08-1.32-.02-2.63-.07-3.95-.1.92,1.03,1.79,2.11,2.77,3.07,4.3,4.18,8.9,8.01,13.76,11.54.85.62.76.77-.13,1.26-3.31,1.83-7.14,3.08-8.44,7.3-.28.9-.79.05-1.05-.15-9.95-7.63-16.06-17.88-20.09-29.54-.19-.56-.32-1.13-.48-1.7Z"/>
  <path class="cls-27" d="M307.57,27.05c1.33-.47,2.66-.95,4-1.39.59-.19.72.17.78.69,1.49,12.88.76,25.61-2.68,38.14-.1.36-.06.76-.08,1.14.36-.08.73-.13,1.08-.24.62-.19,1.34-.52,1.19.64-.26,2.06.62,1.9,1.9,1-3.86,12.45-10.26,23.22-20.65,31.37-.22.17-.59.7-.81.07-1.46-4.08-5.25-5.39-8.57-7.24-.9-.5-.99-.72-.1-1.35,5.67-3.97,10.81-8.57,15.67-13.49.32-.32.49-.78.72-1.18-.42.02-.85.03-1.27.06-2.5.14-4.99.25-7.49.43-1.04.08-1.04-.4-.75-1.13.75-1.9,1.87-3.58,3.15-5.16.24-.3.45-.62.68-.93-.42,0-.85-.04-1.25.04-5.46.98-9.98,3.72-13.89,7.55-1.84,1.8-3.79,3.57-5.25,5.66-1.97,2.81-3.91,3.26-6.77,1.33-1.26-.85-1.65-1.05-.38-2.27,7.27-7.01,12.5-15.32,15.45-25.02.06-.21.21-.4.32-.6.1.22.28.43.3.65.36,3.8.37,7.61-.02,11.41-.1.92-.03,1.2,1.03.83,8.69-3.01,14.94-8.8,19.21-16.82.79-1.49,1.26-1.9,2.11-.15.1.21.37.35.57.52.08-.17.19-.34.23-.52,1.82-7.94,2.67-15.94,1.56-24.08Z"/>
  <path class="cls-26" d="M201.12,125.34c-.2-.57-.54-.18-.74-.05-9.06,5.74-17.71,11.98-24.78,20.15-.66.02-.96-.49-1.3-.9-1.4-1.71-2.83-3.39-4.26-5.07-1.22-1.44-1.62-1.45-2.84.03-1.45,1.77-2.98,3.47-4.42,5.25-.3.38-.54.91-1.16.89-2.88-2.9-5.63-5.95-8.67-8.67-4.77-4.27-9.87-8.14-15.19-11.71-.56-.38-1.16-1.12-1.87-.16-.77-1.17-1.54-2.35-2.31-3.52,1.24-.15,2.49-.35,3.74-.44,3.72-.27,7.44-.47,11.16-.77.95-.08,1.38.2,1.75,1.09,2.16,5.11,4.43,10.17,6.61,15.27.46,1.09.77,1.01,1.34.11,3.15-4.95,6.35-9.87,9.49-14.82.87-1.37,1.44-1.57,2.37.04,2.92,5.04,5.97,10,8.99,14.99.15.25.4.43.61.64.13-.24.28-.47.39-.72,2.44-5.29,4.89-10.57,7.29-15.88.33-.73.77-.87,1.49-.82,4.78.38,9.57.75,14.35,1.1.62.05.96.11.42.78-.84,1.05-1.64,2.13-2.46,3.19Z"/>
  <path class="cls-13" d="M206.38,48.04c-.06-.05-.13-.07-.2-.07-.1-.05-.19-.14-.29-.19h-.02c-.09-.19-.36-.13-.42-.33,2.88.35,5.17,2.11,7.76,3.17.38.16.77.29,1.16.44-.16-.39-.24-.83-.49-1.16-2.42-3.26-4.87-6.5-7.3-9.75,2.71,1.86,5.43,3.73,8.15,5.58.25.17.52.3.78.44-.08-.29-.11-.6-.24-.86-1.96-3.89-3.93-7.77-5.89-11.66-.12-.23-.16-.5-.24-.75.28.08.6.1.84.25,6.06,3.69,10.84,8.83,15.63,13.94,7.88,8.42,14.98,17.49,21.94,26.67.16.21.26.46.39.7-.21.01-.44.09-.63.02-8.2-2.87-16.71-4.51-25.19-6.25-2.97-.61-4.41-3.44-6.56-5.23-3.73-3.12-7.3-6.44-10.88-9.74-.46-.42-2.02-1.23-.04-1.88.06-.11.14-.17.27-.19,1.33.33,2.39,1.21,3.56,1.86,2.4,1.33,4.86,2.51,7.41,3.51,1.81.71,3.47,1.74,5.18,2.65.1.04.2.17.26.14.11-.04.11-.09.02-.04-.06.03-.12.01-.19-.05-4.04-2.26-7.75-5.01-11.2-8.08-.82-.72-1.84-1.25-2.35-2.3h-.01c-.11-.03-.18-.13-.27-.21h0c-.07-.08-.16-.15-.25-.21l-.02-.02c-.09-.18-.33-.11-.44-.26h0c-.07-.07-.15-.13-.24-.17Z"/>
  <path class="cls-35" d="M158.24,63.92c-18.98.46-37.71,2.75-56.11,7.55-.26.07-.54.04-.81.05l.02.02c4.44-3.25,8.89-6.5,13.33-9.75-.25-1.06.33-1.56,1.23-1.92,2.72-1.1,5.36-2.39,8.02-3.63.13-.06.31-.05.38-.23-.15-.05-.3-.01-.45,0-.9.13-1.8.28-2.7.45-.38.07-.83.23-1.13-.11-.44-.49.42-.48.38-.84,0-.07-.02-.14.03-.22.3-.35.72-.47,1.13-.61,5.15-1.78,10.37-3.35,15.68-4.58.88-.21,1.77-.42,2.68-.19,5.62,3.1,11.24,6.2,16.86,9.3-.05.62-.55.51-.89.47-5.28-.71-10.58-.88-15.9-.76-.11,0-.22-.03-.29-.12.05.14.17.12.28.12,5.93.33,11.55,1.99,17.07,4.01.47.17,1.13.25,1.19.97Z"/>
  <path class="cls-37" d="M275.9,98.72c-19.97-8.39-40.62-14.44-62.06-17.62-32.65-4.84-65.28-4.39-97.76,1.26-18.76,3.26-36.79,9.31-54.49,16.27-.63.25-1.25.5-1.88.75-.13-1.5.92-1.98,2.06-2.49,23.7-10.51,48.48-16.93,74.25-19.56,27.25-2.78,54.42-2.45,81.46,2.11,20.12,3.39,39.61,8.94,58.16,17.59.77.36,1.55.66,1.6,1.68-.43,1.26-.89.04-1.33.02Z"/>
  <path class="cls-14" d="M128.28,20.12c6.51,4.73,13.35,8.93,20.45,12.72,16.25,8.67,32.51,17.31,48.78,25.93.57.3,1.18,1.07,1.99.38,1.24,2.02,2.49,4.04,3.72,6.06.08.13.11.28.17.41-.25,0-.51,0-.76,0-8.52-.17-15.48-4.44-22.63-8.39-13.26-7.33-26.55-14.57-38.7-23.69-5.36-4.03-10.43-8.4-14.84-13.48-.3-.35-.51-.79-.77-1.18,1.14-.18,1.95.35,2.59,1.23Z"/>
  <path class="cls-16" d="M240.94,52.97c5.64-6.39,12.63-10.86,20.34-14.29.22-.1.44-.18.66-.28.95-.4,1.89-.8,2.84-1.21-.77.79-1.5,1.62-2.32,2.36-5.57,5.05-11.34,9.9-16.13,15.74-.13.16-.18.38-.27.57.38-.17.81-.28,1.15-.52,7.89-5.7,16.27-10.57,25.07-14.71,6.74-3.17,13.52-6.25,20.66-8.44.41-.12.85-.11,1.28-.17-9.46,5.21-18.69,10.75-26.38,18.51-4.9,4.95-8.68,10.6-10.95,17.21-.14.41-.13,1.13-.82.35-4.73-5.35-9.85-10.32-15.13-15.12Z"/>
  <path class="cls-16" d="M42.76,32.06c4.91.75,9.29,3.06,13.82,4.88,11.99,4.82,23.17,11.14,33.66,18.69.26.18.61.23.92.34-.15-.22-.28-.45-.44-.65-5.31-6.5-11.47-12.12-17.9-17.47-.14-.12-.22-.3-.33-.45.14.01.3-.01.43.04,8.89,3.56,16.93,8.39,23.43,15.55-5.47,4.64-10.74,9.5-15.62,14.77-.29.32-.47.46-.69-.11-5.7-15.38-17.96-24.4-31.38-32.29-1.94-1.14-3.93-2.2-5.9-3.29Z"/>
  <path class="cls-8" d="M168.99,293.27c7.3-6.87,16.39-10.88,25.07-15.48,11.66-6.17,23.63-11.71,35.81-16.78.25-.1.54-.12.81-.17-.2.18-.4.36-.6.54-6.01,5.42-13.3,8.57-20.59,11.77-4.23,1.86-6.95,5.69-10.4,8.56-7.72,6.44-15.44,12.87-23.49,18.89-2.22,1.66-4.42,3.34-6.62,5-.49-.46-.45-1.07-.45-1.66-.01-3-.01-6.01,0-9.01,0-.59,0-1.2.47-1.66Z"/>
  <path class="cls-25" d="M204.01,106.08c.31,0,.62,0,.94,0,.25.09.6.12.56.49-.04.43-.42.61-.76.63-1.51.12-2.88.86-4.39.94-.15,0-.38-.04-.41.1-.02.1.25.09.39.12.67.12,1.31.32,1.85.75.56.45,1.2.25,1.82.23.85-.02,1.77-.09,2.12,1-15.85-1.51-31.75-1.51-47.65-1.41-14.37.09-28.66,1.4-42.91,3.02-2.58.29-4.31-.52-5.89-2.28,4.43-.71,8.84-1.57,13.28-2.12,15.16-1.86,30.38-3.15,45.67-2.85,11.31.22,22.65.1,33.93,1.13.45.29.99-.06,1.44.22Z"/>
  <path class="cls-9" d="M168.99,293.27c0,4.11-.01,8.22-.02,12.33-.34.64-.68.28-1.03,0-9.17-7.38-18.35-14.76-27.52-22.14-.08-.07-.16-.14-.24-.22h0c-.08-.09-.16-.17-.27-.22-.15-.1-.3-.2-.44-.3-.09-.05-.15-.11-.2-.2l-.03-.03c-.09-.05-.16-.12-.22-.21l-.02-.02c-.09-.06-.16-.13-.23-.22h0c-.08-.08-.16-.16-.25-.23h0c-.07-.1-.16-.18-.28-.22-.07-.01-.13-.04-.19-.08-.09-.04-.16-.11-.2-.19l-.03-.02c-.09-.06-.17-.13-.24-.21h0c-.08-.08-.15-.17-.25-.23h0c-.07-.09-.14-.18-.25-.23h0c-.06-.1-.14-.18-.25-.23h0c-.24-.66.24-.73.68-.79.55-.07,1,.2,1.42.5,1.1.78,2.26,1.47,3.38,2.22.13.09.3.23.43.14.15-.1.03-.29-.02-.43-.26-.72-.29-1.48-.33-2.23-.04-.7.35-.92.98-.81.67.12,1.26.46,1.88.72,2.23.94,4.45,1.89,6.52,3.17.82.51,1.55,1.1,2.23,1.76.09.08.16.18.22.28-.04-.08-.11-.15-.16-.22-.44-.66-.87-1.33-1.33-1.97-.36-.5-.3-.56.34-.72,2.86,1.6,5.75,3.16,8.28,5.29.15.13.52.26.53.24.6-.98.87.11,1.05.26,2.06,1.77,4.06,3.61,6.07,5.43Z"/>
  <path class="cls-32" d="M54.67,115.35c-.46,1.8.51,1.63,1.69,1.26,11.53-3.66,23.29-6.36,35.19-8.47,3.25-.58,6.55-.9,9.83-1.34-.18,1.69-.38,3.39-.51,5.08-.06.79-.56.81-1.14.88-15.76,2.06-31.2,5.57-46.43,10.05-.25.07-.53.06-.79.08.01-.26-.03-.53.04-.77.7-2.26,1.42-4.52,2.13-6.78Z"/>
  <path class="cls-29" d="M235.42,105.14c1.14,3.41,4.32,2.09,6.51,2.49,8.84,1.64,17.7,3.19,26.37,5.6,4.45,1.24,8.8,2.8,13.24,4.08,1.7.49.07-1.5,1.04-1.7.68,2.19,1.44,4.35,2.01,6.57.34,1.34-.79.55-1.08.47-9.54-2.81-19.17-5.3-28.94-7.18-5.67-1.09-11.39-1.99-17.1-2.88-.94-.15-1.25-.38-1.32-1.34-.16-2.05-.48-4.08-.74-6.11Z"/>
  <path class="cls-46" d="M128.28,20.12c-.86-.41-1.73-.82-2.59-1.23-.14-.22-.28-.44-.41-.66.18-.03.37-.11.54-.09,19.72,2.81,39.79,2.87,59.27,7.56.11.03.22.09.33.14.51,1.77-.9,3.89-2.88,4.32-15.69-5.12-32.18-5.71-48.26-8.62-2.02-.37-3.99-.94-5.99-1.42Z"/>
  <path class="cls-11" d="M153.06,282.04c.56,1.06,1.13,2.12,1.68,3.19.15.29.21.61.31.92-.24-.18-.53-.33-.73-.56-2.94-3.35-7.13-4.52-10.99-6.24-.16-.07-.37-.03-.56-.04.08.85.13,1.7.25,2.54.07.48.24.95.37,1.43-.46-.22-.94-.39-1.36-.66-1.19-.77-2.36-1.58-3.55-2.36-.58-.38-1.19-.72-1.67.16-5.9-6.82-14.47-9.26-21.96-13.48-2.78-1.56-5.25-3.67-7.86-5.54-.15-.11-.27-.25-.4-.37.18.03.37.04.54.11,10.23,4.59,20.47,9.16,30.68,13.79,5.11,2.32,10.18,4.74,15.27,7.12Z"/>
  <path class="cls-38" d="M303.77,202.32c-4.13-2.29-8.31-4.51-12.39-6.89-2.66-1.55-5.18-3.32-7.76-5-.22-.15-.4-.36-.6-.55.28-.07.55-.2.83-.2,3.38-.07,6.77-.62,10.15-.01,4.26,3.59,8.52,7.18,12.76,10.79.38.32.66.75.99,1.14-.47.12-.94.27-1.42.35-.85.15-1.71.26-2.57.38Z"/>
  <path class="cls-46" d="M43.5,189.91c2.56-1.36,5.2.14,7.8-.22.87-.12,1.78.06,2.67.11-.64.56-1.23,1.19-1.93,1.67-5.85,4.02-11.84,7.82-18.32,10.78-.14.06-.31.04-.46.06-1.3-.22-2.61-.45-3.91-.67.9-.91,1.73-1.91,2.72-2.71,3.78-3.04,7.62-6.02,11.43-9.02Z"/>
  <path class="cls-20" d="M139.91,49.91c-6.64,1.44-13.15,3.32-19.53,5.65-.04.17-.2.18-.32.24-.18.06-.35.16-.52.22-.09.04-.18.06-.27.09-.19.06-.37.12-.55.19-.1.04-.19.07-.29.09-.21.04-.43.09-.64,0-.1-.06-.18-.14-.25-.23-1.03-1.17-.64-2.61-.78-3.95,2.38-.95,4.76-1.89,7.13-2.85.58-.23,1.14-.5,1.71-.75-.54-.12-1.09-.24-1.63-.36,1.72-.67,3.46-1.27,5.23-1.78,1.3-.37,2.59-.74,3.87-1.17l6.86,4.61Z"/>
  <path class="cls-24" d="M206.13,110.36c-2.13-.55-4.27-1.1-6.4-1.67-.36-.1-.7-.28-1.05-.42.36-.17.71-.42,1.1-.49,1.63-.34,3.28-.65,4.92-.92.69-.11.7-.34.24-.77.15-.16.3-.31.45-.47.07,0,.13,0,.2-.01.13,0,.26.02.39.06,2.16.71,4.44.59,6.66.95,1.6.26,3.23.19,4.81.56.19.05.37.13.53.25.09.1.18.19.27.28,1.35.25,2.74.37,4.04.78,3.14,1.01,5.88.4,8.36-1.68-4.38,6.18-10.49,5.68-16.86,4.47-2.52-.48-5.11-.62-7.67-.91Z"/>
  <path class="cls-48" d="M133.06,45.3c-.08.18-.12.48-.24.52-2.95.83-5.9,1.63-8.86,2.44-5.67.04-11.34.08-17,.11-.19,0-.37-.03-.56-.04.3-.22.57-.51.9-.64,6.6-2.47,13.43-3.94,20.39-4.97,2.57-.38,3.67,1.57,5.37,2.58Z"/>
  <path class="cls-21" d="M202.13,35.81c-.32.35-1.15-.1-1.16.69-.01,2.49-1.28,1.59-2.52.99-3.94-1.91-7.89-3.8-11.84-5.69.34-1.21,1.11-2,2.27-2.5,1.25-.54,2.3-1.31,2.52-2.8,3.65,2.68,6.98,5.71,10.23,8.85.07.09.13.19.25.23h0c.05.11.11.21.25.22h.01Z"/>
  <path class="cls-4" d="M116.75,52.22l1.03,4.05c-.31.68-1,.73-1.58.93-4.2,1.44-8.27,3.22-12.31,5.06-2.25,1.1-4.5,2.2-6.7,3.38-.77.48-1.56.94-2.37,1.34-.35.17-.86.58-1.11-.19v-.02c.11-.06.18-.13.24-.23h.01c.09-.07.16-.15.22-.24,6.29-5.88,13.55-10.22,21.43-13.58.34-.12.7-.2.99-.44.03-.07.08-.09.15-.06Z"/>
  <path class="cls-12" d="M93.72,66.79c1.39.16,2.17-1.14,3.38-1.41.53,0,.99.25,1.42.51,1.3.79,1.51,1.73.74,3.1-4.45,4.12-9.66,6.74-15.62,7.86-.14.03-.28.02-.42.02.08-.13.13-.29.24-.39,3.42-3.23,6.84-6.46,10.26-9.68Z"/>
  <path class="cls-46" d="M45.57,211.3c2.78-1.56,5.92-.06,8.8-1,.4-.13.09.42-.06.54-3.9,3.21-7.76,6.47-11.78,9.52-.69.53-2.06.15-3.12.2.02-.38.03-.75.05-1.13,2.04-2.71,4.08-5.42,6.11-8.13Z"/>
  <path class="cls-47" d="M298.46,220.62c-5.01.66-7.43-3.51-10.83-5.84-1.35-.93-2.46-2.22-3.68-3.35-.31-.29-.62-.58-.93-.87.44-.06.9-.21,1.33-.16,2.53.28,5.05.6,7.57.91,2.32,3,4.76,5.92,6.54,9.31Z"/>
  <path class="cls-5" d="M103.74,62.03c4.51-2.35,9.25-4.13,14.04-5.76.07.03.15.03.22.02.15-.1.36-.06.5-.18.07-.02.15-.04.22-.05.15-.11.35-.07.5-.18.07-.02.15-.04.23-.05.14-.13.33-.09.49-.17.15-.03.29-.07.44-.1.05,1,.78.5,1.18.45,1.31-.15,2.58-.66,3.93-.27-1.08.57-2.14,1.18-3.25,1.7-2.08.96-4.14,2-6.29,2.74-.97.33-.73,1.18-1.26,1.62-2.63.01-4.71,1.61-7.07,2.42-.11.04-.2.11-.29.18-.05.04-.11.06-.18.06-.12.03-.21.11-.3.19-.05.04-.1.06-.16.06-.13.02-.22.11-.32.19h-.01c-.12.15-.34.1-.46.25h0c-.06.08-.14.13-.23.17-.06.05-.14.08-.22.08-.08.06-.17.12-.26.17-.06.05-.13.07-.21.08-.3-.41-.36-.48,0-.78.84-.7.64-1.2-.17-1.73-.42-.27-.86-.58-1.06-1.09Z"/>
  <path class="cls-31" d="M158.24,63.92c-5.81-2.53-11.93-3.87-18.17-4.76-.34-.05-.66-.2-.99-.31.31-.06.63-.17.94-.19,5.39-.28,10.76-.19,16.1.7.21.03.44-.09.66-.14,2.88,1.46,5.77,2.91,8.65,4.38.15.08.26.22.39.33-.15.02-.31.06-.46.06-2.37-.02-4.75-.04-7.12-.06Z"/>
  <path class="cls-51" d="M191.4,26.49c.53.67.25,1.12-.3,1.67-1.37,1.38-3.48,1.82-4.49,3.63-1.36-.55-2.72-1.09-4.08-1.64,1.65-.98,2.64-2.4,2.88-4.32.61,0,.71-.1.28-.65-1.17-1.49-2.26-3.06-3.37-4.6-.13-.18-.18-.41-.27-.62.2.06.45.06.61.18,2.92,2.11,5.83,4.23,8.74,6.35Z"/>
  <path class="cls-43" d="M69.14,222.96c.84.08,1.69.17,2.53.25-.69.56-1.34,1.19-2.09,1.67-2.82,1.83-5.68,3.61-8.52,5.41-.26.16-.47.39-.71.59.25.14.5.29.76.43-1.34.14-2.68.27-4.03.41.92-1.01,1.8-2.05,2.77-3.01,2.65-2.62,5.77-4.5,9.28-5.76Z"/>
  <path class="cls-50" d="M277.09,231.32c.94-.49.34-.72-.15-1.01-2.83-1.65-5.68-3.27-8.47-4.99-.8-.5-1.42-1.3-2.12-1.96.88-.04,1.76-.07,2.64-.11,4.16,1.47,7.5,4.12,10.48,7.3.34.36.64.77.96,1.15-.49-.03-.98-.05-1.47-.1-.63-.07-1.25-.18-1.87-.27Z"/>
  <path class="cls-6" d="M103.74,62.03c1.6.8,3.16,1.61,1.22,3.6-1.9,1.12-3.8,2.23-5.71,3.35.73-2.07-.87-2.75-2.16-3.6,2.22-1.12,4.43-2.23,6.65-3.35Z"/>
  <path class="cls-22" d="M275.9,98.72c.44-.24.9.8,1.33-.02.25.83.49,1.66.74,2.48.32,1.08.65,2.16.97,3.23-1.13-.31-2.27-.57-3.38-.92-12.91-4.04-25.82-8.1-38.74-12.15,4.1.18,7.84,1.84,11.7,2.95,5.51,1.59,10.96,3.39,16.43,5.13,3.95,1.25,7.88,2.56,11.82,3.83.32.1.67.1,1.01.15-.04-.32,0-.67-.13-.95-.56-1.25-1.17-2.49-1.76-3.73Z"/>
  <path class="cls-17" d="M58.5,102.98c1.75,1.58,3.29-.03,4.79-.47,5.8-1.71,11.53-3.67,17.3-5.49,3.44-1.09,6.9-2.1,10.36-3.12.27-.08.6.03.9.06-11.04,3.54-22.08,7.09-33.13,10.63-.21.07-.45.03-.67.04.15-.55.3-1.09.45-1.64Z"/>
  <path class="cls-29" d="M282.35,114.62c-1.06.36-1.06-.85-1.68-1.13.72.15,1.59.06,1.68,1.13Z"/>
  <path class="cls-24" d="M232.35,105.4c.7-.57,1.4-1.14,2.1-1.71-.7.57-1.4,1.14-2.1,1.71Z"/>
  <path class="cls-24" d="M231.17,106.35c.13-.48.36-.82.93-.73-.31.24-.62.49-.93.73Z"/>
  <path class="cls-20" d="M116.61,52.28c-.33.15-.66.3-.99.44.33-.15.66-.3.99-.44Z"/>
  <path class="cls-29" d="M282.58,115.59c-.07-.31-.15-.62-.22-.93.07.31.15.62.22.93Z"/>
  <path class="cls-19" d="M25.59,184c.25.07.5.13.75.2-.25-.07-.5-.13-.75-.2Z"/>
  <path class="cls-25" d="M109.23,109.42c.15.09.3.18.45.27-.15-.09-.3-.18-.45-.27Z"/>
  <path class="cls-27" d="M306.64,27.23c.17-.05.34-.11.5-.16-.17.05-.34.11-.5.16Z"/>
  <path class="cls-6" d="M105.89,65.13c.15-.08.31-.16.46-.24-.15.08-.31.16-.46.24Z"/>
  <path class="cls-26" d="M200.65,126.07c.09-.14.19-.29.28-.43-.09.14-.19.29-.28.43Z"/>
  <path class="cls-13" d="M204.64,51.4c-.15-.09-.3-.18-.45-.27.04-.04.07-.09.11-.13.25-.04.46-.02.42.32l-.08.09Z"/>
  <path class="cls-26" d="M200.45,126.36c.07-.09.13-.19.2-.28-.07.09-.13.19-.2.28Z"/>
  <path class="cls-26" d="M200.93,125.64c.06-.09.12-.18.18-.28-.06.09-.12.18-.18.28Z"/>
  <path class="cls-33" d="M202.12,35.8c-.08-.07-.16-.15-.25-.22.08.07.16.15.25.22Z"/>
  <path class="cls-33" d="M201.87,35.57c-.08-.08-.16-.15-.25-.23.08.08.16.15.25.23Z"/>
  <path class="cls-25" d="M108.94,109.21c.09.07.18.14.28.21-.09-.07-.18-.14-.28-.21Z"/>
  <path class="cls-24" d="M230.92,106.58c.08-.08.16-.15.24-.23-.08.08-.16.15-.24.23Z"/>
  <path class="cls-24" d="M232.1,105.62c.09-.07.17-.15.26-.22-.09.07-.17.15-.26.22Z"/>
  <path class="cls-13" d="M203.26,50.44c.08.06.16.11.24.17-.08-.06-.16-.11-.24-.17Z"/>
  <path class="cls-13" d="M203.52,50.62c.09.06.19.12.28.18-.09-.06-.19-.12-.28-.18Z"/>
  <path class="cls-35" d="M101.33,71.52s.01.01.02.02c0,0-.02-.02-.02-.02Z"/>
  <path class="cls-13" d="M203.98,50.88c.08,0,.16,0,.24,0l.09.07-.04.1s-.08.08-.08.08c-.07-.08-.14-.16-.2-.24Z"/>
  <path class="cls-12" d="M93.95,66.55c-.07.08-.15.15-.22.23.07-.08.15-.15.22-.23Z"/>
  <path class="cls-12" d="M94.18,66.3c-.07.08-.14.15-.22.23.07-.08.14-.15.22-.23Z"/>
  <path class="cls-6" d="M105.17,65.55c.09-.06.17-.12.26-.17-.09.06-.17.12-.26.17Z"/>
  <path class="cls-6" d="M105.65,65.3c.08-.06.16-.11.23-.17-.08.06-.16.11-.23.17Z"/>
  <path class="cls-6" d="M106.36,64.88c.1-.06.21-.13.31-.19-.1.06-.21.13-.31.19Z"/>
  <path class="cls-6" d="M106.84,64.63c.1-.06.2-.12.3-.19-.1.06-.2.12-.3.19Z"/>
  <path class="cls-6" d="M107.32,64.38c.1-.06.19-.12.29-.18-.1.06-.19.12-.29.18Z"/>
  <path class="cls-11" d="M136.82,280.41c.08.08.16.16.25.24-.08-.08-.16-.16-.25-.24Z"/>
  <path class="cls-11" d="M137.06,280.64c.08.08.16.16.25.24-.08-.08-.16-.16-.25-.24Z"/>
  <path class="cls-11" d="M137.3,280.88c.08.07.17.15.25.22-.08-.07-.17-.15-.25-.22Z"/>
  <path class="cls-11" d="M137.56,281.11c.08.07.16.14.24.21-.08-.07-.16-.14-.24-.21Z"/>
  <path class="cls-11" d="M137.83,281.33c.07.06.14.13.2.19-.07-.06-.14-.13-.2-.19Z"/>
  <path class="cls-11" d="M138.22,281.61c.09.08.19.15.28.23-.09-.08-.19-.15-.28-.23Z"/>
  <path class="cls-11" d="M138.5,281.83c.08.07.17.14.25.22-.08-.07-.17-.14-.25-.22Z"/>
  <path class="cls-11" d="M138.76,282.06c.08.07.16.14.23.22-.08-.07-.16-.14-.23-.22Z"/>
  <path class="cls-11" d="M139.01,282.29c.07.07.15.14.22.21-.07-.07-.15-.14-.22-.21Z"/>
  <path class="cls-11" d="M139.26,282.52c.07.07.13.13.2.2-.07-.07-.13-.13-.2-.2Z"/>
  <path class="cls-11" d="M139.9,283.03c.09.07.18.15.27.22-.09-.07-.18-.15-.27-.22Z"/>
  <path class="cls-11" d="M140.17,283.25c.08.07.16.15.24.22-.08-.07-.16-.15-.24-.22Z"/>
  <path class="cls-24" d="M230.67,106.8c.08-.07.17-.14.25-.21-.08.07-.17.14-.25.21Z"/>
  <path class="cls-1" d="M161.62,145.63c1.99-2.35,4-4.69,5.98-7.06.76-.91,1.36-.95,2.15.01,1.91,2.32,3.9,4.57,5.85,6.85,4.39,5.63,8.78,11.25,13.15,16.88.52.68.91.15,1.31-.06,18.65-9.64,37.33-19.24,55.9-29.03,2.36-1.24,4.04-.59,5.93.36,9.06,4.55,18.1,9.14,27.15,13.72.15.08.27.24.4.36-.21.1-.42.22-.64.3-6.07,2.2-12.13,4.39-18.19,6.6-.3.11-.56.34-.85.52.21.17.39.38.62.51,10.32,6.05,20.65,12.08,30.97,18.12-.43.09-.87.26-1.3.26-6.55,0-13.09-.03-19.64-.04-.33,0-.66.11-.99.17.22.26.4.56.65.79,3.94,3.63,7.88,7.25,11.82,10.88.19.17.33.4.49.6-.26.04-.52.12-.78.13-6.5.18-13.01.35-19.51.52-.35,0-.69.09-1.03.14.21.3.38.64.63.9,4.46,4.57,8.93,9.13,13.39,13.7.18.18.3.42.44.63-.26.03-.53.09-.79.08-3.96-.17-7.93-.35-11.89-.51-.28-.01-.57.12-.85.19.14.23.25.48.42.69,3.29,4.07,6.6,8.13,9.89,12.2.16.2.26.44.39.67-.26.03-.52.08-.78.07-10.75-.24-21.5-.49-32.25-.73-.3,0-.61.08-.92.12.11.32.15.69.34.96,2.83,4.17,5.67,8.32,8.51,12.48.2.29.33.62.5.92-.33-.02-.67,0-1-.06-1.91-.33-3.82-.67-5.72-1.01-.55.29-1.09.06-1.62-.04-5.66-1.07-11.01-3.05-16.13-5.61-10.93-5.45-21.17-12.01-30.92-19.35-7.61-5.72-15.18-11.49-22.59-17.46-1.57-1.26-1.54-1.21-3.07.02-10.35,8.27-20.59,16.69-31.64,24.02-7.04,4.67-14.17,9.2-21.83,12.83-5.25,2.49-10.7,4.42-16.41,5.58-.43.09-.86.15-1.29-.03-2.02.37-4.05.75-6.07,1.12-.27.05-.54.05-.81.07.11-.27.18-.56.34-.8,2.75-4.17,5.51-8.33,8.26-12.51.21-.31.31-.7.46-1.05-.38-.04-.76-.12-1.13-.11-10.27.23-20.54.46-30.82.69-.33,0-.67-.09-1-.14.14-.31.24-.66.44-.93,3.08-3.98,6.19-7.95,9.27-11.93.21-.27.32-.61.48-.91-.34-.02-.68-.08-1.01-.06-3.96.25-7.91.52-11.87.77-.18.01-.36-.04-.54-.07.17-.29.3-.64.53-.88,4.45-4.58,8.92-9.14,13.38-13.71.24-.25.43-.54.64-.81-.33-.06-.67-.16-1-.17-6.5-.16-13.01-.32-19.51-.48-.3,0-.59-.09-.89-.14.19-.28.34-.61.58-.83,3.84-3.5,7.69-6.99,11.53-10.49.31-.28.56-.64.83-.97-.41-.06-.82-.17-1.23-.17-7.02-.02-14.04-.02-21.06-.03h0c-.08-.03-.1-.07-.08-.11.02-.05.04-.07.07-.07h0c.06-.09.13-.18.21-.25,10.41-5.98,20.81-11.96,31.22-17.95.22-.13.4-.35.6-.52-.21-.1-.42-.22-.64-.3-6.21-2.27-12.42-4.53-18.62-6.8-.21-.08-.42-.19-.63-.29.13-.12.24-.28.39-.36,9.81-5.18,19.65-10.28,29.78-14.8.85-.38,1.46-.02,2.11.32,19.01,9.79,38.02,19.59,57.03,29.4.53.28.92.53,1.41-.09,4.36-5.5,8.74-10.97,13.11-16.46Z"/>
  <path class="cls-38" d="M95.87,228.45c22.65-5.06,40.3-19.06,58.19-32.61,4.65-3.52,9.15-7.22,13.69-10.88.69-.56,1.07-.41,1.7.08,15.35,12.02,30.44,24.41,47.56,33.97,7.7,4.29,15.66,7.78,24.35,9.49.08.26,1.25.32.09.81-14.15,5.97-28.27,12.01-42.44,17.94-2.4,1.01-4.95,1.65-7.43,2.46-.36.58-.98.62-1.55.76-5.08,1.23-9.84.43-14.28-2.3-1.82-1.12-3.68-2.2-4.98-3.96-.1-.74.49-.94.97-1.17,3.21-1.48,5.63-3.88,7.72-6.67,1.82-1.46,3.82-2.72,5.48-4.37,3.8-3.79,7.38-7.76,9.47-12.82.59-1.42.85-2.91.54-4.42-.32-1.53-1.14-2.77-2.53-3.58-.93-.54-1.94-.89-2.89-1.4-.2-.12-.38-.26-.53-.43-.07-.09-.12-.19-.16-.3-.45-1.04-1.25-1.82-2.03-2.61-2.23-2.26-4.68-4.26-7.24-6.14-3.35-2.46-6.71-4.91-9.96-7.5-.87-.69-1.5-.71-2.37.02-5.15,4.26-10.56,8.22-15.46,12.79-1.19,1.11-2.37,2.23-3.01,3.77-.6.58-1.41.68-2.15.94-3.76,1.33-5.25,4.38-4.01,8.2.64,1.98,1.69,3.74,2.81,5.47.73,1.13,1.55,2.2,2.18,3.39,1.33,4.12,3.07,8.04,6.3,11.02,3.17,2.92,6.95,4.8,11.22,5.64.39.08.8.06,1.07.43.05.12.06.24.03.37-.03.13-.08.24-.15.36-2.96,2.61-6.36,4.37-10.2,5.34-3.16.8-6.29.46-9.41-.2-.42-.09-.87-.17-1.05-.66-16.96-5.36-32.57-13.98-49.15-20.26-.54-.2-1.03-.36-.38-.99Z"/>
  <path class="cls-1" d="M145.4,249.69c7.74,2.28,14.45.18,20.52-4.75.05-.11.11-.21.24-.23h0c.55-1.13,1.23-2.18,1.04-3.56-.11-.8-.34-1.21-1.17-1.34-5.64-.93-10.32-3.71-14.43-7.57-1.56-1.46-3.26-2.79-4.29-4.74-2.04-2.96-4.23-5.83-5.25-9.35-1.23-4.24.66-6.75,6.68-8.95.57-.64,1.4-.66,2.15-.81.96-.19,1.91-.4,2.89-.52.38.04.75-.03,1.12-.15.19-.05.38-.07.57-.06.34.03.75,0,.86.39.11.39-.31.45-.54.62-.17.07-.35.12-.54.14-.3,0-.58.12-.87.19-2.33.58-4.67,1.13-6.94,1.93-1.28.45-2.28,1.24-2.82,2.51-.17.39-.38.87-.06,1.23.3.34.74.06,1.11-.02.5-.11.97-.33,1.5-.34,8.02-1.39,16.12-.99,24.2-1.05,3.5-.03,6.82-.88,10.08-2.08.91-.49,1.2-1.42,1.58-2.28.52-1.17.86-1.41,2.1-1.07,1.31.35,2.74.4,3.83,1.37h.02c.14.12.34.08.48.18,6.76,3.27,7.71,6.18,3.86,12.8-3.4,5.84-7.98,10.63-13.64,14.35-1.57,1.68-3.73,2.11-5.81,2.68-.95.26-1.9.53-2.89.58-.95.05-1.13.6-1.13,1.43,0,1.05.74,1.8,1.01,2.74,5.9,5.54,12.59,8.23,20.72,5.72.05,2.29.16,4.58.12,6.87-.02.89-.98.8-1.58.94-7.81,1.81-14.67-.12-20.63-5.38-.71-.63-1.12-.65-1.86,0-5.99,5.21-12.89,7.01-20.69,5.4-1.24-.26-1.85-.67-1.72-2.06.17-1.92.12-3.85.17-5.77Z"/>
  <path class="cls-49" d="M162.31,263.74c5.96,0,11.92,0,17.88,0,.15,0,.3.05.45.07-.11.14-.18.34-.32.41-3.68,1.93-7.3,3.98-11.08,5.69-1.41.64-2.85-.67-4.17-1.29-2.69-1.25-5.29-2.69-7.93-4.06-.2-.11-.37-.27-.56-.41.24-.07.48-.19.72-.19,1.66-.02,3.33,0,4.99,0,0-.07,0-.15,0-.22Z"/>
  <path class="cls-41" d="M159.17,84.17c5.94-1.89,11.11,1.41,15.89,6.48,3.11,3.29,6.87,5.97,10.33,8.93.2.17.37.37.56.56-.25.06-.5.18-.76.18-5.99.02-11.97.04-17.96.01-.47,0-1.03-.21-1.38-.51-5.74-4.87-11.45-9.77-17.16-14.67-.25-.22-.43-.53-.64-.8.33-.06.66-.18.99-.18,2.93-.01,5.87,0,10.12,0Z"/>
  <path class="cls-44" d="M218.25,107.7c-.07,0-.14,0-.21,0-.08-.04-.15-.09-.23-.13-3.64-.39-7.28-.77-10.92-1.2-.44-.05-.84-.36-1.26-.54-.07-.07-.14-.14-.22-.19,0,0-.02-.02-.02-.02-5.5-5.55-11.01-11.1-16.51-16.65-.3-.31-.56-.65-.84-.98.24-.63.83-.69,1.36-.79,1.55-.32,3.1-.63,4.68-.76,1.43.24,2.69-.4,3.98-.83,6.49,6.94,12.98,13.88,19.46,20.83.32.35.49.84.73,1.27Z"/>
  <path class="cls-40" d="M194.23,86.8c-2.06.4-4.12.79-6.18,1.19,0,0,0,0,0,0-.07-.08-.15-.13-.25-.16-.99-1.06-1.99-2.12-2.98-3.18,1.56-.03,3.12-.11,4.67-.06,2.06.06,4.11.23,6.16.36.6.69.5,1.24-.28,1.62-.37.18-.8,0-1.14.24Z"/>
  <path class="cls-42" d="M194.23,86.8c.64-.5,2.08-.38,1.42-1.87.86.04,1.77-.11,2.42.67-.96,1.41-2.46,1.11-3.84,1.2Z"/>
  <path class="cls-24" d="M204.01,106.08c-.48-.07-.96-.15-1.44-.22.48.07.96.15,1.44.22Z"/>
  <path class="cls-44" d="M187.79,87.82c.08.05.17.11.25.16-.08-.05-.17-.11-.25-.16Z"/>
  <path class="cls-19" d="M45.87,173.48c-.07.09-.14.17-.21.26.07-.09.14-.17.21-.26Z"/>
  <path class="cls-19" d="M45.67,173.73c.04.06.05.12.02.19-.04-.05-.08-.09-.11-.14.03-.02.06-.03.1-.05Z"/>
  <path class="cls-1" d="M221.34,131.07s-.03.09-.04.13c0-.03-.02-.05-.03-.08.03,0,.07-.02.1-.02,0,0-.03-.02-.03-.02Z"/>
  <path class="cls-10" d="M204.27,51.04c-.03-.05-.04-.11-.05-.17.22-1.41,1.47-.9,2.28-1.24.4-.17.74-.48,1.1-.73,4.59,3.5,9.18,7.01,13.76,10.51h.01c-5.7-2.42-11.4-4.82-16.67-8.1-.15-.09-.3-.18-.44-.27Z"/>
  <path class="cls-10" d="M206.62,48.21c.15.09.29.17.44.26-.15-.09-.29-.17-.44-.26Z"/>
  <path class="cls-10" d="M205.44,47.44c.14.11.28.21.42.32-.14-.11-.28-.21-.42-.32Z"/>
  <path class="cls-10" d="M205.89,47.78c.1.06.19.13.29.19-.1-.06-.19-.13-.29-.19Z"/>
  <path class="cls-10" d="M206.38,48.04c.08.06.16.12.24.17-.08-.06-.16-.12-.24-.17Z"/>
  <path class="cls-10" d="M207.08,48.49c.08.07.16.14.25.2-.08-.07-.17-.14-.25-.2Z"/>
  <path class="cls-10" d="M207.33,48.7c.09.07.18.15.27.22-.09-.07-.18-.15-.27-.22Z"/>
  <path class="cls-2" d="M29.26,62.08c.23.35.31.47.39.61,1.67,2.86,3.34,5.71,4.98,8.59.17.29.1.72.14,1.09-.29-.17-.62-.29-.86-.51-2.55-2.41-4.06-5.38-4.65-8.83-.04-.23,0-.47,0-.94Z"/>
  <path class="cls-45" d="M307.76,62.42c-.49,4.03-2.29,7.22-4.98,9.94-.12.12-.35.13-.54.19.02-.22-.03-.47.06-.65,1.68-3.14,3.38-6.27,5.08-9.39.06-.11.22-.16.33-.23.03.11.06.22.04.15Z"/>
  <polygon class="cls-10" points="221.37 59.42 221.43 59.48 221.38 59.41 221.37 59.42"/>
  <path class="cls-35" d="M118.51,56.1c-.17.06-.33.12-.5.18.17-.06.33-.12.5-.18Z"/>
  <path class="cls-35" d="M119.23,55.88c-.17.06-.33.12-.5.18.17-.06.33-.12.5-.18Z"/>
  <path class="cls-35" d="M119.94,55.66c-.16.06-.33.12-.49.17.16-.06.33-.12.49-.17Z"/>
  <path class="cls-3" d="M217.82,107.57c.08.04.15.09.23.13-.08-.04-.15-.09-.23-.13Z"/>
  <path class="cls-3" d="M205.42,105.63c.07.06.15.13.22.19-.07-.06-.15-.13-.22-.19Z"/>
  <path class="cls-39" d="M222.56,202.79c-12.21.04-22.9-8.86-24.39-20.45-.63-4.85,1.76-8.54,5.1-11.75.1-.1.26-.14.39-.2-.04.27-.04.55-.11.8-3.53,12.57,3.92,24.42,16.77,26.15,7.19.97,13.29-1.7,17.92-7.32,4.57-5.54,5.21-11.8,2.85-18.47-.42-1.19-.82-.17-1.1.04-3.27,2.38-6.76,3.48-10.71,1.88-3.34-1.36-5.41-3.83-5.99-7.4-.58-3.56,1.3-7.06,4.64-8.91,3.57-1.98,8.64-1.46,11.73,1.19,7.41,6.37,10.53,18.4,7.14,27.56-3.86,10.44-13.06,16.85-24.23,16.88Z"/>
  <path class="cls-38" d="M89.09,174.91c.1-4.69,2.83-10.92,7.77-16.07,3.67-3.84,10.51-3.83,14.07-.36,3.47,3.39,3.63,8.86.36,12.61-3.31,3.79-9.48,4.15-13.79.72-.94-.75-1.38-1.08-1.8.46-2.29,8.4.19,16.46,6.6,21.18,6.91,5.09,15.96,5.45,22.87.92,7.49-4.91,10.71-13.11,8.72-22.17-.13-.57-.2-1.15-.3-1.73.44.38.92.71,1.31,1.13,6.02,6.4,5.69,14.17-.91,22.13-6.7,8.08-18.34,11.3-28.03,7.76-10.11-3.7-16.95-13.43-16.89-26.58Z"/>
  <path class="cls-34" d="M168.25,165.58c-4.05,3.42-8.13,6.82-12.14,10.28-.94.81-1,.5-1.4-.47-2.09-5.02,1.5-8.28,3.76-11.79,3.12-4.86,6.69-9.44,10.06-14.14.68.27.61.9.69,1.45.31,2,.24,4.01.24,6.02,0,2.37.02,4.74-.01,7.11-.01.8-.16,1.52-1.19,1.54Z"/>
  <path class="cls-7" d="M168.25,165.58c.24-.24.75-.13.73-.74-.11-5.03-.17-10.07-.26-15.1,0-.09-.13-.19-.2-.28,1.33.29,1.63,1.58,2.24,2.47,3.89,5.62,7.87,11.18,11.36,17.09,1.52,2.57.66,4.77-.18,7.11-.22.62-.47.22-.75-.02-3.74-3.29-7.47-6.59-11.24-9.83-.44-.38-1.13-.46-1.7-.68Z"/>
  <path class="cls-48" d="M120.34,168.88c.21-1.98,1.2-3.24,3.17-3.2,1.9.04,3.12,1.16,3.11,3.15,0,2.03-1.16,3.19-3.18,3.19-2.03,0-2.86-1.35-3.11-3.15Z"/>
  <path class="cls-48" d="M216.92,168.79c-.14,1.99-1.16,3.18-3.13,3.19-2.04.01-3.16-1.27-3.17-3.23-.01-1.93,1.25-3,3.1-3.03,1.95-.03,3,1.16,3.2,3.07Z"/>
  <path class="cls-18" d="M153.99,208.23c-1.74.32-3.49.65-5.23.97.14-1.81,1.57-2.76,2.74-3.75,5.4-4.58,10.89-9.04,16.35-13.56.36-.3.66-.37,1.04-.06,6.6,5.47,14.22,9.69,19.89,16.29.28.33.86.6.18,1.09-.15-.02-.34.02-.46-.05-3.02-1.7-5.25-1.01-6.68,2.17-.78.2-.63-.36-.54-.74.17-.77.27-1.57.66-2.27.29-.53.08-.68-.4-.8-4.14-1.01-8.25-2.26-12.58-2.2-2.83.04-5.56.66-8.28,1.39-1.74.47-3.42,1.2-5.26,1.28-.15.02-.29.04-.44.05-.31.17-.69-.04-.99.18Z"/>
  <path class="cls-28" d="M147.33,227.5c4.58,4.82,9.35,9.39,15.98,11.33.61.18,1.27.22,1.84.47.77.34,2.15-.31,2.28.86.18,1.59.72,3.47-1.26,4.54-4.04-.68-7.71-2.27-10.97-4.7-4.21-3.14-6.43-7.59-7.87-12.5Z"/>
  <path class="cls-15" d="M170.87,243.98c-1.61-.95-1.56-2.58-1.29-4.01.19-.98,1.51-.48,2.31-.65,2.73-.58,5.36-1.39,7.79-2.77-2.17,3.39-5.29,5.65-8.82,7.43Z"/>
  <path class="cls-18" d="M189.46,209.39c-.16-.06-.32-.12-.48-.18.16.06.32.12.48.18Z"/>
  <path class="cls-28" d="M166.17,244.71c-.08.08-.16.16-.24.23.08-.08.16-.16.24-.23Z"/>
  <path class="cls-30" d="M155.42,207.99c8.83-3.83,17.79-3.88,26.74-.61,1.14.42-.61,2.01-.44,3.16.04.26-.55.59.11.78-2.86,1.43-5.9,2.22-9.09,2.34-8.62.32-17.28-.23-25.87,1,0-.8.68-1.02,1.22-1.28,1.41-.66,2.9-1.05,4.43-1.32,5.78-1.03,11.6-1.69,17.43-2.33.87-.1,1.73-.23,2.59-.37.28-.05.57-.03.85-.06-.32,0-.63-.08-.94-.12-2.17-.24-4.35-.25-6.52-.29-2.85-.05-5.69-.05-8.54,0-.61.01-1.29.14-1.76-.46.15-.11.29-.22.44-.33-.21-.04-.42-.07-.62-.11Z"/>
  <path class="cls-36" d="M155.61,208.43c6.06,0,12.13-.29,18.17.52.48.06.95.21,1.42.32-.49.13-.96.31-1.46.38-7.14.97-14.29,1.87-21.42,2.91-1.93.28-3.91.71-5.46,2.1-.92.16-2.19,1.26-2.63.45-.66-1.21,0-2.67,1.25-3.5,2.71-1.79,5.89-2.22,8.97-2.92.22-.18.53-.02.75-.19.14-.02.27-.05.41-.07Z"/>
  <path class="cls-48" d="M159.06,222.14c-1.91-.23-2.93-1.34-2.89-3.07.04-1.81,1.36-2.65,3.07-2.55,1.69.09,2.9,1.05,2.84,2.84-.06,1.85-1.38,2.59-3.01,2.78Z"/>
  <path class="cls-30" d="M153.99,208.23c.33-.06.66-.12.99-.18-.33.06-.66.12-.99.18Z"/>
  <path class="cls-30" d="M155.2,208.5c-.25.06-.5.13-.75.19.25-.06.5-.13.75-.19Z"/>
</svg>