<?xml version="1.0" encoding="utf-8"?>
<!-- Generator: Adobe Illustrator 28.2.0, SVG Export Plug-In . SVG Version: 6.00 Build 0)  -->
<svg version="1.1" id="Layer_1" xmlns="http://www.w3.org/2000/svg" xmlns:xlink="http://www.w3.org/1999/xlink" x="0px" y="0px"
	 viewBox="0 0 362.7 342.2" style="enable-background:new 0 0 362.7 342.2;" xml:space="preserve">
<style type="text/css">
	.st0{fill:#E8E8E8;}
	.st1{fill:#D3DBE4;}
	.st2{fill:#FD0226;}
	.st3{fill:#FFFEFF;}
	.st4{fill:#FFFFFF;}
	.st5{fill:#979EAB;}
	.st6{fill:#D4DBE4;}
	.st7{fill:#D2DAE1;}
	.st8{fill:#D2D9E2;}
	.st9{fill:#2E3540;}
	.st10{fill:#939BA8;}
	.st11{fill:#FDFEFE;}
	.st12{fill:#3F4752;}
	.st13{fill:#D1DAE2;}
	.st14{fill:#2B313C;}
	.st15{fill:#B3041A;}
	.st16{fill:#464F59;}
	.st17{fill:#BC021D;}
	.st18{fill:#BB031D;}
	.st19{fill:#FEFFFF;}
	.st20{fill:#383E49;}
	.st21{fill:#E1E9EF;}
	.st22{fill:#C2051B;}
	.st23{fill:#FEFEFE;}
	.st24{fill:#D3DCE4;}
	.st25{fill:#F9FBFE;}
	.st26{fill:#3B434A;}
	.st27{fill:#FEFEFF;}
	.st28{fill:#616671;}
	.st29{fill:#333A43;}
	.st30{fill:#E7EEF1;}
	.st31{fill:#FBFEFE;}
	.st32{fill:#FCFDFE;}
	.st33{fill:#50565F;}
	.st34{fill:#D81F35;}
	.st35{fill:#CD142A;}
	.st36{fill:#FEFFFE;}
	.st37{fill:#FCFEFF;}
	.st38{fill:#FE4B54;}
	.st39{fill:#FAF6F7;}
	.st40{fill:#EDC3C4;}
	.st41{fill:#87909D;}
	.st42{fill:#F9FDFE;}
	.st43{fill:#FBFDFE;}
	.st44{fill:#939CA8;}
	.st45{fill:#2C333E;}
	.st46{fill:#C5CDD8;}
	.st47{fill:#CDD3DE;}
	.st48{fill:#CFD3DE;}
	.st49{fill:#8F97A2;}
	.st50{fill:#FDFEFF;}
</style>
<path class="st0" d="M180.6,342.2c-4,0-6.5-2.1-7.4-2.8c-14.9-12.3-30.2-23.7-47.8-36.3l0.3,4c0.1,1.1,0,1.9,0,2.4l0,0l-1,20.4
	l-15.5-13.3c-0.4-0.3-1.1-0.9-1.8-1.7c-9.1-10.4-15.3-20.8-18.9-31.7c-3.2,1.2-6.4,2.5-9.5,3.8c-1.2,0.5-2.7,1-4.6,1
	c-2.9,0-5.7-1.2-7.6-3.3c-2.1-2.3-3.1-5.2-2.8-8.7c0.2-2.6,0.4-5.3,0.7-8.2c-5.7,1.3-11.5,2.4-17.5,3.4c-0.7,0.1-1.4,0.2-2,0.2
	c-3.5,0-6.6-1.5-8.5-4.3c-1.2-1.6-2.8-4.9-1.5-9.5c-4.6,0.4-18.3,1.4-18.3,1.4h-1.8L0,258.8l6-13.7c0.2-0.5,0.6-1.5,1.3-2.6
	c4-5.8,8.3-11.5,12.9-17c-2.6-0.2-5.3-0.4-7.9-0.6c-5.8-0.5-8.3-4.3-9.1-5.9S1,213.2,4,208.5c2.5-4.6,5-9.2,7.5-13.8
	c8.1-14.9,16.5-30.2,24.9-45.3c-1.6-2.9-2.9-7.8,0.2-13.8c1.8-3.5,3.6-7.2,5.3-10.7C24.5,111.4,13.8,92.8,9.8,69.6
	c-3.6-21-1.2-41.1,1.9-59.8c0.9-5.3,5.2-9,10.4-9c0.8,0,1.5,0.1,2.1,0.2c17,1.3,33.7,4.6,49.4,9.8c12,4,24.5,8.7,35.8,16.2
	c-1.8-4-3.1-8.1-4.1-12.2c-1.1-4.7,0.7-7.9,1.9-9.4c2-2.5,5-4,8.3-4c0.8,0,1.5,0.1,2.3,0.2c13.6,2.6,27.6,4.4,41.5,6
	c0.3-1.1,0.8-2,1.1-2.6c1.9-3.1,5.2-5,8.9-5c0.7,0,1.4,0.1,2.1,0.2c22.4,3.9,50.5,11.1,73.7,31.2c14.3-10.2,31.3-17.7,53.9-24
	c11.1-3.1,23.3-5.2,37.2-6.5c0.4,0,1.1-0.1,1.8-0.1c6.3,0,11,4.2,12,10.7c1.6,10.7,3.3,23.1,3.3,35.6v0.1
	c-0.3,22.9-4.9,40.6-14.4,55.8c-5.5,8.7-12,16.1-19.7,21.9c1.8,3.8,3.6,7.4,5.5,10.9c3,5.6,1.6,10.4,0.2,13.4
	c9.6,18.2,20,37.3,31,56.6l0.1,0.2c1.7,3,4.3,7.6,1.5,13s-8.1,5.8-11.5,6.1c0,0-3.3,0.3-4.9,0.4c4.3,5.3,8.6,11,12.8,16.9
	c0.6,0.9,1,1.7,1.2,2v-0.1l7.6,14.7l-16.7-0.2h-1.5c0,0-14-1.1-18.5-1.4c1.2,4.4-0.1,7.6-1.5,9.5c-2,2.7-5.1,4.3-8.5,4.3
	c-1.1,0-1.9-0.1-2.5-0.2c-5.5-0.9-11.1-2-17-3.3c0.3,3.1,0.6,6.1,0.7,9c0.2,4-1.4,6.6-2.8,8.1c-1.9,2-4.7,3.2-7.5,3.2
	c-1.9,0-3.3-0.5-4.4-0.9c-2.8-1.1-5.7-2.3-8.5-3.4l-1.5-0.6c-3.8,11.6-10.2,22.4-19.2,32.1c-0.9,0.9-1.7,1.5-2.1,1.8l-18.6,14.2
	l2.8-24c0.1-1.4,0.2-2.8,0.3-4.1c-17.3,12.4-33.1,24.4-48,36.4C185.1,341.8,182.4,342.3,180.6,342.2L180.6,342.2L180.6,342.2z"/>
<g>
	<path d="M344,47c-0.2,17.9-3.1,35.1-12.9,50.6c-6,9.5-13.5,17.5-23.1,23.4c-0.8,0.5-0.6,0.9-0.3,1.5c3,6,5.8,12.1,8.9,18
		c1.8,3.3-0.9,5.2-1.8,7.6c-0.3,0.7-0.4,1.2,0,1.8c10.7,20.4,21.8,40.7,33.1,60.7c1.5,2.7,0.8,4.1-2.2,4.3
		c-7.8,0.6-15.6,1.3-23.4,1.9c-0.3,0-0.6,0.1-0.9,0.2c0.2,0.3,0.3,0.6,0.6,0.9c8.9,9.4,16.9,19.4,24.3,30c0.2,0.2,0.3,0.5,0.4,0.8
		h-0.9c-10.7-0.8-21.4-1.6-32-2.5c-0.9-0.1-1,0.1-0.7,0.9c1.3,4.2,2.5,8.4,3.8,12.6c0.5,1.5-0.1,1.4-1.2,1.2
		c-9.8-1.7-19.6-3.8-29.3-6.1c-1-0.2-1.1-0.1-1,1c1.1,7.1,2,14.2,2.4,21.4c0,0.9-0.3,0.8-0.9,0.6c-6.5-2.6-13-5.2-19.5-7.8
		c-0.8-0.3-1.2-0.4-1.4,0.7c-2.6,14.5-9.4,27-19.4,37.8c-0.2,0.2-0.5,0.4-0.7,0.5c0-0.3,0.1-0.5,0.1-0.8c0.6-8.1,1.3-16.3,1.9-24.4
		c0-0.3,0-0.5-0.1-0.8c-0.2,0.1-0.5,0.2-0.7,0.4c-22.2,15.4-44,31.5-65,48.5c-0.8,0.7-1.2,0.2-1.8-0.2
		c-18.8-15.5-38.5-29.8-58.4-43.8c-2.1-1.5-4.3-3-6.4-4.5c-0.2-0.2-0.5-0.3-0.8-0.4c0,0.3-0.1,0.6-0.1,0.9c0.6,8,1.3,16,1.9,24.1v1
		c-0.2-0.2-0.5-0.4-0.8-0.6c-9.6-11-16.9-23.2-19.2-37.9c-0.2-1-0.8-0.5-1.2-0.4c-6.4,2.5-12.8,5-19.2,7.6c-1.1,0.4-1.5,0.5-1.4-1
		c0.5-7.2,1.2-14.3,2.5-21.4c0.2-1.2-0.7-0.4-0.9-0.4c-9.9,2.4-19.8,4.7-29.9,6.3c-1.1,0.2-1.2-0.1-0.9-1c1.4-4.3,2.7-8.5,4-12.8
		c0.3-0.8,0.2-1.1-0.8-1c-10.7,0.9-21.4,1.7-32,2.5h-0.9c0.1-0.3,0.2-0.6,0.4-0.8c7.4-10.7,15.5-20.7,24.5-30
		c0.3-0.3,0.5-0.6,0.7-0.9c-0.3-0.1-0.7-0.1-1-0.2c-8.9-0.8-17.8-1.5-26.7-2.2c-1.6-0.1-0.8-0.8-0.5-1.4
		c11.1-20.3,22.1-40.6,33.4-60.8c1.7-3,1.2-5.2-0.5-7.6c-1.2-1.7-1-3.1,0-4.9c3-5.9,5.9-11.9,8.8-17.8c0.3-0.5,0.4-0.9-0.2-1.2
		c-19.5-12.6-30.5-30.7-34.3-53.3c-3.2-18.9-1.2-37.7,1.9-56.5c0.2-1,0.9-0.5,1.3-0.5C39.8,12,55.7,15,71.2,20.2
		c15.2,5,30,10.9,42,21.6c5.2,4.6,9.6,1.3,14.5,1.2c3.1-0.1,3.1-0.9,1.4-3.3c-6.1-8.3-10.9-17.2-13.3-27.3c-0.2-1,0-1.2,0.9-1
		c18.7,3.5,37.6,5.6,56.4,7.8h1c-0.1-0.3-0.2-0.6-0.4-0.8c-1.3-2.4-2.6-4.9-3.9-7.4c-0.3-0.5-0.5-1,0.5-0.8
		c27.7,4.9,53.8,13.3,74.2,33.9c0.5,0.5,0.8,0.4,1.2,0c16.7-13.5,36.2-21.2,56.6-26.9c11.6-3.2,23.5-5.1,35.5-6.1
		c1.8-0.2,2.6,0,2.9,2.1C342.5,24.2,344,35.5,344,47L344,47L344,47z"/>
	<path class="st1" d="M289.9,241.2c-6.2-0.4-12.4-1.2-18.5-2.2c-1-0.2-1.5-0.2-1.3,1.1c0.8,5.6,1.5,11.1,2.3,16.7v1
		c-0.3-0.1-0.7-0.2-1-0.4c-4.8-2.3-9.5-4.6-14.2-6.9c-1.2-0.6-2.3-0.5-3.6,0.1c-21.9,10.7-43.9,21.2-65.7,32c-4.4,2.1-8,2.2-12.5,0
		c-22.2-10.9-44.6-21.5-67-32.1c-0.9-0.4-1.7-0.5-2.6-0.1c-4.9,2.4-9.8,4.8-14.6,7.1c-0.3,0.1-0.7,0.2-1,0.4V257
		c0.7-5.6,1.4-11.2,2.2-16.8c0.2-1.1-0.1-1.4-1.3-1.2c-5.7,1-11.5,1.9-17.3,2.3c-0.3-0.3-0.9,0.2-1-0.4c0-0.5,0.4-0.7,0.8-1
		c2.8-1.8,5.7-3.4,8.4-5.3c0.2-0.1,0.4-0.3,0.6-0.4c0.3-0.2,0.8-0.4,0.8-0.7c-0.1-0.4-0.6-0.1-0.9-0.2c-0.2-0.1-0.5-0.1-0.6-0.4
		c-5.5-1-11-0.9-16.5-1.3c-4.4-0.4-8.8-0.6-13.3-0.8c-0.2,0-0.5-0.1-0.7-0.2c0.3-0.4,0.5-0.8,0.8-1.1c0.1,0.6,0.4,0.9,1.2,0.9
		c1.1,0,2-0.3,2.8-1c3.3-2.6,6.7-5,9.7-8c0.1-0.1,0.4-0.2,0.3-0.4s-0.3,0-0.5,0c-0.5,0.1-1.1,0.1-1.7,0.1c-1.9,0-3.8-0.1-5.7,0.3
		c1.3-1.7,2.5-3.4,3.8-5c0.6-0.8,0.6-1-0.5-1.2c-5.2-0.9-10.4-1.8-15.6-2.8c6-3.3,12.1-6.6,17.7-10.5c0.7-0.5,1.5-0.9,1.9-1.7
		c-0.8-0.1-1.7-0.1-2.5-0.1c-1.6,0.1-3.2-0.2-4.7-0.3c-0.8,0-1.4,0.4-2.2,0.2c0.5-0.7-0.1-0.6-0.5-0.8c-5.6-1.6-11.1-3.3-16.7-5
		c0-0.9,0.7-1.1,1.3-1.3c3.6-1.4,7.2-2.8,10.8-4c3.8-1.3,7.5-2.6,11.3-4.1c0.1-0.1,0.3-0.1,0.4-0.2c-0.1-0.1-0.3-0.1-0.5-0.1
		c-1,0-2.1,0.1-3.1,0c-0.4,0-1,0.1-0.9-0.7c0.5-0.4,1.1-0.3,1.7-0.3h18.8c0.7,0,1.5-0.2,1.8,0.5c0.3,0.8-0.6,1.2-1.1,1.7
		c-3.4,3.2-6.8,6.3-10.3,9.3l-0.5,0.5c-0.2,0.3-0.2,0.5,0.2,0.6h0.5c3-0.2,6,0.4,9,0.2c3.1-0.1,6.3,0.2,9.4,0.3
		c0.5,0,1.1-0.1,1.3,0.4c0.2,0.6-0.3,0.9-0.6,1.3c-0.3,0.4-0.7,0.7-1,1c-3.9,3.8-7.5,7.9-11.4,11.6c-0.1,0.1-0.2,0.2-0.3,0.4
		c-0.1,0.2-0.4,0.4-0.2,0.6c0.1,0.2,0.4,0.1,0.6,0.1c1.5-0.3,3-0.2,4.5-0.4c2.2-0.3,4.4,0,6.5-0.2c0.9-0.1,1.2,0.5,0.8,1.3
		c-0.2,0.4-0.5,0.7-0.8,1.1c-2.6,3.4-5.2,6.8-7.9,10.1c-0.2,0.2-0.4,0.5-0.6,0.8c-0.3,0.4-0.1,0.6,0.4,0.7c0.8,0,1.6,0.1,2.4-0.1
		c1.3-0.2,2.6-0.2,3.9-0.2c4.8,0,9.6-0.2,14.4-0.3c3-0.1,6-0.1,9-0.2h1.1c1.1,0.1,1.3,0.5,0.9,1.5c-0.2,0.5-0.5,0.9-0.8,1.3
		c-2.3,3.5-4.8,6.9-7,10.5c-0.2,0.3-0.6,0.6-0.3,0.9c0.2,0.3,0.6,0,0.9,0c1.2-0.2,2.3-0.4,3.5-0.7c0.5-0.1,0.9-0.2,1.4,0
		c0.5,0.8,1.3,1.1,2.1,1.4c6.3,2.6,12.6,5.2,18.9,7.9c4,1.7,7.8,3.7,11.8,5.4c5.3,2.2,10.6,4.3,16,6c0.4,0.1,0.9,0.2,1,0.7v5.6
		c0,1.1,0.4,1.6,1.5,1.8c7.4,1.5,14,0,19.8-4.8c1.5-1.3,1.8-1.3,3.3,0c3.8,3.2,8.1,5.1,13,5.5c2.5,0.2,4.8-0.2,7.2-0.8
		c1-0.2,1.1-1.1,1-1.9c-0.2-1.8-0.2-3.5,0-5.3c0.2-0.6,0.7-0.7,1.2-0.8c9.4-2.8,18.2-7,27.1-10.9c6.5-2.8,12.8-6,19.5-8.3
		c0.8-0.3,1.8-0.5,2.2-1.4c1.3-0.3,2.5,0.4,3.7,0.4c0.6,0,1.5,0.6,1.8,0.1s-0.4-1.1-0.8-1.6c-2.3-3.3-4.5-6.7-6.9-10
		c-0.4-0.6-1.2-1.3-0.8-2.1s1.4-0.4,2.1-0.5c6.1-0.2,12.2,0.1,18.3,0.3c4,0.1,8.1-0.1,12.1,0.3c0.2,0,0.4,0.1,0.6-0.1
		c0.2-0.3-0.1-0.5-0.3-0.7c-1.9-2.3-3.8-4.6-5.6-6.9c-1.2-1.4-2.3-2.9-3.5-4.3c-0.3-0.4-0.7-0.8-0.5-1.3s0.8-0.5,1.3-0.5
		c3.5-0.1,6.9,0.2,10.3,0.3c0.3,0,0.8,0.3,1-0.1c0.1-0.2-0.3-0.5-0.5-0.7c-4-4-7.8-8.2-11.9-12.2c-0.5-0.5-1.4-1-1.1-1.8
		c0.3-0.9,1.4-0.6,2.1-0.6c6-0.1,11.9-0.5,17.8-0.5c0.2,0,0.5,0.1,0.6-0.1c0.1-0.3-0.2-0.4-0.3-0.5c-2.1-2-4.3-3.8-6.3-5.8
		c-1.5-1.5-3.2-2.8-4.7-4.4c-0.4-0.4-1-0.8-0.7-1.4c0.2-0.6,1-0.5,1.5-0.5c6.7,0,13.3-0.1,20,0h0.6c0.8,0.6,0.1,0.8-0.4,0.9
		c-0.8,0.2-1.7,0.1-2.5,0.1c-0.3,0-0.7-0.1-1,0.1c0.2,0.2,0.6,0.3,0.9,0.4c2.7,1.1,5.4,2,8.2,3c4.3,1.5,8.7,3,13,4.6
		c0.8,0.3,1.7,0.4,2.2,1.3c-5.6,1.7-11.2,3.4-16.9,5.2c-0.3,0.1-0.5,0.3-0.8,0.5c-0.5,0.3-1.1,0.1-1.6,0.1c-2.6,0-5.2,0-7.8,0.2
		c-0.2,0-0.5-0.1-0.5,0.1s0.3,0.3,0.4,0.4c4.9,3.2,9.8,6.3,15,9.2c1.5,0.8,3.1,1.4,4.3,2.6c-5.1,0.9-10.2,1.9-15.2,2.8
		c-0.3,0.1-0.6,0.2-1,0.3c0.2,0.3,0.3,0.5,0.5,0.8c1.3,1.7,2.6,3.4,3.9,5.1c-2.2,0-4.5-0.2-6.7-0.4c-0.1,0-0.2,0-0.3-0.1
		c-0.3,0-0.7-0.1-1.1-0.1c0.2,0.3,0.5,0.4,0.7,0.7c2.7,2.8,5.9,5.1,8.9,7.5c1.1,0.9,2.2,1.5,3.7,1.3c0.5-0.1,1,0,1.3,0.4
		c-8.1,0.6-16.1,1.1-24.2,1.7c-1.8,0.1-3.7-0.2-5.3,0.9c-0.4,0.4-0.9,0.2-1.3,0.2c-0.2,0-0.4-0.1-0.5,0.2c-0.1,0.2,0.2,0.3,0.3,0.5
		c1,0.9,2.1,1.5,3.2,2.2c2,1.2,4,2.5,6.1,3.6c0.2,0.1,0.3,0.2,0.5,0.3c0.2,0.2,0.5,0.4,0.5,0.8C290.6,241.2,290.1,240.9,289.9,241.2
		L289.9,241.2L289.9,241.2z"/>
	<path class="st2" d="M67.5,125.2c0.1-1.4,1.1-1.8,2.3-2.1c20.8-5.9,41.7-11.3,62.9-15.3c0.2,0,0.4-0.1,0.5-0.2
		c-0.1-0.1-0.2-0.2-0.3-0.3c-4-1.4-7.4-3.9-10.6-6.5c-1.8-1.5-3.5-1.1-5.4-0.5c-4.1,1.2-8.2,2.3-12.3,3.5c-1.9,0.2-3.7,0.9-5.6,1.5
		c-5.4,1.7-10.7,3.4-16.1,5.2c-3.2,1.1-6.4,2-9.6,3.1c-0.4,0.1-0.8,0.3-1.2,0.2c-0.5-0.1-1.2-0.1-0.9-1c0.4-1.2,0.8-2.4,1.2-3.6
		c0.5-0.8,1.3-1,2.1-1.3c4.2-1.8,8.6-3.4,12.9-4.8c9-3,18-5.8,27.1-8.2c10.3-2.7,20.8-4.5,31.5-5.6c6.2-0.6,12.5-1.2,18.7-1.6
		c2.3-0.1,4.7-0.3,7-0.3h18.7c5.4,0,10.8,0.5,16.3,0.9c8.1,0.6,16.1,1.5,24.1,2.9c9.7,1.7,19.2,3.8,28.6,6.6
		c7.9,2.4,15.7,4.9,23.3,7.9c2,0.8,4.1,1.5,6,2.6c1.3,1.2,1.6,2.8,2.1,4.3c0.3,0.7-0.3,1.2-1.1,0.9c-1.7-0.6-3.4-1-5.1-1.6
		c-3.6-1.2-7.2-2.4-10.8-3.5c-2.5-0.8-5-1.6-7.5-2.4c-2.7-0.9-5.4-1.6-8.2-2.4c-2.9-0.9-5.7-1.9-8.7-2.3c-5.8-3-10.1-0.3-14.1,3.6
		c-0.5,0.4-1,0.8-1.5,1.1c-0.9,0.6-1.9,1.1-2.8,1.6c1.1,0.3,2.2,0.6,3.3,0.9c18.9,4,37.7,8.5,56.2,14c1,0.3,1.9,0.6,2.8,0.9
		c0.7,0.2,1.1,0.8,1.7,1.1l0,0c0.2,0.3,0,0.7,0.2,0.9l0,0c0,2.4-0.1,2.5-2.4,1.6c-9.4-3.4-19.2-5.6-29-7.5
		c-4.7-0.9-9.4-1.7-14.1-2.4c-1.2-0.2-1.4-0.4-1.7-2.3c-0.5-0.3,0.5-1.8-1-1.4c-0.7,0.6-1.5,1.1-2.1,1.7l0,0c-0.1,0-0.2,0.1-0.3,0.2
		l0,0c-0.4,0.2-0.7,0.4-0.9,0.7l0,0c-0.1,0-0.2,0.1-0.2,0.2l0,0c-0.1,0.1-0.2,0.1-0.2,0.2l0,0c-1.2,0.5-1.9,1.6-3,2.3
		c-0.4,0.3-0.8,0.5-1.3,0.4c-2.6-0.6-5.3-0.6-7.9-1.5c-4.1-4.4-8.4-8.6-12.4-13.1c-2.7-3.1-5.7-5.9-8.3-9.1
		c-0.7-0.4-1.4-0.6-2.2-0.5c-2.9-0.3-5.8-0.3-8.7-0.4c-0.4,0-0.9-0.2-1.1,0.2c-0.1,0.4,0.4,0.6,0.7,0.9l1.4,1.4
		c0.1,0.1,0.2,0.2,0.2,0.2l0.1,0.1c0.5,0.6,1.1,1.2,1.7,1.8c2.9,2.8,5.6,5.9,8.5,8.7c2,2,4.2,3.9,6.1,5.9c0.4,0.4,0.9,0.8,0.9,1.5
		c-0.1,0.3-0.3,0.6-0.6,0.7s-0.7,0.1-1,0c-0.5-0.2-1.1-0.2-1.6-0.1c-5.9-0.5-11.9-0.6-17.8-0.8c-4.1-0.1-8.2-0.1-12.4-0.1
		c-1.5,0-3.1-0.3-4.6-0.2c-5,0.3-10.1,0.1-15.1,0.3c-7,0.2-13.9,1-20.8,1.7c-7.1,0.7-14.1,1.7-21.1,2.7c-0.3,0-0.5,0-0.8-0.1l0,0
		c-0.1-0.2-0.3-0.1-0.5-0.3l0,0c-0.1-0.1-0.2-0.2-0.3-0.2c-1.8-1.5-3.5-3-5.3-4.6c-0.5-0.4-1-0.8-1.5-1.1c-0.2,0.6-0.4,1.3-0.6,1.9
		c-0.1,0.4-0.2,0.9-0.3,1.4c-0.4,0.4-0.8,0.6-1.4,0.6c-9.6,0.9-18.9,3.2-28.2,5.3c-4.9,1.1-9.7,2.5-14.4,4c-0.6,0.2-1.2,0.4-1.8,0.4
		c-1.1,0.1-1.2-0.1-1-1.1C67.4,125.6,67.4,125.4,67.5,125.2L67.5,125.2L67.5,125.2z"/>
	<path class="st3" d="M58.5,183.8c1.5,0.7,3.1,0.1,4.6,0.3c0.4,0,0.7,0.1,1.1,0.2c-0.3,0.2-0.6,0.4-0.9,0.5
		c-7.5,2.8-15.1,5.5-22.6,8.3c-0.5,0.2-1,0.6-1.5,0.9l0,0c-0.2-0.2-0.5-0.1-0.8-0.2c-1.3,0.1-1.4-0.4-0.8-1.4
		c9.4-15.4,18-31.2,26.7-47.1c0.3-0.5,0.6-0.9,1.3-1.1c14.1-3.4,28.2-6.9,42.4-10.2c3.5-0.8,6.6,1.2,9.8,2.3c3.4,1.2,6.6,2.8,10,4.2
		c0.2,0.1,0.5,0.1,0.7,0.1c-0.1-0.3-0.1-0.5-0.2-0.8c-2-5.5-4.1-11.1-6.1-16.6c-0.1-0.4-0.1-0.8-0.2-1.2c0.3,0.2,0.7,0.4,1.1,0.7
		c12.2,10,23.2,21.2,34.3,32.2c0.2,0.2,0.5,0.4,0.7,0.6c0-0.3-0.1-0.7-0.2-1c-2.2-7-5.3-13.6-9.2-19.9c-0.3-0.6,0.2-0.7,0.6-0.7
		c0.5-0.1,1,0.2,1.4,0.5c6.3,4.4,12.5,9,18.1,14.4c1.7,1.7,3.2,3.6,5.2,5c0.4,0.3,0.7,0.7,0.7,1.3c-0.1,0.5-0.3,0.8-0.6,1.1
		c-4,4.8-7.8,9.8-11.8,14.7c-1.2,1.5-1.5,1.6-3.2,0.7c-6.8-3.6-13.6-7.1-20.4-10.8c-2.5-1.4-5.1-2.6-7.6-3.9
		c-8-4.1-15.9-8.2-24-12.2c-1.5-0.8-3-1.4-4.5-2.1c-0.8-0.4-1.5-0.4-2.4,0c-4.6,2-9.1,4.4-13.6,6.5c-4.9,2.2-9.5,4.9-14.3,7.4
		c-0.2,0.1-0.6,0.2-0.6,0.5s0.4,0.3,0.7,0.4c5.6,2,11.2,4.2,16.9,6.2c0.5,0.2,1.2,0.2,1.3,0.9c0.1,0.7-0.7,0.9-1.1,1.2
		c-10.1,5.8-20.1,11.6-30.2,17.4c-0.1,0-0.2,0.1-0.3,0.1h-0.1c-0.1,0-0.2,0-0.3,0.1L58.5,183.8L58.5,183.8L58.5,183.8z"/>
	<path class="st4" d="M324.5,193.8c-8.2-3-16.3-6-24.5-9c-0.3-0.1-0.6-0.3-0.9-0.5c0.3-0.1,0.7-0.3,1-0.3h3.5c0.2,0,0.9,0.3,0.6-0.5
		c-0.6,0.1-1.1-0.3-1.7-0.6c-8.5-4.8-16.9-9.8-25.3-14.8c-1.3-0.8-2.6-1.5-3.9-2.3c-0.4-0.2-1-0.4-0.9-1c0-0.5,0.6-0.7,1-0.9
		c3.3-1.4,6.7-2.6,10.1-3.9c2.3-0.8,4.5-1.7,6.9-2.4c0.2-0.1,0.7,0,0.7-0.4c0-0.3-0.4-0.4-0.6-0.5c-4.2-2.4-8.6-4.6-13-6.8
		c-4.8-2.4-9.7-4.8-14.6-7.1c-1.2-0.5-2.2-0.5-3.4,0.1c-10.5,5.3-21,10.7-31.5,16.1c-8.3,4.3-16.7,8.7-25,13.1
		c-1.1,0.6-1.4,0.5-2.2-0.5c-4-5-7.9-10.1-11.9-15.2c-0.3-0.4-0.7-0.9-0.7-1.5c0-0.5,0.4-0.9,0.7-1.2c3.8-3.8,7.5-7.8,11.8-10.9
		c2.9-2.1,5.7-4.2,8.8-6.1c1.2-0.7,2.2-1.6,3.4-2.2c0.7-0.4,0.8-0.3,1,0.3l0,0c-0.1,0.1-0.2,0.2-0.2,0.3l0,0
		c-0.2,0.1-0.1,0.3-0.3,0.4l0,0c-0.1,0.1-0.2,0.2-0.2,0.3c-3.6,5.9-6.3,12.1-8.6,18.6c-0.1,0.3-0.1,0.6-0.2,1
		c0.2-0.2,0.5-0.4,0.7-0.6c10-9.9,19.8-20,30.4-29.3c0.7-0.6,1.4-1.2,2.1-1.7c1-0.8,2-1.5,3-2.2c-0.3,1.2-0.6,2.4-1,3.5
		c-1.8,5.1-3.7,10.3-5.6,15.4l0,0c2.8-1.1,5.6-2.1,8.3-3.4c6.9-3.4,13.8-3.7,21.3-1.6c11.2,3.1,22.5,5.6,33.7,8.7
		c0.4,0.1,0.9,0.5,1.1,0.9c8.7,15.9,17.1,32,26.7,47.4C326,194.1,324.9,193.7,324.5,193.8L324.5,193.8L324.5,193.8z"/>
	<path class="st4" d="M55.6,41.9c-4.4-1.9-8.7-3.9-13.3-5c-1,0.4-1.8-0.1-2.6-0.3c-1.5-0.4-1.6-0.4-1.8,1.2
		c-0.5,5.3-0.8,10.6-0.5,15.9c0.3,5.2,0.9,10.2,2,15.3c0.3,1.6,0.8,3.2,1.3,4.8c0.3,1.3,0.2,1.5-1.1,1.7c-0.8,0.1-1.2,0.5-1.1,1.4
		c0.1,0.4,0,0.8-0.4,1.1c-0.4,0.2-0.7-0.1-1-0.3c-0.3-0.3-0.8-0.4-1.1-0.7c-4.1-10.9-5-22.1-4.3-33.6c0.4-6,1.1-11.9,1.6-17.9
		c0.1-0.8,0.5-0.8,1-0.7c29.1,4.4,56.3,13.1,78.7,33.3c0.9,0.8,0.9,1.1-0.1,1.8c-1.4,0.9-2.6,2-4,3c-0.5,0.1-0.7-0.3-1-0.6
		c-6-6-12.8-10.6-20.6-13.7c-0.2-0.1-0.4-0.2-0.7-0.3c-0.1-0.1-0.2-0.2-0.4-0.2c0.1,0.1,0.3,0.2,0.4,0.3c3.8,3.2,7.6,6.5,11.1,10.1
		c2,2.1,4,4.3,5.8,6.6c0.2,0.3,0.6,0.6,0.3,0.9c-0.3,0.4-0.7,0.2-1.1,0c-1.5-0.8-2.7-1.9-4.1-2.8c-5.1-3.3-10.2-6.6-15.6-9.4
		c-4.1-2.1-8.3-4-12.5-5.8c-4.6-2-9.3-3.7-14-5.6C56.4,42.1,56,42.1,55.6,41.9L55.6,41.9L55.6,41.9z"/>
	<path class="st4" d="M319.4,37.1c-4.1,1.6-8.3,3.2-12.4,4.8c-3.9,1.4-7.8,2.8-11.7,4.4C286.7,50,278.1,54,270.1,59
		c-3.2,2-6.4,3.9-9.3,6.1c-0.4,0.3-0.8,0.6-1.2,0.8c-0.3,0.1-0.7,0.4-1,0c-0.2-0.3,0-0.6,0.2-0.9c0.5-0.6,0.9-1.1,1.4-1.6
		c3-3.4,6.3-6.6,9.7-9.6c2.1-1.8,4-3.7,6.1-5.5c0.1-0.1,0.2-0.2,0.4-0.3c-0.2,0-0.2,0.1-0.4,0.2c-3.2,1.4-6.4,3-9.5,4.8
		c-4.3,2.5-8.2,5.6-11.6,9.2c-0.3,0.3-0.6,0.9-1.2,0.8c-1.5-1.3-2.9-2.7-4.4-4c-0.7-0.6,0-0.8,0.3-1c12-11.7,26.7-18.7,42.2-24.2
		c11.8-4.2,23.8-7.3,36.3-8.9c0.4-0.1,1-0.4,1.1,0.5c2.3,15.5,3.4,31-1,46.4c-0.5,1.8-1.1,3.5-1.7,5.3c-0.1,0.2-0.2,0.3-0.3,0.5
		c-0.3,0.4-0.8,0.6-1.3,0.4s-0.6-0.6-0.7-1c-0.1-0.6-0.1-1.2-1-1c-1.1,0.2-1.4-0.2-1.2-1.4c0.3-1.3,0.6-2.6,0.9-3.9
		c2-8.4,2.7-17,2.4-25.6c-0.1-2.4-0.3-4.8-0.5-7.2c-0.1-1.6-0.3-1.7-1.9-1.2c-0.9,0.3-1.7,0.7-2.7,0.5h-0.4
		C319.8,37,319.6,37,319.4,37.1C319.4,37.1,319.4,37.1,319.4,37.1z"/>
	<path class="st5" d="M216.1,60.3c-4.1-2.5-8.2-5-12.6-6.8c-0.2-0.1-0.5-0.1-0.8-0.2c0.1,0.2,0.2,0.5,0.4,0.7
		c3.5,4.8,6.5,9.9,9.3,15.1c0.2,0.6-0.2,0.6-0.5,0.6c-0.5,0-1-0.3-1.4-0.5c-5.4-2.7-10.5-5.7-15.8-8.4c-4.1-2.1-8.2-4.2-12.2-6.4
		c-9.6-5.2-19.3-10.1-28.7-15.6c-4-2.4-7.9-4.9-11.7-7.5c-0.4-0.2-1.3-0.5-0.5-1.3c0.4-0.1,0.7,0,1,0.1c6.9,1.9,14,2.6,21,3.5
		c10,1.3,19.9,2.7,29.6,5.5c0.8,0.2,1.5,0.5,2.3,0.7c1.4,0.6,2.9,1.1,4.2,1.7c4.1,1.8,8.1,3.7,12.1,5.7c1.3,0.7,1.4,0.7,1.9-0.7
		c0.3-0.8,0.8-0.8,1.5-0.7l4.4,4.4c0.8,0.4,1.2,1.1,1.8,1.8c1.8,2.1,3.5,4.3,5.1,6.6c0.4,0.6,0.7,1.1,1,1.8c0.1,0.3,0.3,0.7,0,1
		s-0.7,0.1-1-0.1c-0.7-0.4-1.5-0.8-2.2-1.1c-1.6-0.8-3.2-1.5-4.8-2.3h-0.1V58h0.1c0.1,0,0.1,0.1,0.2,0.1s0.1,0.1,0.2,0.1l0.1,0.1
		c0.1,0.1,0.2,0.1,0.3,0.2c0.1,0.1,0.2,0.1,0.2,0.2c0.1,0.1,0.1,0.1,0.2,0.2c0.1,0.1,0.1,0.1,0.1,0.1v0.4c-0.3,0.6-0.9,0.7-1.4,0.7
		c-0.7,0.1-1.4,0.3-1.9,0.9h-0.3c0,0-0.1-0.1-0.2-0.1s-0.2-0.1-0.3-0.2l0,0C216.4,60.4,216.2,60.3,216.1,60.3L216.1,60.3L216.1,60.3
		z"/>
	<path class="st6" d="M36.1,76.9L36.1,76.9c2.4,1.6,2-3.2,4.3-1.8c0-0.2,0.1-0.5,0-0.7c-3.8-12.3-4.2-24.9-2.9-37.6
		c0.1-0.8,0.2-1.2,1.2-0.9c1.2,0.4,2.4,0.7,3.6,1.1c-0.5,6.4-0.2,12.7,0.8,19c0.3,1.6,0.5,3.2,0.8,4.8c0,0.3,0.2,0.6,0.3,0.8
		c0.2-0.2,0.4-0.5,0.5-0.7c0.3-0.4,0.5-0.8,0.8-1.3c0.3,0.4,0.7,0.7,0.9,1.2c4.3,8.1,10.5,14.1,19.3,17.2c1.3,0.4,1.2,0.1,1.1-1
		c-0.5-3.8-0.4-7.5,0.2-11.3c0-0.3,0.2-0.5,0.2-0.8c0.1,0.3,0.3,0.5,0.4,0.8c3.2,9.8,8.2,18.5,15.9,25.4c0.8,0.7,0.6,0.8-0.2,1.4
		c-3.6,2.7-5.8,1.1-8.3-1.9c-4.8-5.9-10.3-11.1-18.4-12.2c-0.5-0.1-1,0-1.5,0c0.3,0.3,0.6,0.7,0.9,1.1c1.4,1.8,2.9,3.5,3.2,5.8
		c-1.9,0-3.7,0-5.6-0.1c-1.3,0-2.6-0.1-4-0.1c0.9,1,1.8,2.1,2.8,3.1c4.3,4.2,8.9,8,13.8,11.5c0.8,0.6,0.8,0.8-0.1,1.3
		c-3.3,1.8-7.1,3.1-8.4,7.3c-0.3,0.9-0.8,0.1-1-0.1c-10-7.6-16.1-17.9-20.1-29.5C36.3,78.1,36.2,77.5,36.1,76.9
		C36.1,76.9,36.1,76.9,36.1,76.9z"/>
	<path class="st7" d="M320.4,36.9c1.3-0.5,2.7-0.9,4-1.4c0.6-0.2,0.7,0.2,0.8,0.7c1.5,12.9,0.8,25.6-2.7,38.1
		c-0.1,0.4-0.1,0.8-0.1,1.1c0.4-0.1,0.7-0.1,1.1-0.2c0.6-0.2,1.3-0.5,1.2,0.6c-0.3,2.1,0.6,1.9,1.9,1c-3.9,12.4-10.3,23.2-20.7,31.4
		c-0.2,0.2-0.6,0.7-0.8,0.1c-1.5-4.1-5.2-5.4-8.6-7.2c-0.9-0.5-1-0.7-0.1-1.3c5.7-4,10.8-8.6,15.7-13.5c0.3-0.3,0.5-0.8,0.7-1.2
		c-0.4,0-0.8,0-1.3,0.1c-2.5,0.1-5,0.2-7.5,0.4c-1,0.1-1-0.4-0.8-1.1c0.8-1.9,1.9-3.6,3.2-5.2c0.2-0.3,0.5-0.6,0.7-0.9h-1.2
		c-5.5,1-10,3.7-13.9,7.6c-1.8,1.8-3.8,3.6-5.2,5.7c-2,2.8-3.9,3.3-6.8,1.3c-1.3-0.9-1.7-1.1-0.4-2.3c7.3-7,12.5-15.3,15.5-25
		c0.1-0.2,0.2-0.4,0.3-0.6c0.1,0.2,0.3,0.4,0.3,0.7c0.4,3.8,0.4,7.6,0,11.4c-0.1,0.9,0,1.2,1,0.8c8.7-3,14.9-8.8,19.2-16.8
		c0.8-1.5,1.3-1.9,2.1-0.1c0.1,0.2,0.4,0.3,0.6,0.5c0.1-0.2,0.2-0.3,0.2-0.5C320.6,53,321.5,45,320.4,36.9L320.4,36.9L320.4,36.9z"
		/>
	<path class="st8" d="M213.9,135.2c-0.2-0.6-0.5-0.2-0.7,0c-9.1,5.7-17.7,12-24.8,20.1c-0.7,0-1-0.5-1.3-0.9
		c-1.4-1.7-2.8-3.4-4.3-5.1c-1.2-1.4-1.6-1.5-2.8,0c-1.5,1.8-3,3.5-4.4,5.2c-0.3,0.4-0.5,0.9-1.2,0.9c-2.9-2.9-5.6-5.9-8.7-8.7
		c-4.8-4.3-9.9-8.1-15.2-11.7c-0.6-0.4-1.2-1.1-1.9-0.2c-0.8-1.2-1.5-2.4-2.3-3.5c1.2-0.1,2.5-0.4,3.7-0.4c3.7-0.3,7.4-0.5,11.2-0.8
		c1-0.1,1.4,0.2,1.8,1.1c2.2,5.1,4.4,10.2,6.6,15.3c0.5,1.1,0.8,1,1.3,0.1c3.2-4.9,6.3-9.9,9.5-14.8c0.9-1.4,1.4-1.6,2.4,0
		c2.9,5,6,10,9,15l0.6,0.6c0.1-0.2,0.3-0.5,0.4-0.7c2.4-5.3,4.9-10.6,7.3-15.9c0.3-0.7,0.8-0.9,1.5-0.8c4.8,0.4,9.6,0.8,14.3,1.1
		c0.6,0,1,0.1,0.4,0.8C215.5,133,214.7,134.1,213.9,135.2L213.9,135.2L213.9,135.2z"/>
	<path class="st9" d="M219.2,57.9c-0.1-0.1-0.1-0.1-0.2-0.1c-0.1-0.1-0.2-0.1-0.3-0.2l0,0c-0.1-0.2-0.4-0.1-0.4-0.3
		c2.9,0.3,5.2,2.1,7.8,3.2c0.4,0.2,0.8,0.3,1.2,0.4c-0.2-0.4-0.2-0.8-0.5-1.2c-2.4-3.3-4.9-6.5-7.3-9.8c2.7,1.9,5.4,3.7,8.2,5.6
		c0.2,0.2,0.5,0.3,0.8,0.4c-0.1-0.3-0.1-0.6-0.2-0.9c-2-3.9-3.9-7.8-5.9-11.7c-0.1-0.2-0.2-0.5-0.2-0.8c0.3,0.1,0.6,0.1,0.8,0.2
		c6.1,3.7,10.8,8.8,15.6,13.9c7.9,8.4,15,17.5,21.9,26.7c0.2,0.2,0.3,0.5,0.4,0.7c-0.2,0-0.4,0.1-0.6,0c-8.2-2.9-16.7-4.5-25.2-6.2
		c-3-0.6-4.4-3.4-6.6-5.2c-3.7-3.1-7.3-6.4-10.9-9.7c-0.5-0.4-2-1.2,0-1.9c0.1-0.1,0.1-0.2,0.3-0.2c1.3,0.3,2.4,1.2,3.6,1.9
		c2.4,1.3,4.9,2.5,7.4,3.5c1.8,0.7,3.5,1.7,5.2,2.6c0.1,0,0.2,0.2,0.3,0.1c0.1,0,0.1-0.1,0,0c-0.1,0-0.1,0-0.2-0.1
		c-4-2.3-7.8-5-11.2-8.1c-0.8-0.7-1.8-1.2-2.3-2.3l0,0c-0.1,0-0.2-0.1-0.3-0.2l0,0c-0.1-0.1-0.2-0.1-0.2-0.2l0,0
		c-0.1-0.2-0.3-0.1-0.4-0.3l0,0C219.5,57.8,219.3,57.9,219.2,57.9L219.2,57.9L219.2,57.9z"/>
	<path class="st10" d="M171,73.8c-19,0.5-37.7,2.8-56.1,7.6c-0.3,0.1-0.5,0-0.8,0.1l0,0c4.4-3.2,8.9-6.5,13.3-9.8
		c-0.2-1.1,0.3-1.6,1.2-1.9c2.7-1.1,5.4-2.4,8-3.6c0.1-0.1,0.3-0.1,0.4-0.2c-0.2-0.1-0.3,0-0.5,0c-0.9,0.1-1.8,0.3-2.7,0.4
		c-0.4,0.1-0.8,0.2-1.1-0.1c-0.4-0.5,0.4-0.5,0.4-0.8v-0.2c0.3-0.3,0.7-0.5,1.1-0.6c5.2-1.8,10.4-3.3,15.7-4.6
		c0.9-0.2,1.8-0.4,2.7-0.2c5.6,3.1,11.2,6.2,16.9,9.3c0,0.6-0.5,0.5-0.9,0.5c-5.3-0.7-10.6-0.9-15.9-0.8c-0.1,0-0.2,0-0.3-0.1
		c0,0.1,0.2,0.1,0.3,0.1c5.9,0.3,11.5,2,17.1,4C170.3,72.9,171,73,171,73.8L171,73.8z"/>
	<path class="st11" d="M288.7,108.6c-20-8.4-40.6-14.4-62.1-17.6c-32.7-4.8-65.3-4.4-97.8,1.3c-18.8,3.3-36.8,9.3-54.5,16.3
		c-0.6,0.2-1.2,0.5-1.9,0.8c-0.1-1.5,0.9-2,2.1-2.5C98.2,96.4,123,90,148.7,87.3c27.2-2.8,54.4-2.4,81.5,2.1
		c20.1,3.4,39.6,8.9,58.2,17.6c0.8,0.4,1.5,0.7,1.6,1.7C289.6,109.8,289.1,108.6,288.7,108.6C288.7,108.6,288.7,108.6,288.7,108.6z"
		/>
	<path class="st12" d="M141.1,30c6.5,4.7,13.3,8.9,20.5,12.7c16.2,8.7,32.5,17.3,48.8,25.9c0.6,0.3,1.2,1.1,2,0.4
		c1.2,2,2.5,4,3.7,6.1c0.1,0.1,0.1,0.3,0.2,0.4h-0.8c-8.5-0.2-15.5-4.4-22.6-8.4c-13.3-7.3-26.5-14.6-38.7-23.7
		c-5.4-4-10.4-8.4-14.8-13.5c-0.3-0.4-0.5-0.8-0.8-1.2C139.6,28.5,140.4,29.1,141.1,30L141.1,30L141.1,30z"/>
	<path class="st13" d="M253.7,62.8c5.6-6.4,12.6-10.9,20.3-14.3c0.2-0.1,0.4-0.2,0.7-0.3c1-0.4,1.9-0.8,2.8-1.2
		c-0.8,0.8-1.5,1.6-2.3,2.4c-5.6,5-11.3,9.9-16.1,15.7c-0.1,0.2-0.2,0.4-0.3,0.6c0.4-0.2,0.8-0.3,1.2-0.5
		c7.9-5.7,16.3-10.6,25.1-14.7c6.7-3.2,13.5-6.2,20.7-8.4c0.4-0.1,0.8-0.1,1.3-0.2c-9.5,5.2-18.7,10.8-26.4,18.5
		c-4.9,4.9-8.7,10.6-11,17.2c-0.1,0.4-0.1,1.1-0.8,0.3C264.1,72.6,259,67.6,253.7,62.8L253.7,62.8z"/>
	<path class="st13" d="M55.6,41.9c4.9,0.8,9.3,3.1,13.8,4.9c12,4.8,23.2,11.1,33.7,18.7c0.3,0.2,0.6,0.2,0.9,0.3
		c-0.2-0.2-0.3-0.4-0.4-0.7C98.3,58.6,92.1,53,85.7,47.6c-0.1-0.1-0.2-0.3-0.3-0.4h0.4c8.9,3.6,16.9,8.4,23.4,15.6
		c-5.5,4.6-10.7,9.5-15.6,14.8c-0.3,0.3-0.5,0.5-0.7-0.1c-5.7-15.4-18-24.4-31.4-32.3C59.5,44.1,57.5,43,55.6,41.9
		C55.6,41.9,55.6,41.9,55.6,41.9z"/>
	<path class="st14" d="M181.8,303.1c7.3-6.9,16.4-10.9,25.1-15.5c11.7-6.2,23.6-11.7,35.8-16.8c0.2-0.1,0.5-0.1,0.8-0.2
		c-0.2,0.2-0.4,0.4-0.6,0.5c-6,5.4-13.3,8.6-20.6,11.8c-4.2,1.9-7,5.7-10.4,8.6c-7.7,6.4-15.4,12.9-23.5,18.9
		c-2.2,1.7-4.4,3.3-6.6,5c-0.5-0.5-0.5-1.1-0.5-1.7v-9C181.3,304.2,181.3,303.6,181.8,303.1L181.8,303.1L181.8,303.1z"/>
	<path class="st15" d="M216.8,115.9h0.9c0.2,0.1,0.6,0.1,0.6,0.5s-0.4,0.6-0.8,0.6c-1.5,0.1-2.9,0.9-4.4,0.9c-0.2,0-0.4,0-0.4,0.1
		s0.2,0.1,0.4,0.1c0.7,0.1,1.3,0.3,1.8,0.8c0.6,0.4,1.2,0.2,1.8,0.2c0.8,0,1.8-0.1,2.1,1c-15.8-1.5-31.8-1.5-47.7-1.4
		c-14.4,0.1-28.7,1.4-42.9,3c-2.6,0.3-4.3-0.5-5.9-2.3c4.4-0.7,8.8-1.6,13.3-2.1c15.2-1.9,30.4-3.1,45.7-2.8
		c11.3,0.2,22.7,0.1,33.9,1.1C215.8,116,216.3,115.6,216.8,115.9L216.8,115.9L216.8,115.9z"/>
	<path class="st16" d="M181.8,303.1v12.3c-0.3,0.6-0.7,0.3-1,0c-9.2-7.4-18.3-14.8-27.5-22.1c-0.1-0.1-0.2-0.1-0.2-0.2l0,0
		c-0.1-0.1-0.2-0.2-0.3-0.2c-0.2-0.1-0.3-0.2-0.4-0.3c-0.1,0-0.2-0.1-0.2-0.2l0,0c-0.1,0-0.2-0.1-0.2-0.2l0,0
		c-0.1-0.1-0.2-0.1-0.2-0.2l0,0l-0.2-0.2l0,0c-0.1-0.1-0.2-0.2-0.3-0.2s-0.1,0-0.2-0.1c-0.1,0-0.2-0.1-0.2-0.2l0,0
		c-0.1-0.1-0.2-0.1-0.2-0.2l0,0l-0.2-0.2l0,0c-0.1-0.1-0.1-0.2-0.2-0.2l0,0c-0.1-0.1-0.1-0.2-0.2-0.2l0,0c-0.2-0.7,0.2-0.7,0.7-0.8
		c0.5-0.1,1,0.2,1.4,0.5c1.1,0.8,2.3,1.5,3.4,2.2c0.1,0.1,0.3,0.2,0.4,0.1c0.2-0.1,0-0.3,0-0.4c-0.3-0.7-0.3-1.5-0.3-2.2
		s0.3-0.9,1-0.8s1.3,0.5,1.9,0.7c2.2,0.9,4.5,1.9,6.5,3.2c0.8,0.5,1.5,1.1,2.2,1.8c0.1,0.1,0.2,0.2,0.2,0.3c0-0.1-0.1-0.1-0.2-0.2
		c-0.4-0.7-0.9-1.3-1.3-2c-0.4-0.5-0.3-0.6,0.3-0.7c2.9,1.6,5.8,3.2,8.3,5.3c0.2,0.1,0.5,0.3,0.5,0.2c0.6-1,0.9,0.1,1,0.3
		C177.8,299.4,179.8,301.3,181.8,303.1L181.8,303.1L181.8,303.1z"/>
	<path class="st17" d="M67.5,125.2c-0.5,1.8,0.5,1.6,1.7,1.3c11.5-3.7,23.3-6.4,35.2-8.5c3.2-0.6,6.5-0.9,9.8-1.3
		c-0.2,1.7-0.4,3.4-0.5,5.1c-0.1,0.8-0.6,0.8-1.1,0.9c-15.8,2.1-31.2,5.6-46.4,10c-0.2,0.1-0.5,0.1-0.8,0.1V132
		C66,129.7,66.8,127.4,67.5,125.2C67.5,125.2,67.5,125.2,67.5,125.2z"/>
	<path class="st18" d="M248.2,115c1.1,3.4,4.3,2.1,6.5,2.5c8.8,1.6,17.7,3.2,26.4,5.6c4.5,1.2,8.8,2.8,13.2,4.1
		c1.7,0.5,0.1-1.5,1-1.7c0.7,2.2,1.4,4.4,2,6.6c0.3,1.3-0.8,0.5-1.1,0.5c-9.5-2.8-19.2-5.3-28.9-7.2c-5.7-1.1-11.4-2-17.1-2.9
		c-0.9-0.2-1.2-0.4-1.3-1.3C248.8,119,248.5,117,248.2,115L248.2,115L248.2,115z"/>
	<path class="st19" d="M141.1,30c-0.9-0.4-1.7-0.8-2.6-1.2c-0.1-0.2-0.3-0.4-0.4-0.7c0.2,0,0.4-0.1,0.5-0.1
		c19.7,2.8,39.8,2.9,59.3,7.6c0.1,0,0.2,0.1,0.3,0.1c0.5,1.8-0.9,3.9-2.9,4.3c-15.7-5.1-32.2-5.7-48.3-8.6
		C145.1,31,143.1,30.4,141.1,30L141.1,30L141.1,30z"/>
	<path class="st20" d="M165.9,291.9c0.6,1.1,1.1,2.1,1.7,3.2c0.2,0.3,0.2,0.6,0.3,0.9c-0.2-0.2-0.5-0.3-0.7-0.6
		c-2.9-3.4-7.1-4.5-11-6.2c-0.2-0.1-0.4,0-0.6,0c0.1,0.9,0.1,1.7,0.2,2.5c0.1,0.5,0.2,1,0.4,1.4c-0.5-0.2-0.9-0.4-1.4-0.7
		c-1.2-0.8-2.4-1.6-3.5-2.4c-0.6-0.4-1.2-0.7-1.7,0.2c-5.9-6.8-14.5-9.3-22-13.5c-2.8-1.6-5.2-3.7-7.9-5.5c-0.2-0.1-0.3-0.2-0.4-0.4
		c0.2,0,0.4,0,0.5,0.1c10.2,4.6,20.5,9.2,30.7,13.8C155.7,287.1,160.8,289.5,165.9,291.9L165.9,291.9L165.9,291.9z"/>
	<path class="st4" d="M316.6,212.2c-4.1-2.3-8.3-4.5-12.4-6.9c-2.7-1.6-5.2-3.3-7.8-5c-0.2-0.1-0.4-0.4-0.6-0.6
		c0.3-0.1,0.5-0.2,0.8-0.2c3.4-0.1,6.8-0.6,10.2,0c4.3,3.6,8.5,7.2,12.8,10.8c0.4,0.3,0.7,0.8,1,1.1c-0.5,0.1-0.9,0.3-1.4,0.4
		C318.3,211.9,317.4,212,316.6,212.2L316.6,212.2z"/>
	<path class="st19" d="M56.3,199.7c2.6-1.4,5.2,0.1,7.8-0.2c0.9-0.1,1.8,0.1,2.7,0.1c-0.6,0.6-1.2,1.2-1.9,1.7
		c-5.8,4-11.8,7.8-18.3,10.8c-0.1,0.1-0.3,0-0.5,0.1c-1.3-0.2-2.6-0.4-3.9-0.7c0.9-0.9,1.7-1.9,2.7-2.7
		C48.7,205.7,52.5,202.7,56.3,199.7L56.3,199.7L56.3,199.7z"/>
	<path class="st21" d="M152.7,59.7c-6.6,1.4-13.2,3.3-19.5,5.7c0,0.2-0.2,0.2-0.3,0.2c-0.2,0.1-0.3,0.2-0.5,0.2
		c-0.1,0-0.2,0.1-0.3,0.1c-0.2,0.1-0.4,0.1-0.5,0.2c-0.1,0-0.2,0.1-0.3,0.1c-0.2,0-0.4,0.1-0.6,0c-0.1-0.1-0.2-0.1-0.2-0.2
		c-1-1.2-0.6-2.6-0.8-4c2.4-0.9,4.8-1.9,7.1-2.8c0.6-0.2,1.1-0.5,1.7-0.8c-0.5-0.1-1.1-0.2-1.6-0.4c1.7-0.7,3.5-1.3,5.2-1.8
		c1.3-0.4,2.6-0.7,3.9-1.2L152.7,59.7L152.7,59.7L152.7,59.7z"/>
	<path class="st22" d="M218.9,120.2c-2.1-0.6-4.3-1.1-6.4-1.7c-0.4-0.1-0.7-0.3-1-0.4c0.4-0.2,0.7-0.4,1.1-0.5
		c1.6-0.3,3.3-0.6,4.9-0.9c0.7-0.1,0.7-0.3,0.2-0.8c0.2-0.2,0.3-0.3,0.5-0.5h0.2c0.1,0,0.3,0,0.4,0.1c2.2,0.7,4.4,0.6,6.7,0.9
		c1.6,0.3,3.2,0.2,4.8,0.6c0.2,0.1,0.4,0.1,0.5,0.2s0.2,0.2,0.3,0.3c1.3,0.2,2.7,0.4,4,0.8c3.1,1,5.9,0.4,8.4-1.7
		c-4.4,6.2-10.5,5.7-16.9,4.5C224.1,120.6,221.5,120.5,218.9,120.2L218.9,120.2z"/>
	<path class="st23" d="M145.9,55.1c-0.1,0.2-0.1,0.5-0.2,0.5c-3,0.8-5.9,1.6-8.9,2.4c-5.7,0-11.3,0.1-17,0.1h-0.6
		c0.3-0.2,0.6-0.5,0.9-0.6c6.6-2.5,13.4-3.9,20.4-5C143.1,52.2,144.2,54.1,145.9,55.1L145.9,55.1z"/>
	<path class="st24" d="M214.9,45.6c-0.3,0.3-1.2-0.1-1.2,0.7c0,2.5-1.3,1.6-2.5,1c-3.9-1.9-7.9-3.8-11.8-5.7c0.3-1.2,1.1-2,2.3-2.5
		s2.3-1.3,2.5-2.8c3.7,2.7,7,5.7,10.2,8.9c0.1,0.1,0.1,0.2,0.2,0.2l0,0C214.7,45.5,214.8,45.6,214.9,45.6L214.9,45.6z"/>
	<path class="st25" d="M129.6,62.1l1,4.1c-0.3,0.7-1,0.7-1.6,0.9c-4.2,1.4-8.3,3.2-12.3,5.1c-2.2,1.1-4.5,2.2-6.7,3.4
		c-0.8,0.5-1.6,0.9-2.4,1.3c-0.3,0.2-0.9,0.6-1.1-0.2l0,0c0.1-0.1,0.2-0.1,0.2-0.2l0,0c0.1-0.1,0.2-0.2,0.2-0.2
		c6.3-5.9,13.5-10.2,21.4-13.6c0.3-0.1,0.7-0.2,1-0.4C129.4,62,129.5,62,129.6,62.1L129.6,62.1z"/>
	<path class="st26" d="M106.5,76.6c1.4,0.2,2.2-1.1,3.4-1.4c0.5,0,1,0.2,1.4,0.5c1.3,0.8,1.5,1.7,0.7,3.1c-4.5,4.1-9.7,6.7-15.6,7.9
		H96c0.1-0.1,0.1-0.3,0.2-0.4C99.7,83.1,103.1,79.9,106.5,76.6L106.5,76.6z"/>
	<path class="st19" d="M58.4,221.1c2.8-1.6,5.9-0.1,8.8-1c0.4-0.1,0.1,0.4-0.1,0.5c-3.9,3.2-7.8,6.5-11.8,9.5
		c-0.7,0.5-2.1,0.1-3.1,0.2v-1.1C54.3,226.6,56.3,223.8,58.4,221.1L58.4,221.1L58.4,221.1z"/>
	<path class="st27" d="M311.3,230.5c-5,0.7-7.4-3.5-10.8-5.8c-1.3-0.9-2.5-2.2-3.7-3.4c-0.3-0.3-0.6-0.6-0.9-0.9
		c0.4-0.1,0.9-0.2,1.3-0.2c2.5,0.3,5,0.6,7.6,0.9C307,224.1,309.5,227.1,311.3,230.5z"/>
	<path class="st28" d="M116.5,71.9c4.5-2.4,9.2-4.1,14-5.8h0.2c0.2-0.1,0.4-0.1,0.5-0.2c0.1,0,0.2,0,0.2-0.1
		c0.2-0.1,0.3-0.1,0.5-0.2c0.1,0,0.2,0,0.2-0.1c0.1-0.1,0.3-0.1,0.5-0.2c0.2,0,0.3-0.1,0.4-0.1c0,1,0.8,0.5,1.2,0.4
		c1.3-0.1,2.6-0.7,3.9-0.3c-1.1,0.6-2.1,1.2-3.2,1.7c-2.1,1-4.1,2-6.3,2.7c-1,0.3-0.7,1.2-1.3,1.6c-2.6,0-4.7,1.6-7.1,2.4
		c-0.1,0-0.2,0.1-0.3,0.2c0,0-0.1,0.1-0.2,0.1s-0.2,0.1-0.3,0.2c0,0-0.1,0.1-0.2,0.1s-0.2,0.1-0.3,0.2l0,0c-0.1,0.2-0.3,0.1-0.5,0.2
		l0,0c-0.1,0.1-0.1,0.1-0.2,0.2S118.1,75,118,75c-0.1,0.1-0.2,0.1-0.3,0.2c-0.1,0.1-0.1,0.1-0.2,0.1c-0.3-0.4-0.4-0.5,0-0.8
		c0.8-0.7,0.6-1.2-0.2-1.7C117.2,72.7,116.8,72.4,116.5,71.9L116.5,71.9L116.5,71.9z"/>
	<path class="st29" d="M171,73.8c-5.8-2.5-11.9-3.9-18.2-4.8c-0.3-0.1-0.7-0.2-1-0.3c0.3-0.1,0.6-0.2,0.9-0.2
		c5.4-0.3,10.8-0.2,16.1,0.7c0.2,0,0.4-0.1,0.7-0.1c2.9,1.5,5.8,2.9,8.7,4.4c0.2,0.1,0.3,0.2,0.4,0.3c-0.2,0-0.3,0.1-0.5,0.1
		C175.8,73.8,173.4,73.8,171,73.8L171,73.8L171,73.8z"/>
	<path class="st30" d="M204.2,36.3c0.5,0.7,0.2,1.1-0.3,1.7c-1.4,1.4-3.5,1.8-4.5,3.6c-1.4-0.6-2.7-1.1-4.1-1.6
		c1.7-1,2.6-2.4,2.9-4.3c0.6,0,0.7-0.1,0.3-0.7c-1.2-1.5-2.3-3.1-3.4-4.6c-0.1-0.2-0.2-0.4-0.3-0.6c0.2,0.1,0.5,0.1,0.6,0.2
		C198.4,32.1,201.3,34.2,204.2,36.3z"/>
	<path class="st31" d="M81.9,232.8c0.8,0.1,1.7,0.2,2.5,0.2c-0.7,0.6-1.3,1.2-2.1,1.7c-2.8,1.8-5.7,3.6-8.5,5.4
		c-0.3,0.2-0.5,0.4-0.7,0.6c0.2,0.1,0.5,0.3,0.8,0.4c-1.3,0.1-2.7,0.3-4,0.4c0.9-1,1.8-2.1,2.8-3C75.3,235.9,78.4,234.1,81.9,232.8
		L81.9,232.8L81.9,232.8z"/>
	<path class="st32" d="M289.9,241.2c0.9-0.5,0.3-0.7-0.2-1c-2.8-1.6-5.7-3.3-8.5-5c-0.8-0.5-1.4-1.3-2.1-2c0.9,0,1.8-0.1,2.6-0.1
		c4.2,1.5,7.5,4.1,10.5,7.3c0.3,0.4,0.6,0.8,1,1.1c-0.5,0-1-0.1-1.5-0.1C291.1,241.4,290.5,241.3,289.9,241.2L289.9,241.2z"/>
	<path class="st33" d="M116.5,71.9c1.6,0.8,3.2,1.6,1.2,3.6c-1.9,1.1-3.8,2.2-5.7,3.4c0.7-2.1-0.9-2.8-2.2-3.6
		C112.1,74.1,114.3,73,116.5,71.9z"/>
	<path class="st34" d="M288.7,108.6c0.4-0.2,0.9,0.8,1.3,0c0.2,0.8,0.5,1.7,0.7,2.5c0.3,1.1,0.7,2.2,1,3.2c-1.1-0.3-2.3-0.6-3.4-0.9
		c-12.9-4-25.8-8.1-38.7-12.1c4.1,0.2,7.8,1.8,11.7,2.9c5.5,1.6,11,3.4,16.4,5.1c4,1.2,7.9,2.6,11.8,3.8c0.3,0.1,0.7,0.1,1,0.2
		c0-0.3,0-0.7-0.1-0.9C289.9,111,289.3,109.8,288.7,108.6L288.7,108.6L288.7,108.6z"/>
	<path class="st35" d="M71.3,112.8c1.8,1.6,3.3,0,4.8-0.5c5.8-1.7,11.5-3.7,17.3-5.5c3.4-1.1,6.9-2.1,10.4-3.1
		c0.3-0.1,0.6,0,0.9,0.1c-11,3.5-22.1,7.1-33.1,10.6c-0.2,0.1-0.5,0-0.7,0C71,113.9,71.1,113.4,71.3,112.8L71.3,112.8L71.3,112.8z"
		/>
	<path class="st18" d="M295.1,124.5c-1.1,0.4-1.1-0.8-1.7-1.1C294.2,123.5,295.1,123.4,295.1,124.5z"/>
	<path class="st22" d="M245.2,115.2c0.7-0.6,1.4-1.1,2.1-1.7C246.6,114.1,245.9,114.7,245.2,115.2z"/>
	<path class="st22" d="M244,116.2c0.1-0.5,0.4-0.8,0.9-0.7C244.6,115.7,244.3,115.9,244,116.2z"/>
	<path class="st21" d="M129.4,62.1c-0.3,0.1-0.7,0.3-1,0.4C128.7,62.4,129.1,62.3,129.4,62.1z"/>
	<path class="st18" d="M295.4,125.4c-0.1-0.3-0.2-0.6-0.2-0.9C295.2,124.8,295.3,125.1,295.4,125.4z"/>
	<path class="st1" d="M38.4,193.8c0.2,0.1,0.5,0.1,0.8,0.2C38.9,194,38.6,193.9,38.4,193.8z"/>
	<path class="st15" d="M122,119.3c0.2,0.1,0.3,0.2,0.5,0.3C122.3,119.4,122.2,119.3,122,119.3z"/>
	<path class="st7" d="M319.4,37.1c0.2-0.1,0.3-0.1,0.5-0.2C319.8,37,319.6,37,319.4,37.1z"/>
	<path class="st33" d="M118.7,75c0.2-0.1,0.3-0.2,0.5-0.2C119,74.8,118.8,74.9,118.7,75z"/>
	<path class="st8" d="M213.4,135.9c0.1-0.1,0.2-0.3,0.3-0.4C213.6,135.6,213.5,135.8,213.4,135.9z"/>
	<path class="st9" d="M217.4,61.2c-0.2-0.1-0.3-0.2-0.5-0.3l0.1-0.1C217.3,60.8,217.6,60.8,217.4,61.2
		C217.4,61.2,217.4,61.2,217.4,61.2z"/>
	<path class="st8" d="M213.2,136.2c0.1-0.1,0.1-0.2,0.2-0.3C213.4,136,213.3,136.1,213.2,136.2z"/>
	<path class="st8" d="M213.7,135.5c0.1-0.1,0.1-0.2,0.2-0.3C213.8,135.3,213.8,135.4,213.7,135.5z"/>
	<path class="st5" d="M214.9,45.6c-0.1-0.1-0.2-0.1-0.2-0.2C214.7,45.5,214.8,45.6,214.9,45.6z"/>
	<path class="st5" d="M214.7,45.4c-0.1-0.1-0.2-0.1-0.2-0.2C214.5,45.3,214.6,45.3,214.7,45.4z"/>
	<path class="st15" d="M121.7,119c0.1,0.1,0.2,0.1,0.3,0.2C121.9,119.2,121.8,119.1,121.7,119z"/>
	<path class="st22" d="M243.7,116.4c0.1-0.1,0.2-0.2,0.2-0.2C243.9,116.3,243.8,116.3,243.7,116.4z"/>
	<path class="st22" d="M244.9,115.5c0.1-0.1,0.2-0.1,0.3-0.2C245.1,115.3,245,115.4,244.9,115.5z"/>
	<path class="st9" d="M216.1,60.3c0.1,0.1,0.2,0.1,0.2,0.2C216.2,60.4,216.1,60.3,216.1,60.3z"/>
	<path class="st9" d="M216.3,60.5c0.1,0.1,0.2,0.1,0.3,0.2C216.5,60.6,216.4,60.5,216.3,60.5z"/>
	<path class="st9" d="M216.8,60.7h0.2l0.1,0.1v0.1L217,61C216.9,60.9,216.8,60.8,216.8,60.7C216.8,60.7,216.8,60.7,216.8,60.7z"/>
	<path class="st26" d="M106.8,76.4c-0.1,0.1-0.2,0.1-0.2,0.2C106.6,76.5,106.7,76.5,106.8,76.4z"/>
	<path class="st26" d="M107,76.1c-0.1,0.1-0.1,0.1-0.2,0.2C106.7,76.4,106.9,76.2,107,76.1z"/>
	<path class="st33" d="M118,75.4c0.1-0.1,0.2-0.1,0.3-0.2C118.2,75.3,118.1,75.3,118,75.4z"/>
	<path class="st33" d="M118.4,75.1c0.1-0.1,0.2-0.1,0.2-0.2C118.6,75,118.5,75.1,118.4,75.1z"/>
	<path class="st33" d="M119.2,74.7c0.1-0.1,0.2-0.1,0.3-0.2C119.4,74.6,119.3,74.7,119.2,74.7z"/>
	<path class="st33" d="M119.6,74.5c0.1-0.1,0.2-0.1,0.3-0.2C119.8,74.3,119.7,74.4,119.6,74.5z"/>
	<path class="st33" d="M120.1,74.2c0.1-0.1,0.2-0.1,0.3-0.2C120.3,74.1,120.2,74.2,120.1,74.2z"/>
	<path class="st20" d="M149.6,290.2l0.2,0.2C149.8,290.4,149.7,290.3,149.6,290.2z"/>
	<path class="st20" d="M149.9,290.5l0.2,0.2C150,290.6,149.9,290.6,149.9,290.5z"/>
	<path class="st20" d="M150.1,290.7c0.1,0.1,0.2,0.1,0.2,0.2C150.3,290.9,150.2,290.8,150.1,290.7z"/>
	<path class="st20" d="M150.4,290.9c0.1,0.1,0.2,0.1,0.2,0.2C150.5,291.1,150.4,291,150.4,290.9z"/>
	<path class="st20" d="M150.6,291.2l0.2,0.2C150.8,291.3,150.7,291.2,150.6,291.2z"/>
	<path class="st20" d="M151,291.4c0.1,0.1,0.2,0.1,0.3,0.2C151.2,291.6,151.1,291.5,151,291.4z"/>
	<path class="st20" d="M151.3,291.7c0.1,0.1,0.2,0.1,0.2,0.2C151.5,291.8,151.4,291.7,151.3,291.7z"/>
	<path class="st20" d="M151.6,291.9c0.1,0.1,0.2,0.1,0.2,0.2C151.7,292,151.6,292,151.6,291.9z"/>
	<path class="st20" d="M151.8,292.1c0.1,0.1,0.2,0.1,0.2,0.2C152,292.3,151.9,292.2,151.8,292.1z"/>
	<path class="st20" d="M152.1,292.4l0.2,0.2L152.1,292.4z"/>
	<path class="st20" d="M152.7,292.9c0.1,0.1,0.2,0.1,0.3,0.2C152.9,293,152.8,292.9,152.7,292.9z"/>
	<path class="st20" d="M153,293.1c0.1,0.1,0.2,0.1,0.2,0.2L153,293.1z"/>
	<path class="st22" d="M243.5,116.6c0.1-0.1,0.2-0.1,0.2-0.2C243.6,116.5,243.5,116.6,243.5,116.6z"/>
	<path d="M174.4,155.5c2-2.4,4-4.7,6-7.1c0.8-0.9,1.4-0.9,2.2,0c1.9,2.3,3.9,4.6,5.8,6.9c4.4,5.6,8.8,11.2,13.2,16.9
		c0.5,0.7,0.9,0.1,1.3-0.1c18.7-9.6,37.3-19.2,55.9-29c2.4-1.2,4-0.6,5.9,0.4c9.1,4.6,18.1,9.1,27.2,13.7c0.2,0.1,0.3,0.2,0.4,0.4
		l-0.6,0.3c-6.1,2.2-12.1,4.4-18.2,6.6c-0.3,0.1-0.6,0.3-0.8,0.5c0.2,0.2,0.4,0.4,0.6,0.5c10.3,6.1,20.7,12.1,31,18.1
		c-0.4,0.1-0.9,0.3-1.3,0.3h-19.6c-0.3,0-0.7,0.1-1,0.2c0.2,0.3,0.4,0.6,0.7,0.8c3.9,3.6,7.9,7.2,11.8,10.9c0.2,0.2,0.3,0.4,0.5,0.6
		c-0.3,0-0.5,0.1-0.8,0.1c-6.5,0.2-13,0.4-19.5,0.5c-0.3,0-0.7,0.1-1,0.1c0.2,0.3,0.4,0.6,0.6,0.9c4.5,4.6,8.9,9.1,13.4,13.7
		c0.2,0.2,0.3,0.4,0.4,0.6c-0.3,0-0.5,0.1-0.8,0.1c-4-0.2-7.9-0.4-11.9-0.5c-0.3,0-0.6,0.1-0.8,0.2c0.1,0.2,0.2,0.5,0.4,0.7
		c3.3,4.1,6.6,8.1,9.9,12.2c0.2,0.2,0.3,0.4,0.4,0.7c-0.3,0-0.5,0.1-0.8,0.1c-10.8-0.2-21.5-0.5-32.3-0.7c-0.3,0-0.6,0.1-0.9,0.1
		c0.1,0.3,0.2,0.7,0.3,1c2.8,4.2,5.7,8.3,8.5,12.5c0.2,0.3,0.3,0.6,0.5,0.9c-0.3,0-0.7,0-1-0.1c-1.9-0.3-3.8-0.7-5.7-1
		c-0.5,0.3-1.1,0.1-1.6,0c-5.7-1.1-11-3.1-16.1-5.6c-10.9-5.4-21.2-12-30.9-19.4c-7.6-5.7-15.2-11.5-22.6-17.5
		c-1.6-1.3-1.5-1.2-3.1,0c-10.3,8.3-20.6,16.7-31.6,24c-7,4.7-14.2,9.2-21.8,12.8c-5.2,2.5-10.7,4.4-16.4,5.6
		c-0.4,0.1-0.9,0.1-1.3,0c-2,0.4-4,0.8-6.1,1.1c-0.3,0.1-0.5,0.1-0.8,0.1c0.1-0.3,0.2-0.6,0.3-0.8c2.8-4.2,5.5-8.3,8.3-12.5
		c0.2-0.3,0.3-0.7,0.5-1c-0.4,0-0.8-0.1-1.1-0.1c-10.3,0.2-20.5,0.5-30.8,0.7c-0.3,0-0.7-0.1-1-0.1c0.1-0.3,0.2-0.7,0.4-0.9
		c3.1-4,6.2-8,9.3-11.9c0.2-0.3,0.3-0.6,0.5-0.9c-0.3,0-0.7-0.1-1-0.1c-4,0.2-7.9,0.5-11.9,0.8c-0.2,0-0.4,0-0.5-0.1
		c0.2-0.3,0.3-0.6,0.5-0.9c4.5-4.6,8.9-9.1,13.4-13.7c0.2-0.2,0.4-0.5,0.6-0.8c-0.3-0.1-0.7-0.2-1-0.2c-6.5-0.2-13-0.3-19.5-0.5
		c-0.3,0-0.6-0.1-0.9-0.1c0.2-0.3,0.3-0.6,0.6-0.8c3.8-3.5,7.7-7,11.5-10.5c0.3-0.3,0.6-0.6,0.8-1c-0.4-0.1-0.8-0.2-1.2-0.2H58.7
		c-0.1,0-0.1-0.1-0.1-0.1c0-0.1,0-0.1,0.1-0.1l0,0c0.1-0.1,0.1-0.2,0.2-0.2c10.4-6,20.8-12,31.2-18c0.2-0.1,0.4-0.4,0.6-0.5
		c-0.2-0.1-0.4-0.2-0.6-0.3c-6.2-2.3-12.4-4.5-18.6-6.8c-0.2-0.1-0.4-0.2-0.6-0.3c0.1-0.1,0.2-0.3,0.4-0.4
		c9.8-5.2,19.7-10.3,29.8-14.8c0.8-0.4,1.5,0,2.1,0.3c19,9.8,38,19.6,57,29.4c0.5,0.3,0.9,0.5,1.4-0.1
		C165.7,166.4,170.1,160.9,174.4,155.5L174.4,155.5L174.4,155.5z"/>
	<path class="st4" d="M108.7,238.3c22.7-5.1,40.3-19.1,58.2-32.6c4.7-3.5,9.2-7.2,13.7-10.9c0.7-0.6,1.1-0.4,1.7,0.1
		c15.3,12,30.4,24.4,47.6,34c7.7,4.3,15.7,7.8,24.3,9.5c0.1,0.3,1.2,0.3,0.1,0.8c-14.2,6-28.3,12-42.4,17.9c-2.4,1-5,1.6-7.4,2.5
		c-0.4,0.6-1,0.6-1.5,0.8c-5.1,1.2-9.8,0.4-14.3-2.3c-1.8-1.1-3.7-2.2-5-4c-0.1-0.7,0.5-0.9,1-1.2c3.2-1.5,5.6-3.9,7.7-6.7
		c1.8-1.5,3.8-2.7,5.5-4.4c3.8-3.8,7.4-7.8,9.5-12.8c0.6-1.4,0.8-2.9,0.5-4.4s-1.1-2.8-2.5-3.6c-0.9-0.5-1.9-0.9-2.9-1.4
		c-0.2-0.1-0.4-0.3-0.5-0.4s-0.1-0.2-0.2-0.3c-0.5-1-1.2-1.8-2-2.6c-2.2-2.3-4.7-4.3-7.2-6.1c-3.3-2.5-6.7-4.9-10-7.5
		c-0.9-0.7-1.5-0.7-2.4,0c-5.2,4.3-10.6,8.2-15.5,12.8c-1.2,1.1-2.4,2.2-3,3.8c-0.6,0.6-1.4,0.7-2.2,0.9c-3.8,1.3-5.2,4.4-4,8.2
		c0.6,2,1.7,3.7,2.8,5.5c0.7,1.1,1.5,2.2,2.2,3.4c1.3,4.1,3.1,8,6.3,11c3.2,2.9,7,4.8,11.2,5.6c0.4,0.1,0.8,0.1,1.1,0.4
		c0,0.1,0.1,0.2,0,0.4c0,0.1-0.1,0.2-0.2,0.4c-3,2.6-6.4,4.4-10.2,5.3c-3.2,0.8-6.3,0.5-9.4-0.2c-0.4-0.1-0.9-0.2-1-0.7
		c-17-5.4-32.6-14-49.2-20.3C108.5,239.1,108,238.9,108.7,238.3L108.7,238.3L108.7,238.3z"/>
	<path d="M158.2,259.5c7.7,2.3,14.5,0.2,20.5-4.8c0-0.1,0.1-0.2,0.2-0.2l0,0c0.5-1.1,1.2-2.2,1-3.6c-0.1-0.8-0.3-1.2-1.2-1.3
		c-5.6-0.9-10.3-3.7-14.4-7.6c-1.6-1.5-3.3-2.8-4.3-4.7c-2-3-4.2-5.8-5.2-9.4c-1.2-4.2,0.7-6.8,6.7-8.9c0.6-0.6,1.4-0.7,2.2-0.8
		c1-0.2,1.9-0.4,2.9-0.5c0.4,0,0.8,0,1.1-0.1c0.2,0,0.4-0.1,0.6-0.1c0.3,0,0.8,0,0.9,0.4s-0.3,0.4-0.5,0.6c-0.2,0.1-0.3,0.1-0.5,0.1
		c-0.3,0-0.6,0.1-0.9,0.2c-2.3,0.6-4.7,1.1-6.9,1.9c-1.3,0.5-2.3,1.2-2.8,2.5c-0.2,0.4-0.4,0.9-0.1,1.2c0.3,0.3,0.7,0.1,1.1,0
		c0.5-0.1,1-0.3,1.5-0.3c8-1.4,16.1-1,24.2-1.1c3.5,0,6.8-0.9,10.1-2.1c0.9-0.5,1.2-1.4,1.6-2.3c0.5-1.2,0.9-1.4,2.1-1.1
		c1.3,0.4,2.7,0.4,3.8,1.4l0,0c0.1,0.1,0.3,0.1,0.5,0.2c6.8,3.3,7.7,6.2,3.9,12.8c-3.4,5.8-8,10.6-13.6,14.4
		c-1.6,1.7-3.7,2.1-5.8,2.7c-1,0.3-1.9,0.5-2.9,0.6c-1,0-1.1,0.6-1.1,1.4c0,1,0.7,1.8,1,2.7c5.9,5.5,12.6,8.2,20.7,5.7
		c0,2.3,0.2,4.6,0.1,6.9c0,0.9-1,0.8-1.6,0.9c-7.8,1.8-14.7-0.1-20.6-5.4c-0.7-0.6-1.1-0.6-1.9,0c-6,5.2-12.9,7-20.7,5.4
		c-1.2-0.3-1.8-0.7-1.7-2.1C158.2,263.4,158.1,261.4,158.2,259.5L158.2,259.5L158.2,259.5z"/>
	<path class="st36" d="M175.1,273.6H193c0.2,0,0.3,0,0.5,0.1c-0.1,0.1-0.2,0.3-0.3,0.4c-3.7,1.9-7.3,4-11.1,5.7
		c-1.4,0.6-2.8-0.7-4.2-1.3c-2.7-1.2-5.3-2.7-7.9-4.1c-0.2-0.1-0.4-0.3-0.6-0.4c0.2-0.1,0.5-0.2,0.7-0.2h5L175.1,273.6L175.1,273.6
		L175.1,273.6z"/>
	<path class="st37" d="M172,94c5.9-1.9,11.1,1.4,15.9,6.5c3.1,3.3,6.9,6,10.3,8.9c0.2,0.2,0.4,0.4,0.6,0.6c-0.2,0.1-0.5,0.2-0.8,0.2
		h-18c-0.5,0-1-0.2-1.4-0.5c-5.7-4.9-11.5-9.8-17.2-14.7c-0.2-0.2-0.4-0.5-0.6-0.8c0.3-0.1,0.7-0.2,1-0.2H172z"/>
	<path class="st38" d="M231.1,117.5h-0.2c-0.1,0-0.2-0.1-0.2-0.1c-3.6-0.4-7.3-0.8-10.9-1.2c-0.4-0.1-0.8-0.4-1.3-0.5
		c-0.1-0.1-0.1-0.1-0.2-0.2l0,0c-5.5-5.6-11-11.1-16.5-16.6c-0.3-0.3-0.6-0.7-0.8-1c0.2-0.6,0.8-0.7,1.4-0.8
		c1.5-0.3,3.1-0.6,4.7-0.8c1.4,0.2,2.7-0.4,4-0.8c6.5,6.9,13,13.9,19.5,20.8C230.6,116.6,230.8,117.1,231.1,117.5L231.1,117.5z"/>
	<path class="st39" d="M207,96.6c-2.1,0.4-4.1,0.8-6.2,1.2l0,0c-0.1-0.1-0.2-0.1-0.2-0.2c-1-1.1-2-2.1-3-3.2c1.6,0,3.1-0.1,4.7-0.1
		c2.1,0.1,4.1,0.2,6.2,0.4c0.6,0.7,0.5,1.2-0.3,1.6C207.8,96.6,207.4,96.4,207,96.6C207,96.6,207,96.6,207,96.6z"/>
	<path class="st40" d="M207,96.6c0.6-0.5,2.1-0.4,1.4-1.9c0.9,0,1.8-0.1,2.4,0.7C209.9,96.8,208.4,96.5,207,96.6L207,96.6L207,96.6z
		"/>
	<path class="st22" d="M216.8,115.9c-0.5-0.1-1-0.2-1.4-0.2C215.8,115.8,216.3,115.8,216.8,115.9z"/>
	<path class="st38" d="M200.6,97.7c0.1,0.1,0.2,0.1,0.2,0.2C200.8,97.8,200.7,97.7,200.6,97.7z"/>
	<path class="st1" d="M58.7,183.3c-0.1,0.1-0.1,0.2-0.2,0.3C58.5,183.5,58.6,183.4,58.7,183.3z"/>
	<path class="st1" d="M58.5,183.6v0.2C58.4,183.7,58.4,183.7,58.5,183.6C58.4,183.6,58.4,183.6,58.5,183.6L58.5,183.6z"/>
	<path class="st41" d="M217.1,60.9v-0.2c0.2-1.4,1.5-0.9,2.3-1.2c0.4-0.2,0.7-0.5,1.1-0.7c4.6,3.5,9.2,7,13.8,10.5l0,0
		c-5.7-2.4-11.4-4.8-16.7-8.1C217.3,61.1,217.2,61,217.1,60.9L217.1,60.9L217.1,60.9z"/>
	<path class="st41" d="M219.4,58c0.2,0.1,0.3,0.2,0.4,0.3C219.7,58.2,219.6,58.1,219.4,58z"/>
	<path class="st41" d="M218.2,57.3c0.1,0.1,0.3,0.2,0.4,0.3C218.5,57.5,218.4,57.4,218.2,57.3z"/>
	<path class="st41" d="M218.7,57.6c0.1,0.1,0.2,0.1,0.3,0.2C218.9,57.7,218.8,57.7,218.7,57.6z"/>
	<path class="st41" d="M219.2,57.9c0.1,0.1,0.2,0.1,0.2,0.2C219.3,58,219.3,57.9,219.2,57.9z"/>
	<path class="st41" d="M219.9,58.3c0.1,0.1,0.2,0.1,0.2,0.2C220,58.5,220,58.4,219.9,58.3z"/>
	<path class="st41" d="M220.1,58.5c0.1,0.1,0.2,0.1,0.3,0.2C220.3,58.7,220.2,58.6,220.1,58.5z"/>
	<path class="st42" d="M42.1,71.9c0.2,0.3,0.3,0.5,0.4,0.6c1.7,2.9,3.3,5.7,5,8.6c0.2,0.3,0.1,0.7,0.1,1.1c-0.3-0.2-0.6-0.3-0.9-0.5
		c-2.5-2.4-4.1-5.4-4.7-8.8C42,72.6,42.1,72.4,42.1,71.9C42.1,71.9,42.1,71.9,42.1,71.9z"/>
	<path class="st43" d="M320.6,72.3c-0.5,4-2.3,7.2-5,9.9c-0.1,0.1-0.3,0.1-0.5,0.2c0-0.2,0-0.5,0.1-0.7c1.7-3.1,3.4-6.3,5.1-9.4
		c0.1-0.1,0.2-0.2,0.3-0.2C320.5,72.2,320.6,72.3,320.6,72.3L320.6,72.3z"/>
	<path class="st10" d="M131.3,65.9c-0.2,0.1-0.3,0.1-0.5,0.2C131,66.1,131.1,66,131.3,65.9z"/>
	<path class="st10" d="M132,65.7c-0.2,0.1-0.3,0.1-0.5,0.2C131.7,65.8,131.9,65.8,132,65.7z"/>
	<path class="st10" d="M132.7,65.5c-0.2,0.1-0.3,0.1-0.5,0.2C132.4,65.6,132.6,65.5,132.7,65.5z"/>
	<path class="st2" d="M230.6,117.4c0.1,0,0.2,0.1,0.2,0.1S230.7,117.4,230.6,117.4z"/>
	<path class="st2" d="M218.2,115.5c0.1,0.1,0.2,0.1,0.2,0.2C218.4,115.6,218.3,115.5,218.2,115.5z"/>
	<path class="st3" d="M235.4,212.6c-12.2,0-22.9-8.9-24.4-20.5c-0.6-4.9,1.8-8.5,5.1-11.8c0.1-0.1,0.3-0.1,0.4-0.2
		c0,0.3,0,0.5-0.1,0.8c-3.5,12.6,3.9,24.4,16.8,26.1c7.2,1,13.3-1.7,17.9-7.3c4.6-5.5,5.2-11.8,2.8-18.5c-0.4-1.2-0.8-0.2-1.1,0
		c-3.3,2.4-6.8,3.5-10.7,1.9c-3.3-1.4-5.4-3.8-6-7.4s1.3-7.1,4.6-8.9c3.6-2,8.6-1.5,11.7,1.2c7.4,6.4,10.5,18.4,7.1,27.6
		C255.7,206.2,246.5,212.6,235.4,212.6L235.4,212.6L235.4,212.6z"/>
	<path class="st4" d="M101.9,184.7c0.1-4.7,2.8-10.9,7.8-16.1c3.7-3.8,10.5-3.8,14.1-0.4c3.5,3.4,3.6,8.9,0.4,12.6
		c-3.3,3.8-9.5,4.1-13.8,0.7c-0.9-0.8-1.4-1.1-1.8,0.5c-2.3,8.4,0.2,16.5,6.6,21.2c6.9,5.1,16,5.5,22.9,0.9
		c7.5-4.9,10.7-13.1,8.7-22.2c-0.1-0.6-0.2-1.1-0.3-1.7c0.4,0.4,0.9,0.7,1.3,1.1c6,6.4,5.7,14.2-0.9,22.1c-6.7,8.1-18.3,11.3-28,7.8
		C108.6,207.6,101.8,197.9,101.9,184.7L101.9,184.7L101.9,184.7z"/>
	<path class="st44" d="M181,175.4c-4,3.4-8.1,6.8-12.1,10.3c-0.9,0.8-1,0.5-1.4-0.5c-2.1-5,1.5-8.3,3.8-11.8
		c3.1-4.9,6.7-9.4,10.1-14.1c0.7,0.3,0.6,0.9,0.7,1.4c0.3,2,0.2,4,0.2,6v7.1C182.2,174.7,182.1,175.4,181,175.4L181,175.4z"/>
	<path class="st45" d="M181,175.4c0.2-0.2,0.8-0.1,0.7-0.7c-0.1-5-0.2-10.1-0.3-15.1c0-0.1-0.1-0.2-0.2-0.3c1.3,0.3,1.6,1.6,2.2,2.5
		c3.9,5.6,7.9,11.2,11.4,17.1c1.5,2.6,0.7,4.8-0.2,7.1c-0.2,0.6-0.5,0.2-0.8,0c-3.7-3.3-7.5-6.6-11.2-9.8
		C182.3,175.7,181.6,175.7,181,175.4L181,175.4L181,175.4z"/>
	<path class="st23" d="M133.1,178.7c0.2-2,1.2-3.2,3.2-3.2s3.1,1.2,3.1,3.1c0,2-1.2,3.2-3.2,3.2
		C134.2,181.9,133.4,180.5,133.1,178.7L133.1,178.7z"/>
	<path class="st23" d="M229.7,178.6c-0.1,2-1.2,3.2-3.1,3.2c-2,0-3.2-1.3-3.2-3.2s1.2-3,3.1-3C228.5,175.5,229.5,176.7,229.7,178.6
		L229.7,178.6z"/>
	<path class="st46" d="M166.8,218.1c-1.7,0.3-3.5,0.6-5.2,1c0.1-1.8,1.6-2.8,2.7-3.8c5.4-4.6,10.9-9,16.3-13.6
		c0.4-0.3,0.7-0.4,1-0.1c6.6,5.5,14.2,9.7,19.9,16.3c0.3,0.3,0.9,0.6,0.2,1.1h-0.5c-3-1.7-5.2-1-6.7,2.2c-0.8,0.2-0.6-0.4-0.5-0.7
		c0.2-0.8,0.3-1.6,0.7-2.3c0.3-0.5,0.1-0.7-0.4-0.8c-4.1-1-8.2-2.3-12.6-2.2c-2.8,0-5.6,0.7-8.3,1.4c-1.7,0.5-3.4,1.2-5.3,1.3h-0.4
		C167.5,218,167.1,217.8,166.8,218.1L166.8,218.1L166.8,218.1z"/>
	<path class="st47" d="M160.1,237.3c4.6,4.8,9.3,9.4,16,11.3c0.6,0.2,1.3,0.2,1.8,0.5c0.8,0.3,2.2-0.3,2.3,0.9
		c0.2,1.6,0.7,3.5-1.3,4.5c-4-0.7-7.7-2.3-11-4.7C163.8,246.7,161.6,242.2,160.1,237.3L160.1,237.3z"/>
	<path class="st48" d="M183.7,253.8c-1.6-1-1.6-2.6-1.3-4c0.2-1,1.5-0.5,2.3-0.6c2.7-0.6,5.4-1.4,7.8-2.8
		C190.3,249.8,187.2,252,183.7,253.8L183.7,253.8L183.7,253.8z"/>
	<path class="st46" d="M202.3,219.2c-0.2-0.1-0.3-0.1-0.5-0.2C201.9,219.1,202.1,219.2,202.3,219.2z"/>
	<path class="st47" d="M179,254.5l-0.2,0.2C178.8,254.7,178.9,254.6,179,254.5z"/>
	<path class="st49" d="M168.2,217.8c8.8-3.8,17.8-3.9,26.7-0.6c1.1,0.4-0.6,2-0.4,3.2c0,0.3-0.5,0.6,0.1,0.8
		c-2.9,1.4-5.9,2.2-9.1,2.3c-8.6,0.3-17.3-0.2-25.9,1c0-0.8,0.7-1,1.2-1.3c1.4-0.7,2.9-1,4.4-1.3c5.8-1,11.6-1.7,17.4-2.3
		c0.9-0.1,1.7-0.2,2.6-0.4c0.3-0.1,0.6,0,0.8-0.1c-0.3,0-0.6-0.1-0.9-0.1c-2.2-0.2-4.3-0.2-6.5-0.3h-8.5c-0.6,0-1.3,0.1-1.8-0.5
		c0.2-0.1,0.3-0.2,0.4-0.3C168.7,217.9,168.4,217.9,168.2,217.8L168.2,217.8L168.2,217.8z"/>
	<path class="st50" d="M168.4,218.3c6.1,0,12.1-0.3,18.2,0.5c0.5,0.1,1,0.2,1.4,0.3c-0.5,0.1-1,0.3-1.5,0.4
		c-7.1,1-14.3,1.9-21.4,2.9c-1.9,0.3-3.9,0.7-5.5,2.1c-0.9,0.2-2.2,1.3-2.6,0.4c-0.7-1.2,0-2.7,1.2-3.5c2.7-1.8,5.9-2.2,9-2.9
		c0.2-0.2,0.5,0,0.8-0.2C168.1,218.3,168.3,218.3,168.4,218.3L168.4,218.3L168.4,218.3z"/>
	<path class="st23" d="M171.9,232c-1.9-0.2-2.9-1.3-2.9-3.1s1.4-2.6,3.1-2.6c1.7,0.1,2.9,1.1,2.8,2.8
		C174.8,231,173.5,231.8,171.9,232L171.9,232L171.9,232z"/>
	<path class="st49" d="M166.8,218.1c0.3-0.1,0.7-0.1,1-0.2C167.5,217.9,167.1,218,166.8,218.1z"/>
	<path class="st49" d="M168,218.3c-0.2,0.1-0.5,0.1-0.8,0.2C167.5,218.5,167.7,218.4,168,218.3z"/>
</g>
</svg>
